<?xml version="1.0" standalone="no"?>
<!DOCTYPE svg PUBLIC "-//W3C//DTD SVG 1.1//EN" "http://www.w3.org/Graphics/SVG/1.1/DTD/svg11.dtd" >
<svg xmlns="http://www.w3.org/2000/svg" xmlns:xlink="http://www.w3.org/1999/xlink" version="1.1">
<metadata>
Created by FontForge 20161013 at Tue May  3 02:04:05 2016
 By ,,,
Copyright (c) 2004-7 by Kris Sowersby. All rights reserved.
</metadata>
<defs>
<font id="DomaineDisplay-Medium" horiz-adv-x="500" >
  <font-face 
    font-family="Copyright Klim Type Foundry"
    font-weight="500"
    font-stretch="normal"
    units-per-em="1000"
    panose-1="2 10 6 3 8 5 5 6 2 3"
    ascent="800"
    descent="-200"
    x-height="489"
    cap-height="700"
    bbox="-154 -260 1234 1080"
    underline-thickness="0"
    underline-position="0"
    unicode-range="U+000D-FB04"
  />
<missing-glyph 
 />
    <glyph glyph-name="ff" unicode="ff" horiz-adv-x="634" 
d="M199 563v-74h203v53v16t1 9h-2q-16 0 -30.5 5.5t-25.5 15.5q21 6 33.5 21.5t12.5 36.5q0 37 -21 57.5t-59 20.5q-55 0 -83.5 -41t-28.5 -120zM277 2v-2h-248v2q33 16 43.5 35.5t10.5 71.5v354h-66v8l66 22v29q0 101 62 160t166 59q41 0 77 -14.5t57 -39.5
q25 33 64.5 49.5t91.5 16.5q67 0 106 -24t39 -66q0 -29 -20 -47.5t-52 -18.5q-18 0 -31.5 5.5t-21.5 15.5q21 7 30.5 20.5t9.5 36.5q0 29 -16 45.5t-44 16.5q-42 0 -62.5 -34t-20.5 -105v-109h131l-5 -26h-126v-354q0 -44 16 -67t62 -40v-2h-247v2q33 16 43 35.5t10 71.5
v354h-203v-354q0 -44 16 -67t62 -40z" />
    <glyph glyph-name="fi" unicode="fi" horiz-adv-x="594" 
d="M309 737q-53 0 -81.5 -43t-28.5 -123v-82h319v-380q0 -51 10.5 -71t43.5 -36v-2h-223v2q33 16 43 35.5t10 71.5v306q0 25 -11.5 36.5t-36.5 11.5h-155v-354q0 -44 16 -67t62 -40v-2h-248v2q33 16 43.5 35.5t10.5 71.5v354h-66v8l66 22v41q0 100 63 159.5t163 59.5
q80 0 127 -28.5t47 -77.5q0 -31 -22 -50.5t-58 -19.5q-20 0 -35.5 5.5t-26.5 15.5q22 6 34 23.5t12 42.5q0 35 -20 54t-58 19z" />
    <glyph glyph-name="fl" unicode="fl" horiz-adv-x="594" 
d="M516 751h2v-642q0 -51 10.5 -71t43.5 -36v-2h-223v2q33 16 43 35.5t10 71.5v482q0 67 -29.5 106.5t-83.5 39.5q-43 0 -66.5 -37t-23.5 -100v-111h123l-5 -26h-118v-354q0 -44 16 -67t62 -40v-2h-248v2q33 16 43.5 35.5t10.5 71.5v354h-66v8l66 22v49q0 100 54.5 155.5
t149.5 55.5q40 0 75.5 -17.5t55.5 -44.5q27 8 51.5 23t46.5 37z" />
    <glyph glyph-name="ffi" unicode="ffi" horiz-adv-x="914" 
d="M199 563v-74h203v45q0 7 0.5 14.5t1.5 18.5h-3q-16 0 -30.5 5.5t-25.5 15.5q21 6 33.5 21.5t12.5 36.5q0 37 -21 57.5t-59 20.5q-55 0 -83.5 -41t-28.5 -120zM277 2v-2h-248v2q33 16 43.5 35.5t10.5 71.5v354h-66v8l66 22v29q0 101 62 160t166 59q45 0 83 -17t57 -45
q31 36 77 55t101 19q79 0 126 -28.5t47 -77.5q0 -31 -22 -50.5t-58 -19.5q-19 0 -34.5 5t-26.5 16q22 6 33.5 23t11.5 43q0 35 -20 54t-57 19q-54 0 -82.5 -43t-28.5 -123v-82h320v-380q0 -52 10 -71.5t43 -35.5v-2h-223v2q33 16 43.5 36t10.5 71v306q0 25 -11.5 36.5
t-36.5 11.5h-156v-354q0 -44 16 -67t62 -40v-2h-247v2q33 16 43 35.5t10 71.5v354h-203v-354q0 -44 16 -67t62 -40z" />
    <glyph glyph-name="ffl" unicode="ffl" horiz-adv-x="913" 
d="M199 563v-74h203v53v16t1 9h-2q-16 0 -30.5 5.5t-25.5 15.5q21 6 33.5 21.5t12.5 36.5q0 37 -21 57.5t-59 20.5q-55 0 -83.5 -41t-28.5 -120zM277 2v-2h-248v2q33 16 43.5 35.5t10.5 71.5v354h-66v8l66 22v29q0 101 62 160t166 59q42 0 78 -15t57 -40q27 33 68 50t92 17
q39 0 75 -17t57 -45q27 8 51.5 23t46.5 37h2v-642q0 -52 10 -71.5t43 -35.5v-2h-223v2q33 16 43.5 36t10.5 71v482q0 66 -30 106t-84 40q-43 0 -66.5 -37t-23.5 -100v-111h123l-5 -26h-118v-354q0 -44 16 -67t62 -40v-2h-247v2q33 16 43 35.5t10 71.5v354h-203v-354
q0 -44 16 -67t62 -40z" />
    <glyph glyph-name="f_b" unicode="fb" horiz-adv-x="943" 
d="M516 751h2v-394q17 64 65 103t112 39q96 0 158 -69.5t62 -180.5q0 -114 -65.5 -186.5t-165.5 -72.5q-67 0 -116.5 34t-67.5 91q-11 -44 -41 -78.5t-69 -45.5q6 32 9 75t3 146v379q0 67 -29.5 106.5t-83.5 39.5q-43 0 -66.5 -37t-23.5 -100v-111h123l-5 -26h-118v-354
q0 -44 16 -67t62 -40v-2h-248v2q33 16 43.5 35.5t10.5 71.5v354h-66v8l66 22v49q0 100 54.5 155.5t149.5 55.5q40 0 75.5 -17.5t55.5 -44.5q27 8 51.5 23t46.5 37zM789 246q0 94 -36.5 147.5t-100.5 53.5q-54 0 -94 -46.5t-40 -116.5v-96q0 -68 39.5 -113.5t93.5 -45.5
q65 0 101.5 57.5t36.5 159.5z" />
    <glyph glyph-name="f_f_b" unicode="ffb" horiz-adv-x="1262" 
d="M1234 249q0 -114 -65.5 -186.5t-165.5 -72.5q-67 0 -116.5 34t-67.5 91q-11 -44 -41 -78.5t-69 -45.5q7 32 10 75t3 146v379q0 66 -30 106t-84 40q-43 0 -66.5 -37t-23.5 -100v-111h123l-5 -26h-118v-354q0 -44 16 -67t62 -40v-2h-247v2q33 16 43 35.5t10 71.5v354h-203
v-354q0 -44 16 -67t62 -40v-2h-248v2q33 16 43.5 35.5t10.5 71.5v354h-66v8l66 22v29q0 101 62 160t166 59q42 0 78 -15t57 -40q27 33 68 50t92 17q39 0 75 -17t57 -45q27 8 51.5 23t46.5 37h2v-394q16 63 64 102.5t112 39.5q96 0 158 -69.5t62 -180.5zM199 563v-74h203v53
v16t1 9h-2q-16 0 -30.5 5.5t-25.5 15.5q21 6 33.5 21.5t12.5 36.5q0 37 -21 57.5t-59 20.5q-55 0 -83.5 -41t-28.5 -120zM1108 246q0 94 -36 147.5t-100 53.5q-55 0 -94.5 -46.5t-39.5 -116.5v-96q0 -68 39.5 -113.5t93.5 -45.5q65 0 101 57.5t36 159.5z" />
    <glyph glyph-name="f_h" unicode="fh" horiz-adv-x="926" 
d="M516 751h2v-398q20 70 66 108t110 38q73 0 114.5 -46.5t41.5 -127.5v-216q0 -51 10.5 -71t43.5 -36v-2h-223v2q33 16 43 35.5t10 71.5v212q0 56 -24.5 86.5t-69.5 30.5q-55 0 -88.5 -47t-33.5 -125v-157q0 -51 10.5 -71t43.5 -36v-2h-223v2q33 16 43 35.5t10 71.5v482
q0 67 -29.5 106.5t-83.5 39.5q-43 0 -66.5 -37t-23.5 -100v-111h123l-5 -26h-118v-354q0 -44 16 -67t62 -40v-2h-248v2q33 16 43.5 35.5t10.5 71.5v354h-66v8l66 22v49q0 100 54.5 155.5t149.5 55.5q40 0 75.5 -17.5t55.5 -44.5q27 8 51.5 23t46.5 37z" />
    <glyph glyph-name="f_f_h" unicode="ffh" horiz-adv-x="1245" 
d="M199 563v-74h203v53v16t1 9h-2q-16 0 -30.5 5.5t-25.5 15.5q21 6 33.5 21.5t12.5 36.5q0 37 -21 57.5t-59 20.5q-55 0 -83.5 -41t-28.5 -120zM277 2v-2h-248v2q33 16 43.5 35.5t10.5 71.5v354h-66v8l66 22v29q0 101 62 160t166 59q42 0 78 -15t57 -40q27 33 68 50t92 17
q39 0 75 -17t57 -45q27 8 51.5 23t46.5 37h2v-399q20 70 65.5 108.5t109.5 38.5q73 0 115 -46.5t42 -127.5v-216q0 -52 10 -71.5t43 -35.5v-2h-223v2q33 16 43.5 36t10.5 71v212q0 56 -24.5 86.5t-70.5 30.5q-54 0 -87.5 -47.5t-33.5 -124.5v-157q0 -52 10 -71.5t43 -35.5
v-2h-223v2q33 16 43.5 36t10.5 71v482q0 66 -30 106t-84 40q-43 0 -66.5 -37t-23.5 -100v-111h123l-5 -26h-118v-354q0 -44 16 -67t62 -40v-2h-247v2q33 16 43 35.5t10 71.5v354h-203v-354q0 -44 16 -67t62 -40z" />
    <glyph glyph-name="f_j" unicode="fj" horiz-adv-x="582" 
d="M323 -233q-66 0 -106 25.5t-40 68.5q0 28 20 45.5t53 17.5q16 0 30.5 -4.5t23.5 -12.5q-20 -6 -30 -20.5t-10 -36.5q0 -33 16 -50t47 -17q40 0 57.5 32.5t17.5 106.5v493q0 25 -11.5 36.5t-36.5 11.5h-155v-354q0 -44 16 -67t62 -40v-2h-248v2q33 16 43.5 35.5t10.5 71.5
v354h-66v8l66 22v41q0 100 63 159.5t163 59.5q80 0 127 -28.5t47 -77.5q0 -31 -22 -50.5t-58 -19.5q-20 0 -35.5 5.5t-26.5 15.5q22 6 34 23.5t12 42.5q0 35 -20 54t-58 19q-53 0 -81.5 -43t-28.5 -123v-82h319v-534q0 -90 -51.5 -139t-143.5 -49z" />
    <glyph glyph-name="f_f_j" unicode="ffj" horiz-adv-x="912" 
d="M199 563v-74h203v45q0 7 0.5 14.5t1.5 18.5h-3q-16 0 -30.5 5.5t-25.5 15.5q21 6 33.5 21.5t12.5 36.5q0 37 -21 57.5t-59 20.5q-55 0 -83.5 -41t-28.5 -120zM642 -233q-66 0 -106 25.5t-40 68.5q0 28 20.5 45.5t52.5 17.5q17 0 31 -4.5t23 -12.5q-20 -6 -30 -20.5
t-10 -36.5q0 -32 16 -49.5t47 -17.5q40 0 58 32.5t18 106.5v493q0 25 -11.5 36.5t-36.5 11.5h-156v-354q0 -44 16 -67t62 -40v-2h-247v2q33 16 43 35.5t10 71.5v354h-203v-354q0 -44 16 -67t62 -40v-2h-248v2q33 16 43.5 35.5t10.5 71.5v354h-66v8l66 22v29q0 101 62 160
t166 59q45 0 83 -17t57 -45q31 36 77 55t101 19q79 0 126 -28.5t47 -77.5q0 -31 -22 -50.5t-58 -19.5q-19 0 -34.5 5t-26.5 16q22 6 33.5 23t11.5 43q0 35 -20 54t-57 19q-54 0 -82.5 -43t-28.5 -123v-82h320v-534q0 -90 -52 -139t-144 -49z" />
    <glyph glyph-name="f_k" unicode="fk" horiz-adv-x="890" 
d="M516 751h2v-471h27q27 0 43 7.5t34 25.5l85 88q12 13 17.5 24t4.5 22q0 13 -8.5 23.5t-24.5 16.5v2h187v-2q-41 -11 -73 -30t-67 -54l-88 -93l142 -208q27 -40 54.5 -63.5t61.5 -36.5v-2h-196q-3 16 -11 33.5t-22 38.5l-112 164q-9 14 -16.5 18.5t-20.5 4.5h-17v-150
q0 -51 10.5 -71t43.5 -36v-2h-223v2q33 16 43 35.5t10 71.5v482q0 67 -29.5 106.5t-83.5 39.5q-43 0 -66.5 -37t-23.5 -100v-111h123l-5 -26h-118v-354q0 -44 16 -67t62 -40v-2h-248v2q33 16 43.5 35.5t10.5 71.5v354h-66v8l66 22v49q0 100 54.5 155.5t149.5 55.5
q40 0 75.5 -17.5t55.5 -44.5q27 8 51.5 23t46.5 37z" />
    <glyph glyph-name="f_f_k" unicode="ffk" horiz-adv-x="1209" 
d="M199 563v-74h203v53v16t1 9h-2q-16 0 -30.5 5.5t-25.5 15.5q21 6 33.5 21.5t12.5 36.5q0 37 -21 57.5t-59 20.5q-55 0 -83.5 -41t-28.5 -120zM277 2v-2h-248v2q33 16 43.5 35.5t10.5 71.5v354h-66v8l66 22v29q0 101 62 160t166 59q42 0 78 -15t57 -40q27 33 68 50t92 17
q39 0 75 -17t57 -45q27 8 51.5 23t46.5 37h2v-471h26q27 0 43 7.5t34 25.5l85 88q12 12 17.5 23t5.5 23q0 13 -9 23.5t-25 16.5v2h188v-2q-42 -11 -74 -30t-66 -54l-89 -93l142 -208q28 -40 55.5 -63.5t60.5 -36.5v-2h-196q-2 15 -10 32.5t-23 39.5l-111 164
q-10 14 -17.5 18.5t-19.5 4.5h-17v-150q0 -52 10 -71.5t43 -35.5v-2h-223v2q33 16 43.5 36t10.5 71v482q0 66 -30 106t-84 40q-43 0 -66.5 -37t-23.5 -100v-111h123l-5 -26h-118v-354q0 -44 16 -67t62 -40v-2h-247v2q33 16 43 35.5t10 71.5v354h-203v-354q0 -44 16 -67
t62 -40z" />
    <glyph glyph-name=".notdef" 
 />
    <glyph glyph-name=".null" horiz-adv-x="0" 
 />
    <glyph glyph-name="nonmarkingreturn" unicode="&#xd;" 
 />
    <glyph glyph-name="NULL" horiz-adv-x="0" 
 />
    <glyph glyph-name="NULL" horiz-adv-x="0" 
 />
    <glyph glyph-name="space" unicode=" " horiz-adv-x="200" 
 />
    <glyph glyph-name="exclam" unicode="!" horiz-adv-x="274" 
d="M135 216l-77 484h158l-76 -484h-5zM137 148q33 0 55.5 -22.5t22.5 -56.5q0 -33 -22.5 -55.5t-55.5 -22.5q-32 0 -55 23t-23 55q0 33 22.5 56t55.5 23z" />
    <glyph glyph-name="quotedbl" unicode="&#x22;" horiz-adv-x="411" 
d="M320 543q-9 -32 -15 -63.5t-11 -61.5h-3q-5 30 -11.5 61.5t-14.5 63.5q-10 39 -20 69t-21 51q9 21 28 34t40 13q22 0 41 -13.5t28 -33.5q-11 -21 -21.5 -51t-19.5 -69zM146 543q-9 -32 -15 -63.5t-11 -61.5h-3q-5 30 -11.5 61.5t-14.5 63.5q-10 39 -20 69t-21 51
q9 21 28 34t40 13q22 0 41 -13.5t28 -33.5q-11 -21 -21.5 -51t-19.5 -69z" />
    <glyph glyph-name="numbersign" unicode="#" horiz-adv-x="635" 
d="M226 243h152l30 214h-152zM366 0h-23l32 221h-152l-32 -221h-21l32 221h-160l3 22h160l30 214h-174l3 22h174l32 221h21l-32 -221h152l32 221h23l-32 -221h159l-3 -22h-159l-30 -214h174l-4 -22h-173z" />
    <glyph glyph-name="dollar" unicode="$" horiz-adv-x="580" 
d="M292 692q-9 0 -17 -0.5t-16 -2.5v-256l63 -19v276q-12 1 -18.5 1.5t-11.5 0.5zM142 561q0 -48 23 -77t78 -46v248q-47 -12 -74 -45.5t-27 -79.5zM282 8q10 0 20 0.5t20 2.5v283l-63 17v-302q4 -1 8.5 -1h14.5zM459 158q0 51 -29 82.5t-91 48.5h-1v-275q58 13 89.5 50.5
t31.5 93.5zM282 -10h-11.5h-11.5v-104h-16v105q-96 7 -154 46.5t-58 95.5q0 36 23 58.5t59 22.5q20 0 35.5 -6.5t27.5 -19.5q-24 -1 -37 -17.5t-13 -45.5q0 -43 32 -74t85 -40v305h-1q-99 29 -144 76.5t-45 119.5q0 77 51.5 129.5t138.5 65.5v103h16v-102q14 1 20.5 1.5
t12.5 0.5h18.5t11.5 -1v101h16v-102q83 -8 133 -42.5t50 -83.5q0 -33 -20.5 -52t-54.5 -19q-18 0 -35 6t-25 15q21 2 35 19t14 43q0 35 -26 60t-71 34v-279l20 -6q101 -30 143.5 -77.5t42.5 -121.5q0 -81 -56.5 -138t-149.5 -72v-108h-16v106q-16 -1 -24.5 -1.5t-15.5 -0.5z
" />
    <glyph glyph-name="percent" unicode="%" horiz-adv-x="649" 
d="M528 710l-379 -710h-40l377 672q-25 -22 -55.5 -33.5t-64.5 -11.5q-19 0 -37 3t-37 10q11 -17 17.5 -38t6.5 -42q0 -62 -43.5 -106t-104.5 -44t-104.5 44t-43.5 106t43.5 106t104.5 44q21 0 39.5 -5.5t48.5 -23.5q35 -21 58.5 -27.5t51.5 -6.5q41 0 71.5 13t78.5 59z
M105 560q0 -67 16 -100t47 -33t47 33t16 100t-16 100t-47 33t-47 -33t-16 -100zM629 145q0 -62 -44 -106t-105 -44t-104.5 44t-43.5 106q0 61 43.5 105.5t104.5 44.5t105 -44.5t44 -105.5zM417 145q0 -66 16 -99.5t47 -33.5t47 33t16 100q0 66 -15.5 99t-47.5 33
q-31 0 -47 -33.5t-16 -98.5z" />
    <glyph glyph-name="ampersand" unicode="&#x26;" horiz-adv-x="726" 
d="M205 584q0 -32 14.5 -61t60.5 -77l43 -46q48 27 72 67.5t24 92.5q0 58 -29.5 94.5t-79.5 36.5q-49 0 -77 -29t-28 -78zM146 194q0 -73 48 -120t122 -47q42 0 82 13.5t74 39.5l-251 263q-38 -25 -56.5 -61.5t-18.5 -87.5zM733 0h-185l-59 61q-43 -35 -96.5 -53t-116.5 -18
q-106 0 -172 49t-66 132q0 62 44.5 108t129.5 73l-37 39q-30 31 -46.5 68.5t-16.5 74.5q0 78 56 127t142 49q91 0 145.5 -41.5t54.5 -109.5q0 -59 -45.5 -102.5t-130.5 -67.5l211 -225q16 26 25.5 56t13.5 63q3 38 -12.5 57.5t-61.5 36.5v3h180v-3q-33 -12 -48.5 -29
t-25.5 -65q-9 -40 -22 -74.5t-32 -63.5l60 -63q27 -29 51 -46.5t60 -33.5v-2z" />
    <glyph glyph-name="quotesingle" unicode="'" horiz-adv-x="237" 
d="M146 543q-9 -32 -15 -63.5t-11 -61.5h-3q-5 30 -11.5 61.5t-14.5 63.5q-10 39 -20 69t-21 51q9 21 28 34t40 13q22 0 41 -13.5t28 -33.5q-11 -21 -21.5 -51t-19.5 -69z" />
    <glyph glyph-name="parenleft" unicode="(" horiz-adv-x="345" 
d="M45 313q0 137 70 249.5t199 186.5h16q-79 -68 -125.5 -185.5t-46.5 -250.5t46.5 -250.5t125.5 -185.5h-16q-129 74 -199 186.5t-70 249.5z" />
    <glyph glyph-name="parenright" unicode=")" horiz-adv-x="345" 
d="M300 313q0 -137 -70 -249.5t-199 -186.5h-16q79 68 125.5 185.5t46.5 250.5t-46.5 250.5t-125.5 185.5h16q129 -74 199 -186.5t70 -249.5z" />
    <glyph glyph-name="asterisk" unicode="*" horiz-adv-x="400" 
d="M192 609q-4 41 -18.5 84.5t-26.5 55.5h106q-12 -12 -26.5 -55.5t-18.5 -84.5q39 17 75.5 43.5t43.5 42.5l33 -101q-15 9 -60 8.5t-87 -9.5q28 -30 64.5 -57t54.5 -30l-86 -62q4 18 -10.5 60.5t-35.5 78.5q-21 -36 -35.5 -78.5t-10.5 -60.5l-86 62q18 3 54.5 30t64.5 57
q-42 9 -87 9.5t-60 -8.5l33 101q7 -16 43.5 -42.5t75.5 -43.5z" />
    <glyph glyph-name="plus" unicode="+" horiz-adv-x="479" 
d="M435 336v-28h-182v-181h-28v181h-181v28h181v181h28v-181h182z" />
    <glyph glyph-name="comma" unicode="," horiz-adv-x="229" 
d="M149 25q-7 -10 -20 -15.5t-30 -5.5q-27 0 -45 18.5t-18 46.5q0 32 21 52t54 20q40 0 64 -29.5t24 -78.5q0 -72 -52.5 -119t-132.5 -49v16q67 7 104 45.5t31 98.5z" />
    <glyph glyph-name="hyphen" unicode="-" horiz-adv-x="319" 
d="M284 259h-249v41h249v-41z" />
    <glyph glyph-name="period" unicode="." horiz-adv-x="229" 
d="M114 148q33 0 55.5 -23t22.5 -56q0 -32 -23 -55t-55 -23t-54.5 23t-22.5 55q0 33 22 56t55 23z" />
    <glyph glyph-name="slash" unicode="/" horiz-adv-x="346" 
d="M31 -123h-31l295 872h31z" />
    <glyph glyph-name="zero" unicode="0" horiz-adv-x="650" 
d="M325 710q125 0 208 -102.5t83 -257.5t-83 -257.5t-208 -102.5t-208 102.5t-83 257.5t83 257.5t208 102.5zM325 11q77 0 117.5 86.5t40.5 252.5t-40.5 252.5t-117.5 86.5t-117.5 -86.5t-40.5 -252.5t40.5 -252.5t117.5 -86.5z" />
    <glyph glyph-name="one" unicode="1" horiz-adv-x="366" 
d="M351 4v-4h-326v4q7 2 32 11t36 14q20 9 27.5 21t7.5 35v527q0 23 -8 35t-30 22q-11 5 -36 14t-35 13v4h230v-615q0 -23 7.5 -34.5t27.5 -21.5q10 -4 34 -13t33 -12z" />
    <glyph glyph-name="two" unicode="2" horiz-adv-x="542" 
d="M370 528q0 80 -32.5 122.5t-94.5 42.5q-57 0 -90.5 -37t-33.5 -97q0 -44 22.5 -70.5t60.5 -26.5q14 0 22.5 2t17.5 8h2q-12 -32 -37 -49t-60 -17q-52 0 -85.5 35.5t-33.5 91.5q0 77 60.5 127t154.5 50q114 0 181.5 -51.5t67.5 -140.5q0 -85 -69.5 -167.5t-301.5 -252.5
h173q103 0 141 19t72 75h2l-29 -192h-478v2q79 73 136 130t97 104q73 84 104 150.5t31 141.5z" />
    <glyph glyph-name="three" unicode="3" horiz-adv-x="531" 
d="M112 137q0 -58 34.5 -93t90.5 -35q65 0 105 51.5t40 132.5q0 89 -45.5 134t-136.5 45v9q78 3 114.5 43t36.5 123q0 70 -27.5 107t-80.5 37q-47 0 -75.5 -28t-28.5 -72q0 -32 14.5 -50.5t39.5 -18.5q8 0 13.5 1t9.5 3h2q-10 -24 -31 -36.5t-53 -12.5q-40 0 -65 25t-25 66
q0 61 56.5 101.5t142.5 40.5q105 0 168 -45t63 -120q0 -67 -48.5 -109t-136.5 -54q96 -5 156.5 -56.5t60.5 -131.5q0 -94 -74 -149t-195 -55q-99 0 -164 44.5t-65 115.5q0 46 28.5 75.5t72.5 29.5q31 0 51.5 -13t29.5 -39h-2q-5 3 -11 4t-14 1q-23 0 -37 -19.5t-14 -51.5z
" />
    <glyph glyph-name="four" unicode="4" horiz-adv-x="601" 
d="M54 220h268v388zM322 126v66h-318v2l358 514h80v-488h41q40 0 58 13t37 59h2v-173h-2q-19 47 -37 60t-58 13h-41v-66q0 -57 12.5 -83t43.5 -41v-2h-233v2q32 15 44.5 41.5t12.5 82.5z" />
    <glyph glyph-name="five" unicode="5" horiz-adv-x="539" 
d="M112 136q0 -57 34.5 -92t89.5 -35q71 0 110.5 57t39.5 157q0 85 -41 134t-113 49q-38 0 -77 -20.5t-67 -53.5h-2l39 374q49 -8 102.5 -12.5t97.5 -4.5q75 0 104 10.5t51 36.5h2q0 -81 -39.5 -119.5t-119.5 -38.5q-42 0 -94 7.5t-90 18.5l-22 -224q29 30 72.5 47.5
t91.5 17.5q105 0 166.5 -57t61.5 -155q0 -106 -78.5 -174.5t-194.5 -68.5q-98 0 -162.5 44t-64.5 115q0 48 27.5 76.5t72.5 28.5q31 0 51.5 -13t29.5 -39h-2q-5 3 -10.5 4t-14.5 1q-23 0 -37 -20t-14 -51z" />
    <glyph glyph-name="six" unicode="6" horiz-adv-x="579" 
d="M34 336q0 163 85 268.5t221 105.5q88 0 144 -38.5t56 -100.5q0 -39 -25 -64.5t-63 -25.5q-33 0 -56.5 16t-30.5 44h2q5 -4 12 -5.5t17 -1.5q22 0 36 17.5t14 45.5q0 42 -29 68t-77 26q-87 0 -136 -88t-49 -236q0 -14 1 -29t2 -25q21 57 68.5 89.5t112.5 32.5
q94 0 152.5 -57t58.5 -157q0 -102 -68.5 -166.5t-176.5 -64.5q-122 0 -196.5 98t-74.5 248zM307 10q59 0 91 53.5t32 149.5q0 93 -32.5 142.5t-94.5 49.5q-59 0 -94 -52.5t-35 -139.5q0 -94 35 -148.5t98 -54.5z" />
    <glyph glyph-name="seven" unicode="7" horiz-adv-x="509" 
d="M111 700h406v-2l-108 -164q-71 -108 -100.5 -231t-23.5 -294l-133 -13q13 135 66 258t175 288l37 51h-266q-62 0 -92 -19.5t-55 -74.5h-2l21 211q12 -5 29 -7.5t46 -2.5z" />
    <glyph glyph-name="eight" unicode="8" horiz-adv-x="561" 
d="M499 552q0 -57 -43.5 -98t-113.5 -55q99 -35 146.5 -86.5t47.5 -123.5q0 -90 -69.5 -144.5t-183.5 -54.5q-117 0 -188 48.5t-71 131.5q0 60 47.5 104.5t126.5 59.5q-64 27 -102 76.5t-38 107.5q0 88 61 140t160 52q96 0 158 -44t62 -114zM279 692q-57 0 -90.5 -35.5
t-32.5 -93.5q0 -44 24.5 -75t79.5 -54l71 -30q38 24 58.5 62t20.5 87q0 63 -35.5 101t-95.5 38zM304 290l-97 39q-43 -22 -66 -62.5t-23 -92.5q0 -75 44.5 -120t120.5 -45q69 0 110 37t41 98q0 49 -30 83t-100 63z" />
    <glyph glyph-name="nine" unicode="9" horiz-adv-x="579" 
d="M545 364q0 -163 -85 -268.5t-221 -105.5q-88 0 -144 38.5t-56 100.5q0 39 25 64.5t63 25.5q33 0 56.5 -16t30.5 -44h-2q-5 4 -12 5.5t-17 1.5q-22 0 -36 -17.5t-14 -45.5q0 -42 29 -68t77 -26q87 0 136 88t49 236q0 14 -1 29t-2 25q-21 -57 -68.5 -89.5t-112.5 -32.5
q-94 0 -152.5 57t-58.5 157q0 102 68.5 166.5t176.5 64.5q122 0 196.5 -98t74.5 -248zM272 690q-59 0 -91 -53.5t-32 -149.5q0 -93 32.5 -142.5t94.5 -49.5q59 0 94 52.5t35 139.5q0 94 -35 148.5t-98 54.5z" />
    <glyph glyph-name="colon" unicode=":" horiz-adv-x="229" 
d="M114 148q33 0 55.5 -23t22.5 -56q0 -32 -23 -55t-55 -23t-54.5 23t-22.5 55q0 33 22 56t55 23zM114 455q33 0 55.5 -23t22.5 -56q0 -32 -23 -55t-55 -23t-54.5 23t-22.5 55q0 33 22 56t55 23z" />
    <glyph glyph-name="semicolon" unicode=";" horiz-adv-x="229" 
d="M149 25q-7 -10 -20 -15.5t-30 -5.5q-27 0 -45 18.5t-18 46.5q0 32 21 52t54 20q40 0 64 -29.5t24 -78.5q0 -72 -52.5 -119t-132.5 -49v16q67 7 104 45.5t31 98.5zM114 455q33 0 55.5 -23t22.5 -56q0 -32 -23 -55t-55 -23t-54.5 23t-22.5 55q0 33 22 56t55 23z" />
    <glyph glyph-name="less" unicode="&#x3c;" horiz-adv-x="351" 
d="M312 149l-284 165v12l284 165v-32l-243 -139l243 -139v-32z" />
    <glyph glyph-name="equal" unicode="=" horiz-adv-x="484" 
d="M438 374h-392v27h392v-27zM438 246h-392v27h392v-27z" />
    <glyph glyph-name="greater" unicode="&#x3e;" horiz-adv-x="351" 
d="M39 491l284 -165v-12l-284 -165v32l243 139l-243 139v32z" />
    <glyph glyph-name="question" unicode="?" horiz-adv-x="511" 
d="M382 554q0 59 -37.5 97.5t-99.5 38.5q-56 0 -91.5 -33t-35.5 -82q0 -33 18.5 -54.5t47.5 -21.5q9 0 19.5 3t17.5 8l1 -1q-12 -32 -35.5 -49t-57.5 -17q-44 0 -73 30t-29 78q0 69 61.5 114t156.5 45q106 0 172.5 -54.5t66.5 -138.5q0 -86 -65.5 -151t-172.5 -90v-64h-20
v171q78 19 117 61.5t39 109.5zM159 69q0 33 22.5 56t55.5 23t55.5 -22.5t22.5 -56.5q0 -33 -22.5 -55.5t-55.5 -22.5q-32 0 -55 23t-23 55z" />
    <glyph glyph-name="at" unicode="@" horiz-adv-x="914" 
d="M589 379q18 26 49.5 49t59.5 29l-72 -291q-10 -39 4.5 -61t49.5 -22q60 0 105 69t45 176q0 141 -97.5 229.5t-246.5 88.5q-79 0 -150 -33.5t-124 -95.5q-50 -58 -77 -132.5t-27 -155.5q0 -163 103.5 -265t265.5 -102q98 0 174 24.5t142 77.5l3 -5q-56 -60 -138 -91.5
t-181 -31.5q-197 0 -317 107t-120 287q0 91 33.5 171.5t96.5 141.5q62 60 143.5 92t172.5 32q169 0 278.5 -93.5t109.5 -245.5q0 -129 -62 -207t-154 -78q-57 0 -92 27.5t-37 75.5q-24 -50 -62 -76.5t-86 -26.5q-60 0 -96.5 41t-36.5 110q0 110 65.5 188t161.5 78
q44 0 74.5 -22t39.5 -59zM418 82q43 0 76 38.5t48 104.5l21 90q13 54 -3.5 85t-55.5 31q-60 0 -105.5 -76t-45.5 -168q0 -47 17.5 -76t47.5 -29z" />
    <glyph glyph-name="A" unicode="A" horiz-adv-x="713" 
d="M439 252l-134 294l-127 -294h261zM112 71q0 -22 13.5 -40.5t36.5 -28.5v-2h-163v2q26 14 47.5 43t46.5 86l258 579h4l277 -598q28 -59 43 -78t38 -32v-2h-241v2q23 10 34 23.5t11 30.5q0 12 -4 26t-12 33l-50 110h-285l-38 -89q-8 -18 -12 -34t-4 -31z" />
    <glyph glyph-name="B" unicode="B" horiz-adv-x="667" 
d="M639 185q0 -92 -68 -138.5t-203 -46.5h-329v2q32 15 44.5 41.5t12.5 82.5v448q0 56 -12.5 82.5t-44.5 41.5v2h310q124 0 187.5 -45t63.5 -133q0 -67 -51.5 -110t-135.5 -50q97 -5 161.5 -53t64.5 -124zM216 674v-305h104q76 0 118 40t42 112q0 73 -42 113t-118 40h-104z
M216 343v-317h120q88 0 134 40.5t46 118.5q0 77 -46 117.5t-134 40.5h-120z" />
    <glyph glyph-name="C" unicode="C" horiz-adv-x="681" 
d="M563 676q17 0 31 6.5t35 27.5l7 -225h-2q-35 95 -96 148.5t-136 53.5q-107 0 -171 -90t-64 -236q0 -138 70.5 -224t178.5 -86q86 0 142.5 37.5t90.5 115.5l5 -2q-21 -99 -94.5 -155.5t-183.5 -56.5q-150 0 -246.5 100t-96.5 257q0 154 105 258.5t258 104.5q27 0 54 -4.5
t68 -18.5q21 -7 30 -9t15 -2z" />
    <glyph glyph-name="D" unicode="D" horiz-adv-x="748" 
d="M319 0h-280v2q32 15 44.5 41.5t12.5 82.5v448q0 56 -12.5 82.5t-44.5 41.5v2h261q194 0 304.5 -91t110.5 -253q0 -166 -107.5 -261t-288.5 -95zM216 674v-648h87q134 0 208 85.5t74 244.5q0 149 -79 233.5t-215 84.5h-75z" />
    <glyph glyph-name="E" unicode="E" horiz-adv-x="648" 
d="M39 698v2h466q23 0 35.5 2t19.5 6l34 -180h-2q-46 82 -96.5 114t-128.5 32h-151v-304h126q62 0 89.5 22t51.5 90h2v-238h-2q-22 61 -46.5 80.5t-94.5 19.5h-126v-318h170q79 0 133 37t101 127h2l-32 -190h-551v2q32 15 44.5 41.5t12.5 82.5v448q0 56 -12.5 82.5
t-44.5 41.5z" />
    <glyph glyph-name="F" unicode="F" horiz-adv-x="618" 
d="M340 334h-124v-214q0 -53 17 -76.5t64 -41.5v-2h-258v2q32 15 44.5 41.5t12.5 82.5v448q0 56 -12.5 82.5t-44.5 41.5v2h461q22 0 34.5 2t19.5 6l34 -180h-2q-45 81 -95.5 113.5t-129.5 32.5h-145v-313h124q62 0 89.5 22t51.5 90h2v-239h-2q-22 61 -46.5 80.5t-94.5 19.5z
" />
    <glyph glyph-name="G" unicode="G" horiz-adv-x="751" 
d="M404 687q-110 0 -173 -93t-63 -253q0 -142 62 -229.5t163 -87.5q76 0 120 41.5t44 113.5v24q0 56 -12.5 82.5t-44.5 41.5v2h232v-2q-32 -15 -44.5 -41.5t-12.5 -82.5v-213h-2l-82 119q-26 -53 -82.5 -86t-125.5 -33q-153 0 -251.5 99t-98.5 253q0 159 105 263.5
t261 104.5q27 0 54 -4.5t69 -18.5q21 -7 30 -9t16 -2q16 0 30 6.5t35 27.5l8 -225h-2q-37 95 -98.5 148.5t-136.5 53.5z" />
    <glyph glyph-name="H" unicode="H" horiz-adv-x="803" 
d="M96 126v448q0 56 -12.5 82.5t-44.5 41.5v2h234v-2q-32 -15 -44.5 -41.5t-12.5 -82.5v-202h371v202q0 56 -12.5 82.5t-44.5 41.5v2h234v-2q-32 -15 -44.5 -41.5t-12.5 -82.5v-448q0 -56 12.5 -82.5t44.5 -41.5v-2h-234v2q32 15 44.5 41.5t12.5 82.5v218h-371v-218
q0 -56 12.5 -82.5t44.5 -41.5v-2h-234v2q32 15 44.5 41.5t12.5 82.5z" />
    <glyph glyph-name="I" unicode="I" horiz-adv-x="312" 
d="M216 574v-448q0 -56 12.5 -82.5t44.5 -41.5v-2h-234v2q32 15 44.5 41.5t12.5 82.5v448q0 56 -12.5 82.5t-44.5 41.5v2h234v-2q-32 -15 -44.5 -41.5t-12.5 -82.5z" />
    <glyph glyph-name="J" unicode="J" horiz-adv-x="554" 
d="M235 9q58 0 87.5 41.5t29.5 123.5v400q0 57 -12.5 83t-43.5 41v2h233v-2q-32 -15 -44.5 -41.5t-12.5 -82.5v-376q0 -97 -64.5 -152.5t-172.5 -55.5q-96 0 -157.5 43t-61.5 112q0 44 28.5 71t74.5 27q22 0 41 -7t31 -19q-32 -3 -48.5 -25t-16.5 -60q0 -55 30 -89t79 -34z
" />
    <glyph glyph-name="K" unicode="K" horiz-adv-x="717" 
d="M273 2v-2h-234v2q32 15 44.5 41.5t12.5 82.5v448q0 56 -12.5 82.5t-44.5 41.5v2h234v-2q-32 -15 -44.5 -41.5t-12.5 -82.5v-243l282 269q14 13 21 26t7 25q0 14 -9.5 26.5t-27.5 20.5v2h199v-2q-43 -17 -77.5 -39t-79.5 -64l-172 -162l243 -321q31 -41 62 -69t60 -41v-2
h-255v2q15 8 20.5 16.5t5.5 22.5q0 11 -5 22.5t-23 36.5l-193 254l-58 -56v-172q0 -56 12.5 -82.5t44.5 -41.5z" />
    <glyph glyph-name="L" unicode="L" horiz-adv-x="618" 
d="M39 698v2h234v-2q-32 -15 -44.5 -41.5t-12.5 -82.5v-548h147q77 0 130 38.5t106 139.5h2l-33 -204h-529v2q32 15 44.5 41.5t12.5 82.5v448q0 56 -12.5 82.5t-44.5 41.5z" />
    <glyph glyph-name="M" unicode="M" horiz-adv-x="889" 
d="M125 632v-484q0 -57 19 -93t58 -53v-2h-181v2q38 18 56.5 53t18.5 90v429q0 56 -12.5 82.5t-44.5 41.5v2h188l230 -528l218 528h175v-2q-32 -15 -44.5 -41.5t-12.5 -82.5v-446q0 -50 15 -79.5t50 -46.5v-2h-247v2q34 17 49 46t15 80v504l-264 -643h-4z" />
    <glyph glyph-name="N" unicode="N" horiz-adv-x="731" 
d="M716 700v-2q-38 -18 -56.5 -53t-18.5 -90v-562h-15l-501 632v-477q0 -57 19 -93t58 -53v-2h-181v2q38 18 56.5 53t18.5 90v429q0 56 -12.5 82.5t-44.5 41.5v2h182l391 -498v350q0 57 -19 93t-59 53v2h182z" />
    <glyph glyph-name="O" unicode="O" horiz-adv-x="762" 
d="M381 710q147 0 247.5 -103t100.5 -257t-100.5 -257t-247.5 -103t-247.5 103t-100.5 257t100.5 257t247.5 103zM381 12q102 0 157.5 88.5t55.5 249.5t-55.5 249.5t-157.5 88.5t-157.5 -88.5t-55.5 -249.5t55.5 -249.5t157.5 -88.5z" />
    <glyph glyph-name="P" unicode="P" horiz-adv-x="640" 
d="M624 495q0 -96 -71 -150.5t-194 -54.5h-143v-170q0 -53 17 -76.5t64 -41.5v-2h-258v2q32 15 44.5 41.5t12.5 82.5v448q0 56 -12.5 82.5t-44.5 41.5v2h319q124 0 195 -54t71 -151zM216 674v-358h110q85 0 130 46.5t45 132.5t-45 132.5t-130 46.5h-110z" />
    <glyph glyph-name="Q" unicode="Q" horiz-adv-x="762" 
d="M649 -152q-49 0 -87 32.5t-81 122.5q-25 -7 -50 -10.5t-50 -3.5q-147 0 -247.5 103t-100.5 257t100.5 257t247.5 103t247.5 -103t100.5 -257q0 -100 -45.5 -182.5t-125.5 -130.5q40 -61 70.5 -83.5t65.5 -22.5q27 0 44.5 13.5t24.5 39.5h3q0 -63 -31 -99t-86 -36z
M381 687q-102 0 -157.5 -88.5t-55.5 -249.5q0 -100 22.5 -174t65.5 -116q9 57 42.5 89.5t85.5 32.5q39 0 72.5 -22t70.5 -76q33 44 50 111.5t17 154.5q0 161 -55.5 249.5t-157.5 88.5zM271 46q23 -17 50.5 -26t59.5 -9q24 0 46 5t41 15q-35 72 -59.5 96t-54.5 24
q-32 0 -55.5 -30t-27.5 -75z" />
    <glyph glyph-name="R" unicode="R" horiz-adv-x="710" 
d="M335 674h-119v-320h119q82 0 124 39.5t42 117.5q0 80 -42.5 121.5t-123.5 41.5zM39 698v2h330q127 0 194 -47t67 -138q0 -81 -62.5 -128t-167.5 -51q72 -5 116.5 -36.5t64.5 -92.5l27 -82q17 -51 40 -77t73 -46v-2h-182q-14 12 -27 37.5t-28 70.5l-32 100
q-22 67 -53.5 93.5t-80.5 26.5h-102v-202q0 -56 12.5 -82.5t44.5 -41.5v-2h-234v2q32 15 44.5 41.5t12.5 82.5v448q0 56 -12.5 82.5t-44.5 41.5z" />
    <glyph glyph-name="S" unicode="S" horiz-adv-x="577" 
d="M274 688q-60 0 -97.5 -35.5t-37.5 -95.5q0 -51 33.5 -83t125.5 -58q84 -25 114 -38t52 -28q39 -28 57.5 -66t18.5 -90q0 -94 -69.5 -149t-179.5 -55q-24 0 -49.5 4.5t-67.5 17.5q-27 8 -38.5 10.5t-20.5 2.5q-15 0 -29 -7t-36 -28l-13 224h2q44 -95 110.5 -148.5
t141.5 -53.5q69 0 110.5 38t41.5 103q0 35 -16 61t-50 45q-17 10 -40 19t-85 27q-59 18 -90.5 32.5t-53.5 32.5q-32 26 -47.5 60.5t-15.5 80.5q0 88 64.5 143.5t164.5 55.5q25 0 50 -4.5t66 -17.5q22 -7 32 -9t17 -2q13 0 24.5 5t34.5 28l4 -203h-2q-45 92 -101 136.5
t-125 44.5z" />
    <glyph glyph-name="T" unicode="T" horiz-adv-x="731" 
d="M104 700h523q22 0 34.5 2t19.5 6l34 -214h-2q-36 62 -52.5 85.5t-30.5 39.5q-28 30 -59.5 43t-74.5 13h-70v-555q0 -51 13 -76t47 -42v-2h-241v2q34 17 47 42t13 76v555h-70q-43 0 -74.5 -13t-59.5 -43q-14 -16 -30.5 -39t-53.5 -86h-2l34 214q7 -4 19.5 -6t35.5 -2z" />
    <glyph glyph-name="U" unicode="U" horiz-adv-x="732" 
d="M642 555v-286q0 -129 -73 -204t-196 -75q-139 0 -214.5 73t-75.5 208v303q0 56 -12.5 82.5t-44.5 41.5v2h233v-2q-31 -15 -43.5 -41t-12.5 -83v-296q0 -118 49 -179t144 -61q99 0 157.5 63.5t58.5 172.5v278q0 57 -19 93t-58 53v2h181v-2q-38 -18 -56 -53t-18 -90z" />
    <glyph glyph-name="V" unicode="V" horiz-adv-x="709" 
d="M405 154l180 410q9 23 12.5 37.5t3.5 27.5q0 22 -13.5 40.5t-37.5 28.5v2h163v-2q-25 -14 -46.5 -43t-46.5 -86l-259 -579h-4l-278 598q-28 59 -43 78t-38 32v2h240v-2q-23 -10 -34 -23.5t-11 -30.5q0 -12 4 -26t12 -33z" />
    <glyph glyph-name="W" unicode="W" horiz-adv-x="953" 
d="M655 -10h-3l-170 464l-175 -464h-4l-232 598q-19 49 -34.5 72t-38.5 38v2h228v-2q-21 -11 -31 -24.5t-10 -30.5q0 -12 3 -26.5t10 -31.5l153 -405l116 315l-34 93q-19 49 -34.5 72t-38.5 38v2h224v-2q-21 -11 -31 -24.5t-10 -30.5q0 -11 3.5 -25.5t10.5 -32.5l140 -408
l143 392q4 12 6.5 24t2.5 23q-1 27 -13.5 48t-36.5 34v2h160v-2q-25 -16 -45.5 -45.5t-37.5 -74.5z" />
    <glyph glyph-name="X" unicode="X" horiz-adv-x="717" 
d="M135 53q1 -15 8.5 -28t21.5 -23v-2h-163v2q31 15 59 40.5t63 72.5l180 236l-169 237q-25 35 -48.5 61t-53.5 49v2h230v-2q-12 -9 -17 -19t-5 -22q0 -13 6 -27t20 -33l125 -175l126 168q11 14 17 29t6 28q-1 16 -8.5 29t-22.5 22v2h162v-2q-30 -15 -58 -40t-65 -73
l-141 -185l205 -288q25 -35 48.5 -61t53.5 -49v-2h-230v2q12 10 17.5 19.5t5.5 21.5t-5.5 25t-20.5 35l-162 226l-159 -210q-13 -17 -19.5 -34t-6.5 -32z" />
    <glyph glyph-name="Y" unicode="Y" horiz-adv-x="668" 
d="M218 597l164 -269l158 258q7 14 11 26.5t4 22.5q0 20 -11 36.5t-31 26.5v2h157v-2q-27 -17 -48.5 -41.5t-46.5 -65.5l-184 -299v-172q0 -51 13 -76t47 -42v-2h-236v2q34 17 47 42t13 76v172l-188 306q-23 38 -42.5 59.5t-46.5 40.5v2h242v-2q-19 -12 -27.5 -25t-8.5 -30
q0 -12 3.5 -23t10.5 -23z" />
    <glyph glyph-name="Z" unicode="Z" horiz-adv-x="666" 
d="M630 212l-32 -212h-567v2l438 672h-196q-66 0 -112 -32.5t-105 -135.5h-2l34 202q7 -4 19.5 -6t35.5 -2h475v-2l-432 -672h212q76 0 121.5 34t108.5 152h2z" />
    <glyph glyph-name="bracketleft" unicode="[" horiz-adv-x="326" 
d="M310 -123h-232v872h232v-4l-130 -33v-797l130 -34v-4z" />
    <glyph glyph-name="backslash" unicode="\" horiz-adv-x="346" 
d="M20 749h31l295 -872h-31z" />
    <glyph glyph-name="bracketright" unicode="]" horiz-adv-x="326" 
d="M16 -119l130 34v797l-130 33v4h232v-872h-232v4z" />
    <glyph glyph-name="asciicircum" unicode="^" horiz-adv-x="450" 
d="M40 412l183 298h4l183 -298h-40l-145 238l-145 -238h-40z" />
    <glyph glyph-name="underscore" unicode="_" horiz-adv-x="319" 
d="M284 -106h-249v41h249v-41z" />
    <glyph glyph-name="grave" unicode="`" 
d="M155 749h124q5 -51 20 -97t43 -96h-4q-63 44 -108 91.5t-75 101.5z" />
    <glyph glyph-name="a" unicode="a" horiz-adv-x="532" 
d="M518 30q7 0 14 2t14 5v-2q-16 -20 -42.5 -31.5t-57.5 -11.5q-44 0 -70.5 23t-31.5 65v3.5t-1 10.5q0 13 -0.5 18.5t-0.5 8.5q-9 -54 -56.5 -91t-108.5 -37q-66 0 -105 33t-39 91q0 40 20.5 68.5t63.5 47.5q23 11 55 19.5t93 19.5l76 14v70q0 57 -27.5 90.5t-76.5 33.5
q-44 0 -68 -21t-24 -59q0 -26 12.5 -41t33.5 -15q4 0 7.5 1t7.5 2q-7 -23 -26 -36t-46 -13q-35 0 -57.5 21t-22.5 56q0 53 52.5 88.5t132.5 35.5q111 0 165.5 -42.5t54.5 -128.5v-46.5t-1 -69.5q-1 -39 -1 -58v-35q0 -46 15 -67.5t46 -21.5zM339 178l2 89l-59 -11
q-68 -14 -99 -43.5t-31 -80.5q0 -42 20 -64.5t56 -22.5q47 0 78.5 37.5t32.5 95.5z" />
    <glyph glyph-name="b" unicode="b" horiz-adv-x="614" 
d="M586 249q0 -114 -65.5 -186.5t-165.5 -72.5q-67 0 -116.5 34t-67.5 91q-12 -44 -41.5 -78.5t-68.5 -45.5q7 32 10 75t3 146v427q0 46 -13 69t-48 39v2h177v-392q16 63 64.5 102.5t112.5 39.5q96 0 157.5 -69.5t61.5 -180.5zM323 29q65 0 101.5 57.5t36.5 159.5
q0 94 -36.5 147.5t-100.5 53.5q-54 0 -94 -46.5t-40 -116.5v-96q0 -68 39.5 -113.5t93.5 -45.5z" />
    <glyph glyph-name="c" unicode="c" horiz-adv-x="495" 
d="M388 399q0 38 -25 59.5t-71 21.5q-63 0 -101.5 -61t-38.5 -160q0 -97 45 -155t118 -58q57 0 98.5 29.5t62.5 84.5l6 -3q-16 -79 -72.5 -123t-140.5 -44q-102 0 -171.5 68.5t-69.5 176.5q0 117 74.5 190.5t189.5 73.5q78 0 128.5 -35.5t50.5 -89.5q0 -36 -22.5 -58
t-57.5 -22q-29 0 -48.5 14.5t-20.5 35.5q4 -1 9 -2t9 -1q23 0 35.5 15.5t12.5 42.5z" />
    <glyph glyph-name="d" unicode="d" horiz-adv-x="620" 
d="M153 240q0 -93 36.5 -145.5t100.5 -52.5q55 0 94.5 46t39.5 114v86q0 71 -40 118.5t-95 47.5q-63 0 -99.5 -57t-36.5 -157zM251 499q63 0 110 -37t63 -98v275q0 47 -13 70t-48 38v2h177v-640q0 -47 12.5 -69t45.5 -38v-2h-174v132q-17 -64 -65 -103t-112 -39
q-96 0 -157.5 69.5t-61.5 180.5q0 113 63.5 186t159.5 73z" />
    <glyph glyph-name="e" unicode="e" horiz-adv-x="514" 
d="M28 244q0 110 70 182.5t172 72.5q104 0 160 -61.5t56 -172.5h-340q0 -99 47 -158.5t127 -59.5q56 0 98 29.5t62 83.5l7 -3q-16 -79 -73 -123t-142 -44q-107 0 -175.5 70t-68.5 184zM269 480q-50 0 -84 -54t-37 -140h220q0 103 -24 148.5t-75 45.5z" />
    <glyph glyph-name="f" unicode="f" horiz-adv-x="315" 
d="M83 109v354h-66v8l66 22v49q0 102 52 156.5t147 54.5q67 0 106 -24t39 -66q0 -29 -20 -47.5t-52 -18.5q-18 0 -31.5 5.5t-21.5 15.5q21 7 30.5 20.5t9.5 36.5q0 29 -16 45.5t-44 16.5q-42 0 -62.5 -34t-20.5 -105v-109h131l-5 -26h-126v-354q0 -43 17.5 -66.5t66.5 -40.5
v-2h-254v2q33 16 43.5 35.5t10.5 71.5z" />
    <glyph glyph-name="g" unicode="g" horiz-adv-x="558" 
d="M341 335q0 70 -22.5 108.5t-64.5 38.5t-64.5 -38.5t-22.5 -108.5q0 -69 22.5 -107.5t64.5 -38.5t64.5 38.5t22.5 107.5zM537 -48q0 -83 -82 -134t-209 -51q-106 0 -173.5 32.5t-67.5 88.5q0 40 36.5 66.5t101.5 32.5q-50 7 -79 34.5t-29 69.5q0 36 28 64.5t74 40.5
q-42 22 -65 58.5t-23 80.5q0 73 55.5 118.5t149.5 45.5q50 0 91.5 -15t68.5 -44q27 45 49 61.5t47 16.5q33 0 52 -16.5t19 -45.5q0 -33 -23.5 -51.5t-61.5 -18.5v2q8 6 12 14.5t4 21.5q0 17 -11 27t-29 10q-13 0 -26.5 -7.5t-24.5 -20.5q19 -20 28.5 -45t9.5 -53
q0 -73 -56 -118t-149 -45q-29 0 -54.5 4t-48.5 13q-23 -8 -36.5 -22t-13.5 -31q0 -22 17 -33t52 -11h177q90 0 140 -36.5t50 -103.5zM89 -107q0 -48 43.5 -77.5t112.5 -29.5q91 0 145.5 30.5t54.5 82.5q0 44 -27.5 65t-84.5 21h-127q-56 0 -86.5 -23.5t-30.5 -68.5z" />
    <glyph glyph-name="h" unicode="h" horiz-adv-x="603" 
d="M19 747v2h177v-396q20 69 66 107.5t109 38.5q73 0 115 -46.5t42 -127.5v-216q0 -52 10.5 -71.5t43.5 -35.5v-2h-224v2q33 16 43.5 35.5t10.5 71.5v212q0 56 -24.5 86.5t-69.5 30.5q-55 0 -88.5 -47t-33.5 -125v-157q0 -52 10.5 -71.5t43.5 -35.5v-2h-224v2
q33 16 43.5 35.5t10.5 71.5v530q0 46 -13 69t-48 39z" />
    <glyph glyph-name="i" unicode="i" horiz-adv-x="275" 
d="M136 583q-32 0 -53 20.5t-21 51.5t21 51.5t53 20.5t53.5 -20.5t21.5 -51.5t-21.5 -51.5t-53.5 -20.5zM24 489h175v-380q0 -52 10.5 -71.5t43.5 -35.5v-2h-224v2q33 16 43.5 35.5t10.5 71.5v270q0 48 -12.5 70t-46.5 38v2z" />
    <glyph glyph-name="j" unicode="j" horiz-adv-x="252" 
d="M125 583q-32 0 -53 20.5t-21 51.5t21 51.5t53 20.5t53.5 -20.5t21.5 -51.5t-21.5 -51.5t-53.5 -20.5zM-8 -233q-65 0 -105.5 25.5t-40.5 68.5q0 28 20.5 45.5t52.5 17.5q17 0 31.5 -4.5t23.5 -12.5q-20 -6 -30.5 -20.5t-10.5 -36.5q0 -32 16 -49.5t47 -17.5q40 0 58 32.5
t18 106.5v457q0 47 -12.5 69.5t-46.5 38.5v2h175v-534q0 -90 -51.5 -139t-144.5 -49z" />
    <glyph glyph-name="k" unicode="k" horiz-adv-x="567" 
d="M196 749v-469h27q27 0 43 7.5t34 25.5l85 88q12 12 17 23t5 23q0 13 -8.5 23.5t-24.5 16.5v2h187v-2q-42 -11 -74 -30t-66 -54l-89 -93l143 -208q27 -40 54.5 -63.5t61.5 -36.5v-2h-197q-2 15 -10 32.5t-23 39.5l-111 164q-8 13 -16.5 18t-20.5 5h-17v-150
q0 -52 10.5 -71.5t43.5 -35.5v-2h-224v2q33 16 43.5 35.5t10.5 71.5v530q0 46 -13 69t-48 39v2h177z" />
    <glyph glyph-name="l" unicode="l" horiz-adv-x="272" 
d="M19 749h177v-640q0 -52 10.5 -71.5t43.5 -35.5v-2h-224v2q33 16 43.5 35.5t10.5 71.5v530q0 46 -13 69t-48 39v2z" />
    <glyph glyph-name="m" unicode="m" horiz-adv-x="902" 
d="M365 499q65 0 103 -38t44 -108q17 70 60.5 108t106.5 38q71 0 109.5 -45t38.5 -129v-216q0 -52 10.5 -71.5t43.5 -35.5v-2h-224v2q33 16 43.5 35.5t10.5 71.5v212q0 61 -21 89t-64 28q-52 0 -82.5 -46t-30.5 -126v-157q0 -52 10.5 -71.5t43.5 -35.5v-2h-224v2
q33 16 43.5 35.5t10.5 71.5v212q0 61 -21 89t-64 28q-52 0 -82.5 -46t-30.5 -126v-157q0 -52 10.5 -71.5t43.5 -35.5v-2h-224v2q33 16 43.5 35.5t10.5 71.5v270q0 48 -12.5 70t-46.5 38v2h175v-136q17 70 60 108t106 38z" />
    <glyph glyph-name="n" unicode="n" horiz-adv-x="606" 
d="M24 487v2h175v-136q20 69 66 107.5t109 38.5q73 0 115 -46.5t42 -127.5v-216q0 -52 10.5 -71.5t43.5 -35.5v-2h-224v2q33 16 43.5 35.5t10.5 71.5v212q0 56 -24.5 86.5t-69.5 30.5q-55 0 -88.5 -47t-33.5 -125v-157q0 -52 10.5 -71.5t43.5 -35.5v-2h-224v2
q33 16 43.5 35.5t10.5 71.5v270q0 48 -12.5 70t-46.5 38z" />
    <glyph glyph-name="o" unicode="o" horiz-adv-x="564" 
d="M536 244q0 -111 -72 -182.5t-182 -71.5t-182 72t-72 182q0 111 72 183t182 72t182 -72t72 -183zM155 244q0 -109 34 -172t93 -63t93 63t34 172q0 110 -34 173t-93 63t-93 -63t-34 -173z" />
    <glyph glyph-name="p" unicode="p" horiz-adv-x="619" 
d="M466 249q0 93 -36.5 145.5t-100.5 52.5q-55 0 -94.5 -46t-39.5 -115v-85q0 -71 40 -118.5t95 -47.5q64 0 100 57t36 157zM368 -10q-63 0 -110 37t-63 98v-239q0 -52 10.5 -71.5t43.5 -35.5v-2h-224v2q33 16 43.5 35.5t10.5 71.5v493q0 47 -12.5 69.5t-46.5 38.5v2h175
v-132q17 64 65 103t112 39q96 0 157.5 -69.5t61.5 -180.5q0 -113 -63.5 -186t-159.5 -73z" />
    <glyph glyph-name="q" unicode="q" horiz-adv-x="605" 
d="M540 276v-390q0 -52 10.5 -71.5t43.5 -35.5v-2h-224v2q33 16 43.5 35.5t10.5 71.5v246q-17 -64 -65 -103t-112 -39q-96 0 -157.5 69t-61.5 181q0 113 66 186t165 73q66 0 117.5 -35t69.5 -90q9 39 39.5 74.5t65.5 49.5h2q-7 -32 -10 -75.5t-3 -146.5zM290 42
q55 0 94.5 46t39.5 116v94q0 69 -39.5 115.5t-93.5 46.5q-65 0 -101.5 -57.5t-36.5 -159.5q0 -94 36.5 -147.5t100.5 -53.5z" />
    <glyph glyph-name="r" unicode="r" horiz-adv-x="466" 
d="M376 322q-10 0 -19.5 3.5t-13.5 8.5q14 5 22 17.5t8 28.5q0 23 -15 36t-41 13q-48 0 -83 -56.5t-35 -135.5v-128q0 -43 17.5 -66.5t66.5 -40.5v-2h-254v2q33 16 43.5 35.5t10.5 71.5v270q0 48 -12.5 70t-46.5 38v2h175v-166q21 84 62.5 130t99.5 46q42 0 69.5 -24.5
t27.5 -63.5q0 -40 -23.5 -64.5t-58.5 -24.5z" />
    <glyph glyph-name="s" unicode="s" horiz-adv-x="463" 
d="M213 480q-40 0 -64 -22t-24 -57q0 -38 25 -57t96 -37q99 -25 140 -62.5t41 -101.5q0 -69 -52.5 -111t-135.5 -42q-21 0 -43 3t-56 13q-21 6 -30 7.5t-16 1.5q-11 0 -20.5 -4.5t-25.5 -20.5l-11 187h2q40 -86 89 -127t111 -41q46 0 74 25t28 67q0 34 -27.5 55t-107.5 40
q-85 23 -123.5 60.5t-38.5 100.5t48 102.5t121 39.5q18 0 36.5 -3t47.5 -13q19 -6 28.5 -8t17.5 -2q12 0 23.5 5.5t28.5 20.5v-164h-2q-31 67 -79 106t-101 39z" />
    <glyph glyph-name="t" unicode="t" horiz-adv-x="374" 
d="M254 51q36 0 60 29.5t34 84.5l9 -1q-8 -85 -45.5 -129.5t-102.5 -44.5q-66 0 -101.5 39.5t-35.5 113.5v320h-65v8q65 13 110.5 63t61.5 127h9v-172h154l-5 -26h-149v-319q0 -46 17 -69.5t49 -23.5z" />
    <glyph glyph-name="u" unicode="u" horiz-adv-x="591" 
d="M275 52q55 0 90 47t35 124v156q0 47 -12.5 69.5t-46.5 38.5v2h175v-388q0 -41 13 -62t53 -37v-2h-182v141q-18 -71 -65 -111t-113 -40q-71 0 -112.5 46.5t-41.5 127.5v215q0 48 -12.5 70t-46.5 38v2h175v-319q0 -54 24 -86t67 -32z" />
    <glyph glyph-name="v" unicode="v" horiz-adv-x="519" 
d="M191 383l115 -245l109 236q7 15 10.5 29t3.5 26q0 21 -11 35.5t-32 22.5v2h139v-2q-25 -19 -39.5 -39.5t-38.5 -70.5l-183 -387h-2l-193 391q-25 51 -38 69.5t-37 36.5v2h210v-2q-16 -8 -22.5 -17.5t-6.5 -27.5q0 -12 4.5 -28t11.5 -31z" />
    <glyph glyph-name="w" unicode="w" horiz-adv-x="759" 
d="M527 -10h-2l-136 334l-147 -334h-2l-171 391q-21 46 -35 66t-40 40v2h203v-2q-15 -8 -21 -17.5t-6 -26.5q0 -9 3.5 -22.5t12.5 -38.5l99 -233l90 209l-9 23q-20 46 -34 65.5t-41 40.5v2h202v-2q-16 -8 -23 -18t-7 -27q0 -8 3.5 -21.5t12.5 -38.5l88 -230l89 224
q5 13 7.5 25.5t2.5 22.5q0 23 -11.5 39t-33.5 24v2h144v-2q-30 -23 -44.5 -44.5t-32.5 -64.5z" />
    <glyph glyph-name="x" unicode="x" horiz-adv-x="530" 
d="M109 39q0 -11 6 -21t17 -16v-2h-139v2q33 17 58.5 40.5t67.5 77.5l95 123l-82 126q-27 42 -51.5 66.5t-66.5 51.5v2h213v-2q-7 -5 -10.5 -11.5t-3.5 -16.5t4.5 -23t32.5 -56l51 -79l56 79q17 22 25 40t8 32q0 12 -5.5 20.5t-17.5 14.5v2h138v-2q-34 -18 -60.5 -42.5
t-64.5 -75.5l-66 -88l104 -162q29 -43 53 -67t65 -50v-2h-212v2q7 5 10.5 12t3.5 16q-1 12 -8 28t-29 51l-73 112l-85 -112q-18 -24 -26 -40.5t-8 -29.5z" />
    <glyph glyph-name="y" unicode="y" horiz-adv-x="519" 
d="M130 -181q27 0 47 20.5t44 74.5l36 81l-188 386q-24 50 -37 68.5t-38 37.5v2h209v-2q-17 -8 -23.5 -18t-6.5 -27q0 -11 4.5 -27.5t12.5 -32.5l121 -256l106 249q5 13 8 26t3 24q0 22 -11 38t-32 24v2h140v-2q-26 -19 -41.5 -41.5t-37.5 -73.5l-203 -472
q-31 -71 -65.5 -102t-80.5 -31q-43 0 -69.5 22.5t-26.5 60.5q0 33 21 53.5t53 20.5q10 0 18 -1.5t16 -5.5q-15 -6 -22.5 -17.5t-7.5 -29.5q0 -23 14 -37t37 -14z" />
    <glyph glyph-name="z" unicode="z" horiz-adv-x="506" 
d="M21 2l307 464h-112q-48 0 -80 -22t-94 -114h-2l14 166q14 -4 28 -5.5t32 -1.5h355v-2l-307 -465h103q67 1 108 28.5t104 124.5h2l-30 -175h-428v2z" />
    <glyph glyph-name="braceleft" unicode="{" horiz-adv-x="366" 
d="M130 165q0 70 -30 106.5t-88 38.5v6q58 2 88 38.5t30 106.5q0 11 -1.5 23.5t-5.5 38.5q-5 30 -6.5 46t-1.5 30q0 68 52 109t138 41q15 0 27 -1t23 -3v-4q-62 0 -99.5 -37.5t-37.5 -100.5q0 -12 1.5 -27.5t7.5 -48.5q5 -31 6.5 -46t1.5 -26q0 -60 -44 -97.5t-109 -44.5
q65 -7 109 -44.5t44 -97.5q0 -11 -1.5 -26t-6.5 -46q-6 -33 -7.5 -48.5t-1.5 -27.5q0 -63 37.5 -100.5t99.5 -37.5v-4q-11 -2 -23 -3t-27 -1q-86 0 -138 41t-52 109q0 14 1.5 30t6.5 46q4 26 5.5 38.5t1.5 23.5z" />
    <glyph glyph-name="bar" unicode="|" horiz-adv-x="192" 
d="M110 -123h-28v872h28v-872z" />
    <glyph glyph-name="braceright" unicode="}" horiz-adv-x="366" 
d="M236 165q0 -11 1.5 -23.5t5.5 -38.5q5 -30 6.5 -46t1.5 -30q0 -68 -52 -109t-138 -41q-15 0 -27 1t-23 3v4q62 0 99.5 37.5t37.5 100.5q0 12 -1.5 27.5t-7.5 48.5q-5 31 -6.5 46t-1.5 26q0 60 44 97.5t109 44.5q-65 7 -109 44.5t-44 97.5q0 11 1.5 26t6.5 46
q6 33 7.5 48.5t1.5 27.5q0 63 -37.5 100.5t-99.5 37.5v4q11 2 23 3t27 1q86 0 138 -41t52 -109q0 -14 -1.5 -30t-6.5 -46q-4 -26 -5.5 -38.5t-1.5 -23.5q0 -70 30 -106.5t88 -38.5v-6q-58 -2 -88 -38.5t-30 -106.5z" />
    <glyph glyph-name="asciitilde" unicode="~" 
d="M151 300q-34 0 -60 -14.5t-41 -41.5h-2q13 65 46.5 101t79.5 36q18 0 37 -5t54 -21q33 -15 51 -19.5t34 -4.5q33 0 58.5 14.5t41.5 41.5h2q-14 -64 -47 -100t-79 -36q-18 0 -37 5t-54 20q-33 15 -50.5 19.5t-33.5 4.5z" />
    <glyph glyph-name="uni00A0" unicode="&#xa0;" horiz-adv-x="440" 
 />
    <glyph glyph-name="exclamdown" unicode="&#xa1;" horiz-adv-x="274" 
d="M140 335l76 -484h-158l77 484h5zM137 403q-33 0 -55.5 23t-22.5 56q0 32 23 55t55 23q33 0 55.5 -22.5t22.5 -55.5q0 -34 -22.5 -56.5t-55.5 -22.5z" />
    <glyph glyph-name="cent" unicode="&#xa2;" horiz-adv-x="509" 
d="M154 259q0 -77 28 -130t79 -72l34 423q-65 -3 -103 -63t-38 -158zM274 -10h-1l-8 -104h-18l8 105q-98 7 -160 73.5t-62 170.5q0 119 73.5 191.5t189.5 72.5l8 97h18l-8 -97q72 -4 117 -39t45 -85q0 -34 -21.5 -55.5t-54.5 -21.5q-25 0 -44 13t-27 37q6 -3 11.5 -4.5
t12.5 -1.5q20 0 32.5 16t12.5 41q0 35 -22 56.5t-63 24.5l-35 -429q11 -2 21 -3.5t20 -1.5q57 0 98.5 29.5t63.5 84.5l6 -3q-16 -79 -72.5 -123t-140.5 -44z" />
    <glyph glyph-name="sterling" unicode="&#xa3;" horiz-adv-x="644" 
d="M617 92q0 -52 -38.5 -84.5t-99.5 -32.5q-33 0 -63 8.5t-61 26.5q-23 13 -58.5 40t-46.5 35q-30 -46 -68 -70.5t-80 -24.5q-40 0 -65 21.5t-25 56.5q0 38 27.5 61.5t71.5 23.5q19 0 42 -5t53 -16q4 18 5.5 38t1.5 43q0 24 -3 53t-10 75h-113v19h110q-7 49 -9.5 75.5
t-2.5 48.5q0 103 64.5 164.5t172.5 61.5q82 0 130.5 -35.5t48.5 -93.5q0 -38 -23.5 -61t-59.5 -23q-25 0 -47.5 9.5t-31.5 24.5q33 -1 53 19.5t20 55.5q0 42 -23.5 65t-66.5 23q-50 0 -77.5 -44t-27.5 -118v-150v-10.5v-11.5h151v-19h-152q-3 -68 -16 -126t-36 -105
q64 -24 101.5 -32.5t70.5 -8.5q61 0 90.5 20t29.5 62q0 12 -3.5 22t-11.5 20q35 -11 55.5 -38t20.5 -63zM36 68q0 -27 17.5 -43t46.5 -16q36 0 62.5 27t39.5 77q-22 11 -44.5 16t-46.5 5q-34 0 -54.5 -18t-20.5 -48z" />
    <glyph glyph-name="yen" unicode="&#xa5;" horiz-adv-x="630" 
d="M433 2v-2h-235v2q34 17 46.5 42t12.5 76v129h-178v20h178v23l-27 50h-151v19h140l-130 237q-18 33 -38 55.5t-51 44.5v2h242v-2q-19 -12 -27.5 -25t-8.5 -30q0 -10 3.5 -22t10.5 -25l144 -270l142 265q7 12 10 24t3 24q-1 19 -11 34t-29 25v2h151v-2q-30 -21 -50.5 -44.5
t-40.5 -59.5l-128 -233h140v-19h-151l-27 -50v-23h178v-20h-178v-129q0 -51 13 -76t47 -42z" />
    <glyph glyph-name="section" unicode="&#xa7;" horiz-adv-x="551" 
d="M110 377q0 -34 14 -59t49 -54l171 -139q26 -21 46.5 -43t33.5 -42q8 12 12.5 30.5t4.5 37.5q0 34 -14 59.5t-49 53.5l-171 139q-26 21 -46.5 43t-33.5 42q-8 -12 -12.5 -30.5t-4.5 -37.5zM451 -56q0 -72 -53.5 -120.5t-133.5 -48.5q-74 0 -123.5 32.5t-49.5 82.5
q0 33 19 52.5t49 19.5q15 0 30.5 -5t23.5 -12q-19 -7 -28 -22.5t-9 -40.5q0 -42 23.5 -66.5t64.5 -24.5q50 0 78 30t28 81q0 41 -16 70t-69 72l-139 112q-48 39 -70.5 77t-22.5 80q0 38 18 75.5t50 64.5q-10 20 -15 41.5t-5 46.5q0 72 53 120.5t133 48.5q75 0 124.5 -32.5
t49.5 -82.5q0 -33 -19.5 -52.5t-49.5 -19.5q-15 0 -30.5 5t-22.5 12q19 7 28 22.5t9 40.5q0 42 -24 66.5t-65 24.5q-50 0 -78 -30t-28 -81q0 -41 16 -70t69 -72l140 -112q48 -39 70.5 -77t22.5 -80q0 -38 -18.5 -75t-50.5 -65q11 -21 16 -42.5t5 -45.5z" />
    <glyph glyph-name="dieresis" unicode="&#xa8;" 
d="M223 640q0 -28 -20 -48t-48 -20t-47.5 19.5t-19.5 48.5t19.5 49t47.5 20t48 -20.5t20 -48.5zM412 640q0 -28 -19.5 -48t-47.5 -20t-48.5 20t-20.5 48t20.5 48.5t48.5 20.5q27 0 47 -20.5t20 -48.5z" />
    <glyph glyph-name="copyright" unicode="&#xa9;" horiz-adv-x="810" 
d="M405 710q152 0 256 -103t104 -257t-104 -257t-256 -103t-256 103t-104 257t104 257t256 103zM405 10q144 0 242 97.5t98 242.5t-98 242.5t-242 97.5t-242 -97.5t-98 -242.5t98 -242.5t242 -97.5zM426 547q-56 0 -90.5 -52.5t-34.5 -134.5q0 -81 42 -130.5t108 -49.5
q48 0 81 21t54 64l3 -1q-16 -63 -62 -98.5t-112 -35.5q-92 0 -151.5 61t-59.5 157q0 95 61.5 157t155.5 62q16 0 32 -2.5t41 -10.5q16 -5 23.5 -6.5t14.5 -1.5q10 0 19 5t19 16l1 -134h-2q-26 55 -62.5 84.5t-80.5 29.5z" />
    <glyph glyph-name="ordfeminine" unicode="&#xaa;" horiz-adv-x="416" 
d="M384 386q4 0 9 1.5t11 4.5v-4q-11 -14 -30.5 -22.5t-42.5 -8.5q-32 0 -51.5 16t-23.5 46q0 1 -0.5 13t-0.5 15q-7 -38 -39 -63.5t-74 -25.5q-46 0 -73.5 23.5t-27.5 63.5q0 41 31 65t131 43l51 9v45q0 41 -18.5 63.5t-52.5 22.5q-29 0 -45 -13.5t-16 -37.5
q0 -19 8.5 -29.5t24.5 -10.5q2 0 4 0.5t7 1.5q-5 -17 -18.5 -26.5t-33.5 -9.5q-26 0 -42.5 15.5t-16.5 40.5q0 37 36.5 61.5t92.5 24.5q79 0 119.5 -30t40.5 -89q0 -16 -0.5 -33t-1.5 -48q0 -26 -0.5 -39t-0.5 -24q0 -32 10.5 -46.5t32.5 -14.5zM253 487l1 59l-37 -7
q-45 -9 -66 -28.5t-21 -52.5q0 -28 13 -42.5t38 -14.5q30 0 50.5 24t21.5 62zM354 266h-290v21h290v-21z" />
    <glyph glyph-name="guillemotleft" unicode="&#xab;" horiz-adv-x="463" 
d="M15 243v2q70 37 135 86t112 101h4q-21 -47 -50 -93.5t-68 -94.5q39 -48 68 -94.5t50 -93.5h-4q-47 52 -112 101t-135 86zM194 243v2q70 37 135 86t112 101h4q-21 -47 -50 -93.5t-68 -94.5q39 -48 68 -94.5t50 -93.5h-4q-47 52 -112 101t-135 86z" />
    <glyph glyph-name="registered" unicode="&#xae;" horiz-adv-x="481" 
d="M241 710q83 0 139 -56t56 -140q0 -83 -56.5 -139t-138.5 -56q-83 0 -139.5 56t-56.5 139q0 84 56.5 140t139.5 56zM241 335q76 0 127 51t51 128q0 78 -51 129t-127 51q-77 0 -128 -51t-51 -129q0 -77 51 -128t128 -51zM232 616h-26v-97h26q25 0 37.5 11.5t12.5 35.5
t-13 37t-37 13zM137 623v4h114q40 0 62.5 -15.5t22.5 -44.5q0 -26 -21 -40.5t-54 -14.5q24 -1 38.5 -11.5t20.5 -30.5l9 -26q5 -14 11 -21.5t22 -14.5v-4h-68q-5 6 -9.5 15t-7.5 20l-11 35q-6 19 -15 27t-24 8h-21v-65q0 -16 3.5 -23t14.5 -13v-4h-87v4q11 6 14.5 13t3.5 23
v143q0 16 -3.5 23t-14.5 13z" />
    <glyph glyph-name="macron" unicode="&#xaf;" 
d="M395 635v-36h-286v36h286z" />
    <glyph glyph-name="degree" unicode="&#xb0;" horiz-adv-x="267" 
d="M134 709q46 0 78 -32.5t32 -78.5t-32 -78t-78 -32t-78.5 32t-32.5 78t32.5 78.5t78.5 32.5zM134 512q36 0 61 25t25 61t-25 61.5t-61 25.5t-61.5 -25.5t-25.5 -61.5t25.5 -61t61.5 -25z" />
    <glyph glyph-name="plusminus" unicode="&#xb1;" horiz-adv-x="479" 
d="M435 389v-28h-182v-138h-28v138h-181v28h181v137h28v-137h182zM435 133h-391v26h391v-26z" />
    <glyph glyph-name="twosuperior" unicode="&#xb2;" horiz-adv-x="271" 
d="M166 635q0 25 -12 39.5t-33 14.5q-20 0 -33 -13t-13 -32t9 -30.5t24 -11.5q7 0 10.5 1t7.5 5h2q-6 -17 -18.5 -25.5t-30.5 -8.5q-23 0 -38 15t-15 40q0 34 26.5 54.5t68.5 20.5q54 0 85 -22t31 -62q0 -39 -30.5 -71.5t-120.5 -82.5h71q39 1 53.5 8t28.5 28h4l-12 -92
h-214v2q91 88 120 132t29 91z" />
    <glyph glyph-name="threesuperior" unicode="&#xb3;" horiz-adv-x="270" 
d="M80 468q0 -21 12 -34t32 -13q21 0 34.5 19.5t13.5 49.5q0 36 -15.5 53.5t-46.5 17.5v9q27 1 39.5 17t12.5 50q0 24 -9.5 38.5t-26.5 14.5q-16 0 -26.5 -11t-10.5 -28q0 -15 6 -24t16 -9q5 0 6.5 0.5t2.5 1.5l2 -1q-5 -10 -15.5 -15.5t-25.5 -5.5q-20 0 -32.5 12t-12.5 32
q0 28 25 45t65 17q49 0 78 -19t29 -51q0 -28 -21 -45.5t-58 -20.5q41 -2 66 -23t25 -55q0 -39 -33 -61.5t-88 -22.5q-46 0 -75 18.5t-29 50.5q0 23 14 36t37 13q16 0 27 -5.5t15 -15.5l-2 -1q-2 1 -3.5 1.5t-5.5 0.5q-10 0 -16 -9.5t-6 -26.5z" />
    <glyph glyph-name="acute" unicode="&#xb4;" 
d="M218 749h124q-31 -55 -76 -102t-107 -91h-4q29 51 44 97.5t19 95.5z" />
    <glyph glyph-name="paragraph" unicode="&#xb6;" horiz-adv-x="518" 
d="M417 594v-645q0 -80 -44 -132t-115 -52q-67 0 -110 32.5t-43 86.5q0 31 21.5 52t51.5 21q24 0 40.5 -11t22.5 -31h-1q-5 4 -12.5 6t-15.5 2q-16 0 -26.5 -13.5t-10.5 -34.5q0 -39 24.5 -62t66.5 -23q56 0 91 44.5t35 114.5v728h-39v-553h-24v160q-131 0 -213 56.5
t-82 151.5t82 151.5t213 56.5h148v-2q-40 -22 -50 -41.5t-10 -62.5z" />
    <glyph glyph-name="periodcentered" unicode="&#xb7;" horiz-adv-x="226" 
d="M113 351q33 0 55.5 -23t22.5 -56q0 -32 -23 -55t-55 -23t-54.5 23t-22.5 55q0 33 22 56t55 23z" />
    <glyph glyph-name="cedilla" unicode="&#xb8;" 
d="M251 -223q-39 0 -70 17t-44 44l8 9q14 -20 34 -30.5t44 -10.5q26 0 41 15.5t15 42.5q0 29 -19.5 42.5t-66.5 15.5l46 87h17l-34 -69q65 1 104 -20t39 -59t-32 -61t-82 -23z" />
    <glyph glyph-name="onesuperior" unicode="&#xb9;" horiz-adv-x="199" 
d="M63 452v206q0 16 -9 23t-42 13v6h126v-248q0 -16 8.5 -23t40.5 -13v-6h-173v6q32 6 40.5 13t8.5 23z" />
    <glyph glyph-name="ordmasculine" unicode="&#xba;" horiz-adv-x="418" 
d="M390 533q0 -76 -52 -126.5t-129 -50.5t-129 50.5t-52 126.5t52 126.5t129 50.5t129 -50.5t52 -126.5zM123 533q0 -77 22 -118t64 -41t63.5 40.5t21.5 118.5t-21.5 118.5t-63.5 40.5t-64 -41t-22 -118zM354 266h-289v21h289v-21z" />
    <glyph glyph-name="guillemotright" unicode="&#xbb;" horiz-adv-x="463" 
d="M277 245v-2q-69 -37 -134 -86t-112 -101h-4q22 49 52 96.5t66 91.5q-36 44 -66 91.5t-52 96.5h4q47 -52 112 -101t134 -86zM456 245v-2q-69 -37 -134 -86t-112 -101h-4q22 49 52 96.5t66 91.5q-36 44 -66 91.5t-52 96.5h4q47 -52 112 -101t134 -86z" />
    <glyph glyph-name="onequarter" unicode="&#xbc;" horiz-adv-x="412" 
d="M171 452v206q0 16 -9 23t-42 13v6h126v-248q0 -16 8.5 -23t40.5 -13v-6h-173v6q32 6 40.5 13t8.5 23zM20 342v16h365v-16h-365zM95 93h102v151zM197 51v26h-131v2l146 213h59v-199h22q15 0 21.5 3.5t17.5 23.5h3v-70h-3q-11 20 -17.5 23.5t-21.5 3.5h-22v-26q0 -20 4 -29
t18 -18v-4h-118v4q14 9 18 18t4 29z" />
    <glyph glyph-name="onehalf" unicode="&#xbd;" horiz-adv-x="405" 
d="M171 452v206q0 16 -9 23t-42 13v6h126v-248q0 -16 8.5 -23t40.5 -13v-6h-173v6q32 6 40.5 13t8.5 23zM20 342v16h365v-16h-365zM243 225q0 25 -12 39.5t-33 14.5q-20 0 -33 -13t-13 -32t9 -30.5t24 -11.5q7 0 10.5 1t7.5 5h2q-6 -17 -18.5 -25.5t-30.5 -8.5q-23 0 -38 15
t-15 40q0 34 26.5 54.5t68.5 20.5q54 0 85 -22t31 -62q0 -39 -30.5 -71.5t-120.5 -82.5h71q39 1 53.5 8t28.5 28h4l-12 -92h-214v2q91 88 120 132t29 91z" />
    <glyph glyph-name="threequarters" unicode="&#xbe;" horiz-adv-x="412" 
d="M157 468q0 -21 12 -34t32 -13q21 0 34.5 19.5t13.5 49.5q0 36 -15.5 53.5t-46.5 17.5v9q27 1 39.5 17t12.5 50q0 24 -9.5 38.5t-26.5 14.5q-16 0 -26.5 -11t-10.5 -28q0 -15 6 -24t16 -9q5 0 6.5 0.5t2.5 1.5l2 -1q-5 -10 -15.5 -15.5t-25.5 -5.5q-20 0 -32.5 12
t-12.5 32q0 28 25 45t65 17q49 0 78 -19t29 -51q0 -28 -21 -45.5t-58 -20.5q41 -2 66 -23t25 -55q0 -39 -33 -61.5t-88 -22.5q-46 0 -75 18.5t-29 50.5q0 23 14 36t37 13q16 0 27 -5.5t15 -15.5l-2 -1q-2 1 -3.5 1.5t-5.5 0.5q-10 0 -16 -9.5t-6 -26.5zM20 342v16h365v-16
h-365zM95 93h102v151zM197 51v26h-131v2l146 213h59v-199h22q15 0 21.5 3.5t17.5 23.5h3v-70h-3q-11 20 -17.5 23.5t-21.5 3.5h-22v-26q0 -20 4 -29t18 -18v-4h-118v4q14 9 18 18t4 29z" />
    <glyph glyph-name="questiondown" unicode="&#xbf;" horiz-adv-x="511" 
d="M129 -3q0 -59 37.5 -97.5t99.5 -38.5q56 0 91.5 33t35.5 82q0 33 -18.5 54.5t-47.5 21.5q-9 0 -19.5 -3t-17.5 -8l-1 1q12 32 35.5 49t57.5 17q44 0 73 -30t29 -78q0 -69 -61.5 -114t-156.5 -45q-106 0 -172.5 54.5t-66.5 138.5q0 86 65.5 151t172.5 90v64h20v-171
q-78 -19 -117 -61.5t-39 -109.5zM352 482q0 -33 -22.5 -56t-55.5 -23t-55.5 22.5t-22.5 56.5q0 33 22.5 55.5t55.5 22.5q32 0 55 -23t23 -55z" />
    <glyph glyph-name="Agrave" unicode="&#xc0;" horiz-adv-x="713" 
d="M439 252l-134 294l-127 -294h261zM112 71q0 -22 13.5 -40.5t36.5 -28.5v-2h-163v2q26 14 47.5 43t46.5 86l258 579h4l277 -598q28 -59 43 -78t38 -32v-2h-241v2q23 10 34 23.5t11 30.5q0 12 -4 26t-12 33l-50 110h-285l-38 -89q-8 -18 -12 -34t-4 -31zM205 920h130
q6 -54 20 -95t39 -79h-4q-62 38 -107.5 80.5t-77.5 93.5z" />
    <glyph glyph-name="Aacute" unicode="&#xc1;" horiz-adv-x="713" 
d="M439 252l-134 294l-127 -294h261zM112 71q0 -22 13.5 -40.5t36.5 -28.5v-2h-163v2q26 14 47.5 43t46.5 86l258 579h4l277 -598q28 -59 43 -78t38 -32v-2h-241v2q23 10 34 23.5t11 30.5q0 12 -4 26t-12 33l-50 110h-285l-38 -89q-8 -18 -12 -34t-4 -31zM351 920h131
q-32 -50 -77 -92.5t-108 -81.5h-4q25 39 39 80t19 94z" />
    <glyph glyph-name="Acircumflex" unicode="&#xc2;" horiz-adv-x="713" 
d="M439 252l-134 294l-127 -294h261zM112 71q0 -22 13.5 -40.5t36.5 -28.5v-2h-163v2q26 14 47.5 43t46.5 86l258 579h4l277 -598q28 -59 43 -78t38 -32v-2h-241v2q23 10 34 23.5t11 30.5q0 12 -4 26t-12 33l-50 110h-285l-38 -89q-8 -18 -12 -34t-4 -31zM512 738h-9
q-44 18 -83.5 40t-65.5 44q-26 -22 -65.5 -44t-83.5 -40h-9q49 46 92 101t64 100h4q21 -45 64 -100t92 -101z" />
    <glyph glyph-name="Atilde" unicode="&#xc3;" horiz-adv-x="713" 
d="M439 252l-134 294l-127 -294h261zM112 71q0 -22 13.5 -40.5t36.5 -28.5v-2h-163v2q26 14 47.5 43t46.5 86l258 579h4l277 -598q28 -59 43 -78t38 -32v-2h-241v2q23 10 34 23.5t11 30.5q0 12 -4 26t-12 33l-50 110h-285l-38 -89q-8 -18 -12 -34t-4 -31zM531 914h8
q-15 -71 -44 -109t-68 -38q-16 0 -33.5 6t-51.5 26q-29 17 -43.5 22.5t-26.5 5.5q-28 0 -50 -16t-37 -49h-8q15 71 44 109t68 38q16 0 33.5 -6t51.5 -26q29 -17 43.5 -22.5t26.5 -5.5q28 0 50 16.5t37 48.5z" />
    <glyph glyph-name="Adieresis" unicode="&#xc4;" horiz-adv-x="713" 
d="M439 252l-134 294l-127 -294h261zM112 71q0 -22 13.5 -40.5t36.5 -28.5v-2h-163v2q26 14 47.5 43t46.5 86l258 579h4l277 -598q28 -59 43 -78t38 -32v-2h-241v2q23 10 34 23.5t11 30.5q0 12 -4 26t-12 33l-50 110h-285l-38 -89q-8 -18 -12 -34t-4 -31zM327 831
q0 -29 -20 -49t-48 -20q-29 0 -48 20t-19 49t19.5 48.5t47.5 19.5t48 -20t20 -48zM516 831q0 -29 -19.5 -49t-47.5 -20t-48.5 20.5t-20.5 48.5t20.5 48t48.5 20t47.5 -20t19.5 -48z" />
    <glyph glyph-name="Aring" unicode="&#xc5;" horiz-adv-x="713" 
d="M439 252l-134 294l-127 -294h261zM112 71q0 -22 13.5 -40.5t36.5 -28.5v-2h-163v2q26 14 47.5 43t46.5 86l258 579h4l277 -598q28 -59 43 -78t38 -32v-2h-241v2q23 10 34 23.5t11 30.5q0 12 -4 26t-12 33l-50 110h-285l-38 -89q-8 -18 -12 -34t-4 -31zM254 850
q0 40 29.5 69t70.5 29t70.5 -29t29.5 -69q0 -41 -29.5 -70t-70.5 -29t-70.5 29t-29.5 70zM280 850q0 -30 22 -51.5t52 -21.5t52 21.5t22 51.5q0 29 -22 50.5t-52 21.5t-52 -21.5t-22 -50.5z" />
    <glyph glyph-name="AE" unicode="&#xc6;" horiz-adv-x="1058" 
d="M506 296v374l-249 -374h249zM119 60q0 -20 11.5 -34.5t35.5 -23.5v-2h-166v2q22 12 41.5 32.5t57.5 77.5l332 499q5 7 8 15t3 16q0 14 -10 25t-44 31v2h527q23 0 35.5 2t19.5 6l34 -180h-2q-46 82 -96.5 114t-129.5 32h-149v-304h124q63 0 90.5 22t51.5 90h2v-238h-2
q-22 60 -47 80t-95 20h-124v-318h169q79 0 133.5 37.5t100.5 126.5h2l-32 -190h-550v2q31 15 43.5 41t12.5 83v143h-267l-96 -145q-12 -18 -18 -33.5t-6 -30.5z" />
    <glyph glyph-name="Ccedilla" unicode="&#xc7;" horiz-adv-x="681" 
d="M563 676q17 0 31 6.5t35 27.5l7 -225h-2q-35 95 -96 148.5t-136 53.5q-107 0 -171 -90t-64 -236q0 -138 70.5 -224t178.5 -86q86 0 142.5 37.5t90.5 115.5l5 -2q-21 -99 -94.5 -155.5t-183.5 -56.5q-150 0 -246.5 100t-96.5 257q0 154 105 258.5t258 104.5q27 0 54 -4.5
t68 -18.5q21 -7 30 -9t15 -2zM364 -223q-39 0 -70 17t-44 44l8 9q14 -20 34 -30.5t44 -10.5q26 0 41 15.5t15 42.5q0 29 -19.5 42.5t-66.5 15.5l46 87h17l-34 -69q65 1 104 -20t39 -59t-32 -61t-82 -23z" />
    <glyph glyph-name="Egrave" unicode="&#xc8;" horiz-adv-x="648" 
d="M188 920h130q6 -54 20 -95t39 -79h-4q-62 38 -107.5 80.5t-77.5 93.5zM39 698v2h466q23 0 35.5 2t19.5 6l34 -180h-2q-46 82 -96.5 114t-128.5 32h-151v-304h126q62 0 89.5 22t51.5 90h2v-238h-2q-22 61 -46.5 80.5t-94.5 19.5h-126v-318h170q79 0 133 37t101 127h2
l-32 -190h-551v2q32 15 44.5 41.5t12.5 82.5v448q0 56 -12.5 82.5t-44.5 41.5z" />
    <glyph glyph-name="Eacute" unicode="&#xc9;" horiz-adv-x="648" 
d="M333 920h131q-32 -50 -77 -92.5t-108 -81.5h-4q25 39 39 80t19 94zM39 698v2h466q23 0 35.5 2t19.5 6l34 -180h-2q-46 82 -96.5 114t-128.5 32h-151v-304h126q62 0 89.5 22t51.5 90h2v-238h-2q-22 61 -46.5 80.5t-94.5 19.5h-126v-318h170q79 0 133 37t101 127h2
l-32 -190h-551v2q32 15 44.5 41.5t12.5 82.5v448q0 56 -12.5 82.5t-44.5 41.5z" />
    <glyph glyph-name="Ecircumflex" unicode="&#xca;" horiz-adv-x="648" 
d="M39 698v2h466q23 0 35.5 2t19.5 6l34 -180h-2q-46 82 -96.5 114t-128.5 32h-151v-304h126q62 0 89.5 22t51.5 90h2v-238h-2q-22 61 -46.5 80.5t-94.5 19.5h-126v-318h170q79 0 133 37t101 127h2l-32 -190h-551v2q32 15 44.5 41.5t12.5 82.5v448q0 56 -12.5 82.5
t-44.5 41.5zM488 738h-9q-44 18 -83.5 40t-65.5 44q-26 -22 -65.5 -44t-83.5 -40h-9q49 46 92 101t64 100h4q21 -45 64 -100t92 -101z" />
    <glyph glyph-name="Edieresis" unicode="&#xcb;" horiz-adv-x="648" 
d="M304 831q0 -29 -20 -49t-48 -20q-29 0 -48 20t-19 49t19.5 48.5t47.5 19.5t48 -20t20 -48zM493 831q0 -29 -19.5 -49t-47.5 -20t-48.5 20.5t-20.5 48.5t20.5 48t48.5 20t47.5 -20t19.5 -48zM39 698v2h466q23 0 35.5 2t19.5 6l34 -180h-2q-46 82 -96.5 114t-128.5 32h-151
v-304h126q62 0 89.5 22t51.5 90h2v-238h-2q-22 61 -46.5 80.5t-94.5 19.5h-126v-318h170q79 0 133 37t101 127h2l-32 -190h-551v2q32 15 44.5 41.5t12.5 82.5v448q0 56 -12.5 82.5t-44.5 41.5z" />
    <glyph glyph-name="Igrave" unicode="&#xcc;" horiz-adv-x="312" 
d="M216 574v-448q0 -56 12.5 -82.5t44.5 -41.5v-2h-234v2q32 15 44.5 41.5t12.5 82.5v448q0 56 -12.5 82.5t-44.5 41.5v2h234v-2q-32 -15 -44.5 -41.5t-12.5 -82.5zM8 920h130q6 -54 20 -95t39 -79h-4q-62 38 -107.5 80.5t-77.5 93.5z" />
    <glyph glyph-name="Iacute" unicode="&#xcd;" horiz-adv-x="312" 
d="M216 574v-448q0 -56 12.5 -82.5t44.5 -41.5v-2h-234v2q32 15 44.5 41.5t12.5 82.5v448q0 56 -12.5 82.5t-44.5 41.5v2h234v-2q-32 -15 -44.5 -41.5t-12.5 -82.5zM153 920h131q-32 -50 -77 -92.5t-108 -81.5h-4q25 39 39 80t19 94z" />
    <glyph glyph-name="Icircumflex" unicode="&#xce;" horiz-adv-x="312" 
d="M216 574v-448q0 -56 12.5 -82.5t44.5 -41.5v-2h-234v2q32 15 44.5 41.5t12.5 82.5v448q0 56 -12.5 82.5t-44.5 41.5v2h234v-2q-32 -15 -44.5 -41.5t-12.5 -82.5zM314 738h-9q-44 18 -83.5 40t-65.5 44q-26 -22 -65.5 -44t-83.5 -40h-9q49 46 92 101t64 100h4
q21 -45 64 -100t92 -101z" />
    <glyph glyph-name="Idieresis" unicode="&#xcf;" horiz-adv-x="312" 
d="M216 574v-448q0 -56 12.5 -82.5t44.5 -41.5v-2h-234v2q32 15 44.5 41.5t12.5 82.5v448q0 56 -12.5 82.5t-44.5 41.5v2h234v-2q-32 -15 -44.5 -41.5t-12.5 -82.5zM129 831q0 -29 -20 -49t-48 -20q-29 0 -48 20t-19 49t19.5 48.5t47.5 19.5t48 -20t20 -48zM318 831
q0 -29 -19.5 -49t-47.5 -20t-48.5 20.5t-20.5 48.5t20.5 48t48.5 20t47.5 -20t19.5 -48z" />
    <glyph glyph-name="Eth" unicode="&#xd0;" horiz-adv-x="748" 
d="M715 356q0 -166 -107.5 -261t-288.5 -95h-280v2q32 15 44.5 41.5t12.5 82.5v218h-57v28h57v202q0 56 -12.5 82.5t-44.5 41.5v2h261q194 0 304.5 -91t110.5 -253zM216 344v-318h87q134 0 208 85.5t74 244.5q0 149 -79 233.5t-215 84.5h-75v-302h138v-28h-138z" />
    <glyph glyph-name="Ntilde" unicode="&#xd1;" horiz-adv-x="731" 
d="M551 914h8q-15 -71 -44 -109t-68 -38q-16 0 -33.5 6t-51.5 26q-29 17 -43.5 22.5t-26.5 5.5q-28 0 -50 -16t-37 -49h-8q15 71 44 109t68 38q16 0 33.5 -6t51.5 -26q29 -17 43.5 -22.5t26.5 -5.5q28 0 50 16.5t37 48.5zM716 700v-2q-38 -18 -56.5 -53t-18.5 -90v-562h-15
l-501 632v-477q0 -57 19 -93t58 -53v-2h-181v2q38 18 56.5 53t18.5 90v429q0 56 -12.5 82.5t-44.5 41.5v2h182l391 -498v350q0 57 -19 93t-59 53v2h182z" />
    <glyph glyph-name="Ograve" unicode="&#xd2;" horiz-adv-x="762" 
d="M233 920h130q6 -54 20 -95t39 -79h-4q-62 38 -107.5 80.5t-77.5 93.5zM381 710q147 0 247.5 -103t100.5 -257t-100.5 -257t-247.5 -103t-247.5 103t-100.5 257t100.5 257t247.5 103zM381 12q102 0 157.5 88.5t55.5 249.5t-55.5 249.5t-157.5 88.5t-157.5 -88.5
t-55.5 -249.5t55.5 -249.5t157.5 -88.5z" />
    <glyph glyph-name="Oacute" unicode="&#xd3;" horiz-adv-x="762" 
d="M378 920h131q-32 -50 -77 -92.5t-108 -81.5h-4q25 39 39 80t19 94zM381 710q147 0 247.5 -103t100.5 -257t-100.5 -257t-247.5 -103t-247.5 103t-100.5 257t100.5 257t247.5 103zM381 12q102 0 157.5 88.5t55.5 249.5t-55.5 249.5t-157.5 88.5t-157.5 -88.5t-55.5 -249.5
t55.5 -249.5t157.5 -88.5z" />
    <glyph glyph-name="Ocircumflex" unicode="&#xd4;" horiz-adv-x="762" 
d="M381 710q147 0 247.5 -103t100.5 -257t-100.5 -257t-247.5 -103t-247.5 103t-100.5 257t100.5 257t247.5 103zM381 12q102 0 157.5 88.5t55.5 249.5t-55.5 249.5t-157.5 88.5t-157.5 -88.5t-55.5 -249.5t55.5 -249.5t157.5 -88.5zM539 738h-9q-44 18 -83.5 40t-65.5 44
q-26 -22 -65.5 -44t-83.5 -40h-9q49 46 92 101t64 100h4q21 -45 64 -100t92 -101z" />
    <glyph glyph-name="Otilde" unicode="&#xd5;" horiz-adv-x="762" 
d="M556 914h8q-15 -71 -44 -109t-68 -38q-16 0 -33.5 6t-51.5 26q-29 17 -43.5 22.5t-26.5 5.5q-28 0 -50 -16t-37 -49h-8q15 71 44 109t68 38q16 0 33.5 -6t51.5 -26q29 -17 43.5 -22.5t26.5 -5.5q28 0 50 16.5t37 48.5zM381 710q147 0 247.5 -103t100.5 -257t-100.5 -257
t-247.5 -103t-247.5 103t-100.5 257t100.5 257t247.5 103zM381 12q102 0 157.5 88.5t55.5 249.5t-55.5 249.5t-157.5 88.5t-157.5 -88.5t-55.5 -249.5t55.5 -249.5t157.5 -88.5z" />
    <glyph glyph-name="Odieresis" unicode="&#xd6;" horiz-adv-x="762" 
d="M354 831q0 -29 -20 -49t-48 -20q-29 0 -48 20t-19 49t19.5 48.5t47.5 19.5t48 -20t20 -48zM543 831q0 -29 -19.5 -49t-47.5 -20t-48.5 20.5t-20.5 48.5t20.5 48t48.5 20t47.5 -20t19.5 -48zM381 710q147 0 247.5 -103t100.5 -257t-100.5 -257t-247.5 -103t-247.5 103
t-100.5 257t100.5 257t247.5 103zM381 12q102 0 157.5 88.5t55.5 249.5t-55.5 249.5t-157.5 88.5t-157.5 -88.5t-55.5 -249.5t55.5 -249.5t157.5 -88.5z" />
    <glyph glyph-name="multiply" unicode="&#xd7;" horiz-adv-x="398" 
d="M48 189l133 134l-133 134l19 19l132 -134l132 134l19 -19l-133 -134l133 -134l-19 -19l-132 134l-132 -134z" />
    <glyph glyph-name="Oslash" unicode="&#xd8;" horiz-adv-x="762" 
d="M381 688q-102 0 -157.5 -88.5t-55.5 -249.5q0 -55 7 -102t20 -86l365 394q-27 65 -72 98.5t-107 33.5zM381 12q102 0 157.5 88.5t55.5 249.5q0 53 -6.5 99t-18.5 83l-365 -393q27 -63 71.5 -95t105.5 -32zM729 350q0 -154 -100.5 -257t-247.5 -103q-65 0 -125 23t-108 66
l-83 -90l-18 14l85 91q-48 50 -73.5 116t-25.5 140q0 154 100.5 257t247.5 103q67 0 127.5 -23.5t108.5 -68.5l80 86l18 -15l-81 -87q46 -50 70.5 -114.5t24.5 -137.5z" />
    <glyph glyph-name="Ugrave" unicode="&#xd9;" horiz-adv-x="732" 
d="M244 920h130q6 -54 20 -95t39 -79h-4q-62 38 -107.5 80.5t-77.5 93.5zM642 555v-286q0 -129 -73 -204t-196 -75q-139 0 -214.5 73t-75.5 208v303q0 56 -12.5 82.5t-44.5 41.5v2h233v-2q-31 -15 -43.5 -41t-12.5 -83v-296q0 -118 49 -179t144 -61q99 0 157.5 63.5
t58.5 172.5v278q0 57 -19 93t-58 53v2h181v-2q-38 -18 -56 -53t-18 -90z" />
    <glyph glyph-name="Uacute" unicode="&#xda;" horiz-adv-x="732" 
d="M389 920h131q-32 -50 -77 -92.5t-108 -81.5h-4q25 39 39 80t19 94zM642 555v-286q0 -129 -73 -204t-196 -75q-139 0 -214.5 73t-75.5 208v303q0 56 -12.5 82.5t-44.5 41.5v2h233v-2q-31 -15 -43.5 -41t-12.5 -83v-296q0 -118 49 -179t144 -61q99 0 157.5 63.5t58.5 172.5
v278q0 57 -19 93t-58 53v2h181v-2q-38 -18 -56 -53t-18 -90z" />
    <glyph glyph-name="Ucircumflex" unicode="&#xdb;" horiz-adv-x="732" 
d="M642 555v-286q0 -129 -73 -204t-196 -75q-139 0 -214.5 73t-75.5 208v303q0 56 -12.5 82.5t-44.5 41.5v2h233v-2q-31 -15 -43.5 -41t-12.5 -83v-296q0 -118 49 -179t144 -61q99 0 157.5 63.5t58.5 172.5v278q0 57 -19 93t-58 53v2h181v-2q-38 -18 -56 -53t-18 -90z
M550 738h-9q-44 18 -83.5 40t-65.5 44q-26 -22 -65.5 -44t-83.5 -40h-9q49 46 92 101t64 100h4q21 -45 64 -100t92 -101z" />
    <glyph glyph-name="Udieresis" unicode="&#xdc;" horiz-adv-x="732" 
d="M365 831q0 -29 -20 -49t-48 -20q-29 0 -48 20t-19 49t19.5 48.5t47.5 19.5t48 -20t20 -48zM554 831q0 -29 -19.5 -49t-47.5 -20t-48.5 20.5t-20.5 48.5t20.5 48t48.5 20t47.5 -20t19.5 -48zM642 555v-286q0 -129 -73 -204t-196 -75q-139 0 -214.5 73t-75.5 208v303
q0 56 -12.5 82.5t-44.5 41.5v2h233v-2q-31 -15 -43.5 -41t-12.5 -83v-296q0 -118 49 -179t144 -61q99 0 157.5 63.5t58.5 172.5v278q0 57 -19 93t-58 53v2h181v-2q-38 -18 -56 -53t-18 -90z" />
    <glyph glyph-name="Yacute" unicode="&#xdd;" horiz-adv-x="668" 
d="M218 597l164 -269l158 258q7 14 11 26.5t4 22.5q0 20 -11 36.5t-31 26.5v2h157v-2q-27 -17 -48.5 -41.5t-46.5 -65.5l-184 -299v-172q0 -51 13 -76t47 -42v-2h-236v2q34 17 47 42t13 76v172l-188 306q-23 38 -42.5 59.5t-46.5 40.5v2h242v-2q-19 -12 -27.5 -25t-8.5 -30
q0 -12 3.5 -23t10.5 -23zM352 920h131q-32 -50 -77 -92.5t-108 -81.5h-4q25 39 39 80t19 94z" />
    <glyph glyph-name="Thorn" unicode="&#xde;" horiz-adv-x="640" 
d="M216 574v-13h142q124 0 195 -54t71 -151t-70.5 -151t-194.5 -54h-143v-31q0 -53 17 -76.5t64 -41.5v-2h-258v2q32 15 44.5 41.5t12.5 82.5v448q0 56 -12.5 82.5t-44.5 41.5v2h234v-2q-32 -15 -44.5 -41.5t-12.5 -82.5zM216 534v-357h110q85 0 130 46t45 133q0 86 -45 132
t-130 46h-110z" />
    <glyph glyph-name="germandbls" unicode="&#xdf;" horiz-adv-x="640" 
d="M334 738q-64 0 -99.5 -48.5t-35.5 -135.5v-554h-170v2q33 16 43.5 35.5t10.5 71.5v354h-66v8l66 22v29q0 110 68 171t183 61q85 0 136.5 -33.5t51.5 -89.5q0 -24 -9.5 -44.5t-28.5 -39.5q-9 -7 -19.5 -15.5t-58.5 -38.5q-37 -25 -48.5 -41t-11.5 -36q0 -26 27 -47
t104 -55q78 -35 111 -74.5t33 -95.5q0 -68 -50.5 -111t-128.5 -43q-21 0 -39.5 3t-44.5 13q-16 6 -24 7.5t-15 1.5q-11 0 -20 -4.5t-25 -20.5l-11 187h2q46 -95 85 -131.5t92 -36.5q40 0 65.5 25t25.5 63q0 36 -24 61t-95 57q-73 32 -101.5 63.5t-28.5 80.5q0 32 17 60
t81 82q38 32 53 61t15 66q0 52 -30.5 81t-85.5 29z" />
    <glyph glyph-name="agrave" unicode="&#xe0;" horiz-adv-x="532" 
d="M518 30q7 0 14 2t14 5v-2q-16 -20 -42.5 -31.5t-57.5 -11.5q-44 0 -70.5 23t-31.5 65v3.5t-1 10.5q0 13 -0.5 18.5t-0.5 8.5q-9 -54 -56.5 -91t-108.5 -37q-66 0 -105 33t-39 91q0 40 20.5 68.5t63.5 47.5q23 11 55 19.5t93 19.5l76 14v70q0 57 -27.5 90.5t-76.5 33.5
q-44 0 -68 -21t-24 -59q0 -26 12.5 -41t33.5 -15q4 0 7.5 1t7.5 2q-7 -23 -26 -36t-46 -13q-35 0 -57.5 21t-22.5 56q0 53 52.5 88.5t132.5 35.5q111 0 165.5 -42.5t54.5 -128.5v-46.5t-1 -69.5q-1 -39 -1 -58v-35q0 -46 15 -67.5t46 -21.5zM339 178l2 89l-59 -11
q-68 -14 -99 -43.5t-31 -80.5q0 -42 20 -64.5t56 -22.5q47 0 78.5 37.5t32.5 95.5zM122 749h124q5 -51 20 -97t43 -96h-4q-63 44 -108 91.5t-75 101.5z" />
    <glyph glyph-name="aacute" unicode="&#xe1;" horiz-adv-x="532" 
d="M518 30q7 0 14 2t14 5v-2q-16 -20 -42.5 -31.5t-57.5 -11.5q-44 0 -70.5 23t-31.5 65v3.5t-1 10.5q0 13 -0.5 18.5t-0.5 8.5q-9 -54 -56.5 -91t-108.5 -37q-66 0 -105 33t-39 91q0 40 20.5 68.5t63.5 47.5q23 11 55 19.5t93 19.5l76 14v70q0 57 -27.5 90.5t-76.5 33.5
q-44 0 -68 -21t-24 -59q0 -26 12.5 -41t33.5 -15q4 0 7.5 1t7.5 2q-7 -23 -26 -36t-46 -13q-35 0 -57.5 21t-22.5 56q0 53 52.5 88.5t132.5 35.5q111 0 165.5 -42.5t54.5 -128.5v-46.5t-1 -69.5q-1 -39 -1 -58v-35q0 -46 15 -67.5t46 -21.5zM339 178l2 89l-59 -11
q-68 -14 -99 -43.5t-31 -80.5q0 -42 20 -64.5t56 -22.5q47 0 78.5 37.5t32.5 95.5zM261 749h124q-31 -55 -76 -102t-107 -91h-4q29 51 44 97.5t19 95.5z" />
    <glyph glyph-name="acircumflex" unicode="&#xe2;" horiz-adv-x="532" 
d="M518 30q7 0 14 2t14 5v-2q-16 -20 -42.5 -31.5t-57.5 -11.5q-44 0 -70.5 23t-31.5 65v3.5t-1 10.5q0 13 -0.5 18.5t-0.5 8.5q-9 -54 -56.5 -91t-108.5 -37q-66 0 -105 33t-39 91q0 40 20.5 68.5t63.5 47.5q23 11 55 19.5t93 19.5l76 14v70q0 57 -27.5 90.5t-76.5 33.5
q-44 0 -68 -21t-24 -59q0 -26 12.5 -41t33.5 -15q4 0 7.5 1t7.5 2q-7 -23 -26 -36t-46 -13q-35 0 -57.5 21t-22.5 56q0 53 52.5 88.5t132.5 35.5q111 0 165.5 -42.5t54.5 -128.5v-46.5t-1 -69.5q-1 -39 -1 -58v-35q0 -46 15 -67.5t46 -21.5zM339 178l2 89l-59 -11
q-68 -14 -99 -43.5t-31 -80.5q0 -42 20 -64.5t56 -22.5q47 0 78.5 37.5t32.5 95.5zM421 547h-9q-38 16 -77.5 41t-71.5 52q-32 -27 -71.5 -52t-77.5 -41h-9q51 51 93.5 109t62.5 105h4q20 -47 62.5 -105t93.5 -109z" />
    <glyph glyph-name="atilde" unicode="&#xe3;" horiz-adv-x="532" 
d="M518 30q7 0 14 2t14 5v-2q-16 -20 -42.5 -31.5t-57.5 -11.5q-44 0 -70.5 23t-31.5 65v3.5t-1 10.5q0 13 -0.5 18.5t-0.5 8.5q-9 -54 -56.5 -91t-108.5 -37q-66 0 -105 33t-39 91q0 40 20.5 68.5t63.5 47.5q23 11 55 19.5t93 19.5l76 14v70q0 57 -27.5 90.5t-76.5 33.5
q-44 0 -68 -21t-24 -59q0 -26 12.5 -41t33.5 -15q4 0 7.5 1t7.5 2q-7 -23 -26 -36t-46 -13q-35 0 -57.5 21t-22.5 56q0 53 52.5 88.5t132.5 35.5q111 0 165.5 -42.5t54.5 -128.5v-46.5t-1 -69.5q-1 -39 -1 -58v-35q0 -46 15 -67.5t46 -21.5zM339 178l2 89l-59 -11
q-68 -14 -99 -43.5t-31 -80.5q0 -42 20 -64.5t56 -22.5q47 0 78.5 37.5t32.5 95.5zM437 724h8q-15 -71 -44 -109t-68 -38q-16 0 -33.5 6t-51.5 26q-29 17 -43.5 22.5t-26.5 5.5q-28 0 -50 -16t-37 -49h-8q15 71 44 109t68 38q16 0 33.5 -6t51.5 -26q29 -17 43.5 -22.5
t26.5 -5.5q28 0 50 16.5t37 48.5z" />
    <glyph glyph-name="adieresis" unicode="&#xe4;" horiz-adv-x="532" 
d="M518 30q7 0 14 2t14 5v-2q-16 -20 -42.5 -31.5t-57.5 -11.5q-44 0 -70.5 23t-31.5 65v3.5t-1 10.5q0 13 -0.5 18.5t-0.5 8.5q-9 -54 -56.5 -91t-108.5 -37q-66 0 -105 33t-39 91q0 40 20.5 68.5t63.5 47.5q23 11 55 19.5t93 19.5l76 14v70q0 57 -27.5 90.5t-76.5 33.5
q-44 0 -68 -21t-24 -59q0 -26 12.5 -41t33.5 -15q4 0 7.5 1t7.5 2q-7 -23 -26 -36t-46 -13q-35 0 -57.5 21t-22.5 56q0 53 52.5 88.5t132.5 35.5q111 0 165.5 -42.5t54.5 -128.5v-46.5t-1 -69.5q-1 -39 -1 -58v-35q0 -46 15 -67.5t46 -21.5zM339 178l2 89l-59 -11
q-68 -14 -99 -43.5t-31 -80.5q0 -42 20 -64.5t56 -22.5q47 0 78.5 37.5t32.5 95.5zM236 640q0 -28 -20 -48t-48 -20t-47.5 19.5t-19.5 48.5t19.5 49t47.5 20t48 -20.5t20 -48.5zM425 640q0 -28 -19.5 -48t-47.5 -20t-48.5 20t-20.5 48t20.5 48.5t48.5 20.5q27 0 47 -20.5
t20 -48.5z" />
    <glyph glyph-name="aring" unicode="&#xe5;" horiz-adv-x="532" 
d="M518 30q7 0 14 2t14 5v-2q-16 -20 -42.5 -31.5t-57.5 -11.5q-44 0 -70.5 23t-31.5 65v3.5t-1 10.5q0 13 -0.5 18.5t-0.5 8.5q-9 -54 -56.5 -91t-108.5 -37q-66 0 -105 33t-39 91q0 40 20.5 68.5t63.5 47.5q23 11 55 19.5t93 19.5l76 14v70q0 57 -27.5 90.5t-76.5 33.5
q-44 0 -68 -21t-24 -59q0 -26 12.5 -41t33.5 -15q4 0 7.5 1t7.5 2q-7 -23 -26 -36t-46 -13q-35 0 -57.5 21t-22.5 56q0 53 52.5 88.5t132.5 35.5q111 0 165.5 -42.5t54.5 -128.5v-46.5t-1 -69.5q-1 -39 -1 -58v-35q0 -46 15 -67.5t46 -21.5zM339 178l2 89l-59 -11
q-68 -14 -99 -43.5t-31 -80.5q0 -42 20 -64.5t56 -22.5q47 0 78.5 37.5t32.5 95.5zM163 660q0 40 29.5 69t70.5 29t70.5 -29t29.5 -69q0 -41 -29.5 -70t-70.5 -29t-70.5 29t-29.5 70zM189 660q0 -30 22 -51.5t52 -21.5t52 21.5t22 51.5q0 29 -22 50.5t-52 21.5t-52 -21.5
t-22 -50.5z" />
    <glyph glyph-name="ae" unicode="&#xe6;" horiz-adv-x="826" 
d="M792 160l6 -3q-16 -79 -72.5 -123t-141.5 -44q-78 0 -137.5 39t-85.5 107q-16 -63 -66 -103t-118 -40q-66 0 -105 33t-39 91q0 40 20.5 68t63.5 46q22 9 51.5 17t96.5 20l76 14v74q0 57 -27.5 90.5t-76.5 33.5q-44 0 -68 -21t-24 -59q0 -26 12.5 -41t33.5 -15q4 0 7.5 1
t7.5 2q-7 -23 -26 -36t-46 -13q-35 0 -57.5 21t-22.5 56q0 53 52.5 88.5t132.5 35.5q61 0 103.5 -20.5t63.5 -60.5q34 39 80 60t96 21q104 0 160 -61.5t56 -172.5h-340q0 -99 47 -158.5t126 -59.5q57 0 98.5 29t62.5 84zM581 480q-50 0 -84 -54t-38 -140h220
q0 104 -23.5 149t-74.5 45zM341 185v78l-59 -11q-70 -14 -100 -42t-30 -78q0 -42 20 -64.5t56 -22.5q51 0 82 38t31 102z" />
    <glyph glyph-name="ccedilla" unicode="&#xe7;" horiz-adv-x="495" 
d="M388 399q0 38 -25 59.5t-71 21.5q-63 0 -101.5 -61t-38.5 -160q0 -97 45 -155t118 -58q57 0 98.5 29.5t62.5 84.5l6 -3q-16 -79 -72.5 -123t-140.5 -44q-102 0 -171.5 68.5t-69.5 176.5q0 117 74.5 190.5t189.5 73.5q78 0 128.5 -35.5t50.5 -89.5q0 -36 -22.5 -58
t-57.5 -22q-29 0 -48.5 14.5t-20.5 35.5q4 -1 9 -2t9 -1q23 0 35.5 15.5t12.5 42.5zM265 -223q-39 0 -70 17t-44 44l8 9q14 -20 34 -30.5t44 -10.5q26 0 41 15.5t15 42.5q0 29 -19.5 42.5t-66.5 15.5l46 87h17l-34 -69q65 1 104 -20t39 -59t-32 -61t-82 -23z" />
    <glyph glyph-name="egrave" unicode="&#xe8;" horiz-adv-x="514" 
d="M28 244q0 110 70 182.5t172 72.5q104 0 160 -61.5t56 -172.5h-340q0 -99 47 -158.5t127 -59.5q56 0 98 29.5t62 83.5l7 -3q-16 -79 -73 -123t-142 -44q-107 0 -175.5 70t-68.5 184zM269 480q-50 0 -84 -54t-37 -140h220q0 103 -24 148.5t-75 45.5zM135 749h124
q5 -51 20 -97t43 -96h-4q-63 44 -108 91.5t-75 101.5z" />
    <glyph glyph-name="eacute" unicode="&#xe9;" horiz-adv-x="514" 
d="M274 749h124q-31 -55 -76 -102t-107 -91h-4q29 51 44 97.5t19 95.5zM28 244q0 110 70 182.5t172 72.5q104 0 160 -61.5t56 -172.5h-340q0 -99 47 -158.5t127 -59.5q56 0 98 29.5t62 83.5l7 -3q-16 -79 -73 -123t-142 -44q-107 0 -175.5 70t-68.5 184zM269 480
q-50 0 -84 -54t-37 -140h220q0 103 -24 148.5t-75 45.5z" />
    <glyph glyph-name="ecircumflex" unicode="&#xea;" horiz-adv-x="514" 
d="M434 547h-9q-38 16 -77.5 41t-71.5 52q-32 -27 -71.5 -52t-77.5 -41h-9q51 51 93.5 109t62.5 105h4q20 -47 62.5 -105t93.5 -109zM28 244q0 110 70 182.5t172 72.5q104 0 160 -61.5t56 -172.5h-340q0 -99 47 -158.5t127 -59.5q56 0 98 29.5t62 83.5l7 -3
q-16 -79 -73 -123t-142 -44q-107 0 -175.5 70t-68.5 184zM269 480q-50 0 -84 -54t-37 -140h220q0 103 -24 148.5t-75 45.5z" />
    <glyph glyph-name="edieresis" unicode="&#xeb;" horiz-adv-x="514" 
d="M249 640q0 -28 -20 -48t-48 -20t-47.5 19.5t-19.5 48.5t19.5 49t47.5 20t48 -20.5t20 -48.5zM438 640q0 -28 -19.5 -48t-47.5 -20t-48.5 20t-20.5 48t20.5 48.5t48.5 20.5q27 0 47 -20.5t20 -48.5zM28 244q0 110 70 182.5t172 72.5q104 0 160 -61.5t56 -172.5h-340
q0 -99 47 -158.5t127 -59.5q56 0 98 29.5t62 83.5l7 -3q-16 -79 -73 -123t-142 -44q-107 0 -175.5 70t-68.5 184zM269 480q-50 0 -84 -54t-37 -140h220q0 103 -24 148.5t-75 45.5z" />
    <glyph glyph-name="igrave" unicode="&#xec;" horiz-adv-x="275" 
d="M24 489h175v-380q0 -52 10.5 -71.5t43.5 -35.5v-2h-224v2q33 16 43.5 35.5t10.5 71.5v270q0 48 -12.5 70t-46.5 38v2zM-3 749h124q5 -51 20 -97t43 -96h-4q-63 44 -108 91.5t-75 101.5z" />
    <glyph glyph-name="iacute" unicode="&#xed;" horiz-adv-x="275" 
d="M136 749h124q-31 -55 -76 -102t-107 -91h-4q29 51 44 97.5t19 95.5zM24 489h175v-380q0 -52 10.5 -71.5t43.5 -35.5v-2h-224v2q33 16 43.5 35.5t10.5 71.5v270q0 48 -12.5 70t-46.5 38v2z" />
    <glyph glyph-name="icircumflex" unicode="&#xee;" horiz-adv-x="275" 
d="M296 547h-9q-38 16 -77.5 41t-71.5 52q-32 -27 -71.5 -52t-77.5 -41h-9q51 51 93.5 109t62.5 105h4q20 -47 62.5 -105t93.5 -109zM24 489h175v-380q0 -52 10.5 -71.5t43.5 -35.5v-2h-224v2q33 16 43.5 35.5t10.5 71.5v270q0 48 -12.5 70t-46.5 38v2z" />
    <glyph glyph-name="idieresis" unicode="&#xef;" horiz-adv-x="275" 
d="M111 640q0 -28 -20 -48t-48 -20t-47.5 19.5t-19.5 48.5t19.5 49t47.5 20t48 -20.5t20 -48.5zM300 640q0 -28 -19.5 -48t-47.5 -20t-48.5 20t-20.5 48t20.5 48.5t48.5 20.5q27 0 47 -20.5t20 -48.5zM24 489h175v-380q0 -52 10.5 -71.5t43.5 -35.5v-2h-224v2
q33 16 43.5 35.5t10.5 71.5v270q0 48 -12.5 70t-46.5 38v2z" />
    <glyph glyph-name="eth" unicode="&#xf0;" horiz-adv-x="563" 
d="M535 278q0 -130 -70.5 -209t-183.5 -79q-109 0 -181 72t-72 182q0 111 71.5 183t180.5 72q34 0 66 -13.5t49 -35.5q-6 47 -30 96.5t-61 89.5l-143 -65l-10 23l134 61q-37 35 -81.5 59t-95.5 36l1 9q63 -8 119 -29t105 -54l103 47l10 -22l-90 -41q86 -66 132.5 -165
t46.5 -217zM154 244q0 -108 34 -171.5t93 -63.5q60 0 94 63.5t34 171.5q0 109 -34 172.5t-94 63.5q-59 0 -93 -63.5t-34 -172.5z" />
    <glyph glyph-name="ntilde" unicode="&#xf1;" horiz-adv-x="606" 
d="M24 487v2h175v-136q20 69 66 107.5t109 38.5q73 0 115 -46.5t42 -127.5v-216q0 -52 10.5 -71.5t43.5 -35.5v-2h-224v2q33 16 43.5 35.5t10.5 71.5v212q0 56 -24.5 86.5t-69.5 30.5q-55 0 -88.5 -47t-33.5 -125v-157q0 -52 10.5 -71.5t43.5 -35.5v-2h-224v2
q33 16 43.5 35.5t10.5 71.5v270q0 48 -12.5 70t-46.5 38zM486 724h8q-15 -71 -44 -109t-68 -38q-16 0 -33.5 6t-51.5 26q-29 17 -43.5 22.5t-26.5 5.5q-28 0 -50 -16t-37 -49h-8q15 71 44 109t68 38q16 0 33.5 -6t51.5 -26q29 -17 43.5 -22.5t26.5 -5.5q28 0 50 16.5
t37 48.5z" />
    <glyph glyph-name="ograve" unicode="&#xf2;" horiz-adv-x="564" 
d="M536 244q0 -111 -72 -182.5t-182 -71.5t-182 72t-72 182q0 111 72 183t182 72t182 -72t72 -183zM155 244q0 -109 34 -172t93 -63t93 63t34 172q0 110 -34 173t-93 63t-93 -63t-34 -173zM141 749h124q5 -51 20 -97t43 -96h-4q-63 44 -108 91.5t-75 101.5z" />
    <glyph glyph-name="oacute" unicode="&#xf3;" horiz-adv-x="564" 
d="M280 749h124q-31 -55 -76 -102t-107 -91h-4q29 51 44 97.5t19 95.5zM536 244q0 -111 -72 -182.5t-182 -71.5t-182 72t-72 182q0 111 72 183t182 72t182 -72t72 -183zM155 244q0 -109 34 -172t93 -63t93 63t34 172q0 110 -34 173t-93 63t-93 -63t-34 -173z" />
    <glyph glyph-name="ocircumflex" unicode="&#xf4;" horiz-adv-x="564" 
d="M440 547h-9q-38 16 -77.5 41t-71.5 52q-32 -27 -71.5 -52t-77.5 -41h-9q51 51 93.5 109t62.5 105h4q20 -47 62.5 -105t93.5 -109zM536 244q0 -111 -72 -182.5t-182 -71.5t-182 72t-72 182q0 111 72 183t182 72t182 -72t72 -183zM155 244q0 -109 34 -172t93 -63t93 63
t34 172q0 110 -34 173t-93 63t-93 -63t-34 -173z" />
    <glyph glyph-name="otilde" unicode="&#xf5;" horiz-adv-x="564" 
d="M536 244q0 -111 -72 -182.5t-182 -71.5t-182 72t-72 182q0 111 72 183t182 72t182 -72t72 -183zM155 244q0 -109 34 -172t93 -63t93 63t34 172q0 110 -34 173t-93 63t-93 -63t-34 -173zM457 724h8q-15 -71 -44 -109t-68 -38q-16 0 -33.5 6t-51.5 26q-29 17 -43.5 22.5
t-26.5 5.5q-28 0 -50 -16t-37 -49h-8q15 71 44 109t68 38q16 0 33.5 -6t51.5 -26q29 -17 43.5 -22.5t26.5 -5.5q28 0 50 16.5t37 48.5z" />
    <glyph glyph-name="odieresis" unicode="&#xf6;" horiz-adv-x="564" 
d="M255 640q0 -28 -20 -48t-48 -20t-47.5 19.5t-19.5 48.5t19.5 49t47.5 20t48 -20.5t20 -48.5zM444 640q0 -28 -19.5 -48t-47.5 -20t-48.5 20t-20.5 48t20.5 48.5t48.5 20.5q27 0 47 -20.5t20 -48.5zM536 244q0 -111 -72 -182.5t-182 -71.5t-182 72t-72 182q0 111 72 183
t182 72t182 -72t72 -183zM155 244q0 -109 34 -172t93 -63t93 63t34 172q0 110 -34 173t-93 63t-93 -63t-34 -173z" />
    <glyph glyph-name="divide" unicode="&#xf7;" horiz-adv-x="479" 
d="M239 454q-13 0 -22.5 9.5t-9.5 23.5t9.5 23t22.5 9q14 0 23.5 -9.5t9.5 -22.5t-9.5 -23t-23.5 -10zM435 308h-391v28h391v-28zM239 125q-13 0 -22.5 9.5t-9.5 22.5q0 14 9 23.5t23 9.5t23.5 -9.5t9.5 -23.5q0 -13 -10 -22.5t-23 -9.5z" />
    <glyph glyph-name="oslash" unicode="&#xf8;" horiz-adv-x="564" 
d="M282 480q-59 0 -93 -63t-34 -173q0 -32 3 -61t9 -53l226 242q-15 52 -43.5 80t-67.5 28zM282 9q59 0 93 63t34 172q0 28 -2 52.5t-7 47.5l-225 -240q17 -46 44 -70.5t63 -24.5zM536 244q0 -111 -72 -182.5t-182 -71.5q-46 0 -87.5 14t-74.5 40l-55 -58l-18 15l55 59
q-36 35 -55 82.5t-19 101.5q0 111 72 183t182 72q49 0 93 -16t79 -46l56 60l18 -16l-57 -61q32 -35 48.5 -80t16.5 -96z" />
    <glyph glyph-name="ugrave" unicode="&#xf9;" horiz-adv-x="591" 
d="M275 52q55 0 90 47t35 124v156q0 47 -12.5 69.5t-46.5 38.5v2h175v-388q0 -41 13 -62t53 -37v-2h-182v141q-18 -71 -65 -111t-113 -40q-71 0 -112.5 46.5t-41.5 127.5v215q0 48 -12.5 70t-46.5 38v2h175v-319q0 -54 24 -86t67 -32zM155 749h124q5 -51 20 -97t43 -96h-4
q-63 44 -108 91.5t-75 101.5z" />
    <glyph glyph-name="uacute" unicode="&#xfa;" horiz-adv-x="591" 
d="M294 749h124q-31 -55 -76 -102t-107 -91h-4q29 51 44 97.5t19 95.5zM275 52q55 0 90 47t35 124v156q0 47 -12.5 69.5t-46.5 38.5v2h175v-388q0 -41 13 -62t53 -37v-2h-182v141q-18 -71 -65 -111t-113 -40q-71 0 -112.5 46.5t-41.5 127.5v215q0 48 -12.5 70t-46.5 38v2
h175v-319q0 -54 24 -86t67 -32z" />
    <glyph glyph-name="ucircumflex" unicode="&#xfb;" horiz-adv-x="591" 
d="M454 547h-9q-38 16 -77.5 41t-71.5 52q-32 -27 -71.5 -52t-77.5 -41h-9q51 51 93.5 109t62.5 105h4q20 -47 62.5 -105t93.5 -109zM275 52q55 0 90 47t35 124v156q0 47 -12.5 69.5t-46.5 38.5v2h175v-388q0 -41 13 -62t53 -37v-2h-182v141q-18 -71 -65 -111t-113 -40
q-71 0 -112.5 46.5t-41.5 127.5v215q0 48 -12.5 70t-46.5 38v2h175v-319q0 -54 24 -86t67 -32z" />
    <glyph glyph-name="udieresis" unicode="&#xfc;" horiz-adv-x="591" 
d="M269 640q0 -28 -20 -48t-48 -20t-47.5 19.5t-19.5 48.5t19.5 49t47.5 20t48 -20.5t20 -48.5zM458 640q0 -28 -19.5 -48t-47.5 -20t-48.5 20t-20.5 48t20.5 48.5t48.5 20.5q27 0 47 -20.5t20 -48.5zM275 52q55 0 90 47t35 124v156q0 47 -12.5 69.5t-46.5 38.5v2h175v-388
q0 -41 13 -62t53 -37v-2h-182v141q-18 -71 -65 -111t-113 -40q-71 0 -112.5 46.5t-41.5 127.5v215q0 48 -12.5 70t-46.5 38v2h175v-319q0 -54 24 -86t67 -32z" />
    <glyph glyph-name="yacute" unicode="&#xfd;" horiz-adv-x="519" 
d="M130 -181q27 0 47 20.5t44 74.5l36 81l-188 386q-24 50 -37 68.5t-38 37.5v2h209v-2q-17 -8 -23.5 -18t-6.5 -27q0 -11 4.5 -27.5t12.5 -32.5l121 -256l106 249q5 13 8 26t3 24q0 22 -11 38t-32 24v2h140v-2q-26 -19 -41.5 -41.5t-37.5 -73.5l-203 -472
q-31 -71 -65.5 -102t-80.5 -31q-43 0 -69.5 22.5t-26.5 60.5q0 33 21 53.5t53 20.5q10 0 18 -1.5t16 -5.5q-15 -6 -22.5 -17.5t-7.5 -29.5q0 -23 14 -37t37 -14zM279 749h124q-31 -55 -76 -102t-107 -91h-4q29 51 44 97.5t19 95.5z" />
    <glyph glyph-name="thorn" unicode="&#xfe;" horiz-adv-x="618" 
d="M465 249q0 93 -36.5 145.5t-100.5 52.5q-54 0 -94 -46t-40 -115v-85q0 -71 40 -118.5t95 -47.5q64 0 100 57t36 157zM17 747v2h177v-392q16 63 64.5 102.5t112.5 39.5q96 0 157.5 -69.5t61.5 -180.5q0 -113 -63.5 -186t-159.5 -73q-63 0 -110 37t-63 98v-239
q0 -52 10.5 -71.5t43.5 -35.5v-2h-224v2q33 16 43.5 35.5t10.5 71.5v753q0 47 -13 70t-48 38z" />
    <glyph glyph-name="ydieresis" unicode="&#xff;" horiz-adv-x="519" 
d="M130 -181q27 0 47 20.5t44 74.5l36 81l-188 386q-24 50 -37 68.5t-38 37.5v2h209v-2q-17 -8 -23.5 -18t-6.5 -27q0 -11 4.5 -27.5t12.5 -32.5l121 -256l106 249q5 13 8 26t3 24q0 22 -11 38t-32 24v2h140v-2q-26 -19 -41.5 -41.5t-37.5 -73.5l-203 -472
q-31 -71 -65.5 -102t-80.5 -31q-43 0 -69.5 22.5t-26.5 60.5q0 33 21 53.5t53 20.5q10 0 18 -1.5t16 -5.5q-15 -6 -22.5 -17.5t-7.5 -29.5q0 -23 14 -37t37 -14zM254 640q0 -28 -20 -48t-48 -20t-47.5 19.5t-19.5 48.5t19.5 49t47.5 20t48 -20.5t20 -48.5zM443 640
q0 -28 -19.5 -48t-47.5 -20t-48.5 20t-20.5 48t20.5 48.5t48.5 20.5q27 0 47 -20.5t20 -48.5z" />
    <glyph glyph-name="Amacron" unicode="&#x100;" horiz-adv-x="713" 
d="M439 252l-134 294l-127 -294h261zM112 71q0 -22 13.5 -40.5t36.5 -28.5v-2h-163v2q26 14 47.5 43t46.5 86l258 579h4l277 -598q28 -59 43 -78t38 -32v-2h-241v2q23 10 34 23.5t11 30.5q0 12 -4 26t-12 33l-50 110h-285l-38 -89q-8 -18 -12 -34t-4 -31zM497 817v-36h-286
v36h286z" />
    <glyph glyph-name="amacron" unicode="&#x101;" horiz-adv-x="532" 
d="M518 30q7 0 14 2t14 5v-2q-16 -20 -42.5 -31.5t-57.5 -11.5q-44 0 -70.5 23t-31.5 65v3.5t-1 10.5q0 13 -0.5 18.5t-0.5 8.5q-9 -54 -56.5 -91t-108.5 -37q-66 0 -105 33t-39 91q0 40 20.5 68.5t63.5 47.5q23 11 55 19.5t93 19.5l76 14v70q0 57 -27.5 90.5t-76.5 33.5
q-44 0 -68 -21t-24 -59q0 -26 12.5 -41t33.5 -15q4 0 7.5 1t7.5 2q-7 -23 -26 -36t-46 -13q-35 0 -57.5 21t-22.5 56q0 53 52.5 88.5t132.5 35.5q111 0 165.5 -42.5t54.5 -128.5v-46.5t-1 -69.5q-1 -39 -1 -58v-35q0 -46 15 -67.5t46 -21.5zM339 178l2 89l-59 -11
q-68 -14 -99 -43.5t-31 -80.5q0 -42 20 -64.5t56 -22.5q47 0 78.5 37.5t32.5 95.5zM406 635v-36h-286v36h286z" />
    <glyph glyph-name="Abreve" unicode="&#x102;" horiz-adv-x="713" 
d="M439 252l-134 294l-127 -294h261zM112 71q0 -22 13.5 -40.5t36.5 -28.5v-2h-163v2q26 14 47.5 43t46.5 86l258 579h4l277 -598q28 -59 43 -78t38 -32v-2h-241v2q23 10 34 23.5t11 30.5q0 12 -4 26t-12 33l-50 110h-285l-38 -89q-8 -18 -12 -34t-4 -31zM492 923h7
q-1 -77 -40.5 -124t-103.5 -47q-65 0 -104.5 46.5t-40.5 124.5h7q5 -41 44.5 -65t93.5 -24t93 24.5t44 64.5z" />
    <glyph glyph-name="abreve" unicode="&#x103;" horiz-adv-x="532" 
d="M518 30q7 0 14 2t14 5v-2q-16 -20 -42.5 -31.5t-57.5 -11.5q-44 0 -70.5 23t-31.5 65v3.5t-1 10.5q0 13 -0.5 18.5t-0.5 8.5q-9 -54 -56.5 -91t-108.5 -37q-66 0 -105 33t-39 91q0 40 20.5 68.5t63.5 47.5q23 11 55 19.5t93 19.5l76 14v70q0 57 -27.5 90.5t-76.5 33.5
q-44 0 -68 -21t-24 -59q0 -26 12.5 -41t33.5 -15q4 0 7.5 1t7.5 2q-7 -23 -26 -36t-46 -13q-35 0 -57.5 21t-22.5 56q0 53 52.5 88.5t132.5 35.5q111 0 165.5 -42.5t54.5 -128.5v-46.5t-1 -69.5q-1 -39 -1 -58v-35q0 -46 15 -67.5t46 -21.5zM339 178l2 89l-59 -11
q-68 -14 -99 -43.5t-31 -80.5q0 -42 20 -64.5t56 -22.5q47 0 78.5 37.5t32.5 95.5zM400 747h7q-1 -83 -40 -133t-104 -50t-104 50t-40 133h7q5 -46 43.5 -72.5t93.5 -26.5t93.5 26.5t43.5 72.5z" />
    <glyph glyph-name="Aogonek" unicode="&#x104;" horiz-adv-x="713" 
d="M569 -134l3 -2q-21 -51 -56.5 -76.5t-84.5 -25.5q-41 0 -69.5 25t-28.5 63q0 27 13.5 51t41.5 47q13 11 30.5 22.5t68.5 40.5q15 8 22.5 19t7.5 26q0 12 -4 26t-12 33l-50 110h-284l-39 -89q-8 -18 -12 -34t-4 -31q0 -22 13.5 -40.5t36.5 -28.5v-2h-163v2q26 14 47.5 43
t46.5 86l258 579h4l277 -598q28 -59 43 -78t38 -32v-2h-223q-39 -31 -58 -62t-19 -62q0 -30 16 -46.5t46 -16.5q29 0 52.5 13t41.5 40zM438 252l-133 294l-127 -294h260z" />
    <glyph glyph-name="aogonek" unicode="&#x105;" horiz-adv-x="532" 
d="M407 -238q-41 0 -69.5 25t-28.5 63q0 39 36.5 73.5t118.5 69.5q-4 -1 -7.5 -1h-10.5q-44 0 -70.5 23t-31.5 65v3.5t-1 10.5q0 13 -0.5 18.5t-0.5 8.5q-9 -54 -56.5 -91t-108.5 -37q-66 0 -105 33t-39 91q0 40 20.5 68.5t63.5 47.5q23 11 55 19.5t93 19.5l76 14v70
q0 57 -27.5 90.5t-76.5 33.5q-44 0 -68 -21t-24 -59q0 -26 12.5 -41t33.5 -15q4 0 7.5 1t7.5 2q-7 -23 -26 -36t-46 -13q-35 0 -57.5 21t-22.5 56q0 53 52.5 88.5t132.5 35.5q111 0 165.5 -42.5t54.5 -128.5v-46.5t-1 -69.5q-1 -39 -1 -58v-35q0 -46 15 -67.5t46 -21.5
q7 0 14 2t14 5v-2q-6 -8 -17.5 -16t-38.5 -24q-61 -36 -81 -62t-20 -57q0 -30 16 -46.5t46 -16.5q29 0 52.5 13t41.5 40l3 -2q-21 -51 -56.5 -76.5t-84.5 -25.5zM339 178l2 89l-59 -11q-68 -14 -99 -43.5t-31 -80.5q0 -42 20 -64.5t56 -22.5q47 0 78.5 37.5t32.5 95.5z" />
    <glyph glyph-name="Cacute" unicode="&#x106;" horiz-adv-x="681" 
d="M563 676q17 0 31 6.5t35 27.5l7 -225h-2q-35 95 -96 148.5t-136 53.5q-107 0 -171 -90t-64 -236q0 -138 70.5 -224t178.5 -86q86 0 142.5 37.5t90.5 115.5l5 -2q-21 -99 -94.5 -155.5t-183.5 -56.5q-150 0 -246.5 100t-96.5 257q0 154 105 258.5t258 104.5q27 0 54 -4.5
t68 -18.5q21 -7 30 -9t15 -2zM388 920h131q-32 -50 -77 -92.5t-108 -81.5h-4q25 39 39 80t19 94z" />
    <glyph glyph-name="cacute" unicode="&#x107;" horiz-adv-x="495" 
d="M291 749h124q-31 -55 -76 -102t-107 -91h-4q29 51 44 97.5t19 95.5zM388 399q0 38 -25 59.5t-71 21.5q-63 0 -101.5 -61t-38.5 -160q0 -97 45 -155t118 -58q57 0 98.5 29.5t62.5 84.5l6 -3q-16 -79 -72.5 -123t-140.5 -44q-102 0 -171.5 68.5t-69.5 176.5
q0 117 74.5 190.5t189.5 73.5q78 0 128.5 -35.5t50.5 -89.5q0 -36 -22.5 -58t-57.5 -22q-29 0 -48.5 14.5t-20.5 35.5q4 -1 9 -2t9 -1q23 0 35.5 15.5t12.5 42.5z" />
    <glyph glyph-name="Ccircumflex" unicode="&#x108;" horiz-adv-x="681" 
d="M563 676q17 0 31 6.5t35 27.5l7 -225h-2q-35 95 -96 148.5t-136 53.5q-107 0 -171 -90t-64 -236q0 -138 70.5 -224t178.5 -86q86 0 142.5 37.5t90.5 115.5l5 -2q-21 -99 -94.5 -155.5t-183.5 -56.5q-150 0 -246.5 100t-96.5 257q0 154 105 258.5t258 104.5q27 0 54 -4.5
t68 -18.5q21 -7 30 -9t15 -2zM549 738h-9q-44 18 -83.5 40t-65.5 44q-26 -22 -65.5 -44t-83.5 -40h-9q49 46 92 101t64 100h4q21 -45 64 -100t92 -101z" />
    <glyph glyph-name="ccircumflex" unicode="&#x109;" horiz-adv-x="495" 
d="M451 547h-9q-38 16 -77.5 41t-71.5 52q-32 -27 -71.5 -52t-77.5 -41h-9q51 51 93.5 109t62.5 105h4q20 -47 62.5 -105t93.5 -109zM388 399q0 38 -25 59.5t-71 21.5q-63 0 -101.5 -61t-38.5 -160q0 -97 45 -155t118 -58q57 0 98.5 29.5t62.5 84.5l6 -3q-16 -79 -72.5 -123
t-140.5 -44q-102 0 -171.5 68.5t-69.5 176.5q0 117 74.5 190.5t189.5 73.5q78 0 128.5 -35.5t50.5 -89.5q0 -36 -22.5 -58t-57.5 -22q-29 0 -48.5 14.5t-20.5 35.5q4 -1 9 -2t9 -1q23 0 35.5 15.5t12.5 42.5z" />
    <glyph glyph-name="Cdotaccent" unicode="&#x10a;" horiz-adv-x="681" 
d="M391 762q-31 0 -53 21.5t-22 51.5q0 31 21.5 52t53.5 21t53.5 -21t21.5 -52q0 -30 -22 -51.5t-53 -21.5zM563 676q17 0 31 6.5t35 27.5l7 -225h-2q-35 95 -96 148.5t-136 53.5q-107 0 -171 -90t-64 -236q0 -138 70.5 -224t178.5 -86q86 0 142.5 37.5t90.5 115.5l5 -2
q-21 -99 -94.5 -155.5t-183.5 -56.5q-150 0 -246.5 100t-96.5 257q0 154 105 258.5t258 104.5q27 0 54 -4.5t68 -18.5q21 -7 30 -9t15 -2z" />
    <glyph glyph-name="cdotaccent" unicode="&#x10b;" horiz-adv-x="495" 
d="M388 399q0 38 -25 59.5t-71 21.5q-63 0 -101.5 -61t-38.5 -160q0 -97 45 -155t118 -58q57 0 98.5 29.5t62.5 84.5l6 -3q-16 -79 -72.5 -123t-140.5 -44q-102 0 -171.5 68.5t-69.5 176.5q0 117 74.5 190.5t189.5 73.5q78 0 128.5 -35.5t50.5 -89.5q0 -36 -22.5 -58
t-57.5 -22q-29 0 -48.5 14.5t-20.5 35.5q4 -1 9 -2t9 -1q23 0 35.5 15.5t12.5 42.5zM293 582q-31 0 -53 21t-22 51q0 31 21.5 52t53.5 21t53.5 -21t21.5 -52q0 -30 -22 -51t-53 -21z" />
    <glyph glyph-name="Ccaron" unicode="&#x10c;" horiz-adv-x="681" 
d="M563 676q17 0 31 6.5t35 27.5l7 -225h-2q-35 95 -96 148.5t-136 53.5q-107 0 -171 -90t-64 -236q0 -138 70.5 -224t178.5 -86q86 0 142.5 37.5t90.5 115.5l5 -2q-21 -99 -94.5 -155.5t-183.5 -56.5q-150 0 -246.5 100t-96.5 257q0 154 105 258.5t258 104.5q27 0 54 -4.5
t68 -18.5q21 -7 30 -9t15 -2zM233 940h9q44 -18 83.5 -40t65.5 -44q26 22 65.5 44t83.5 40h9q-49 -46 -92 -101t-64 -100h-4q-21 45 -64 100t-92 101z" />
    <glyph glyph-name="ccaron" unicode="&#x10d;" horiz-adv-x="495" 
d="M135 761h9q39 -17 79 -42t70 -51q30 26 70 51t79 42h9q-50 -50 -93 -108.5t-63 -105.5h-4q-20 47 -63 105.5t-93 108.5zM388 399q0 38 -25 59.5t-71 21.5q-63 0 -101.5 -61t-38.5 -160q0 -97 45 -155t118 -58q57 0 98.5 29.5t62.5 84.5l6 -3q-16 -79 -72.5 -123
t-140.5 -44q-102 0 -171.5 68.5t-69.5 176.5q0 117 74.5 190.5t189.5 73.5q78 0 128.5 -35.5t50.5 -89.5q0 -36 -22.5 -58t-57.5 -22q-29 0 -48.5 14.5t-20.5 35.5q4 -1 9 -2t9 -1q23 0 35.5 15.5t12.5 42.5z" />
    <glyph glyph-name="Dcaron" unicode="&#x10e;" horiz-adv-x="748" 
d="M185 940h9q44 -18 83.5 -40t65.5 -44q26 22 65.5 44t83.5 40h9q-49 -46 -92 -101t-64 -100h-4q-21 45 -64 100t-92 101zM319 0h-280v2q32 15 44.5 41.5t12.5 82.5v448q0 56 -12.5 82.5t-44.5 41.5v2h261q194 0 304.5 -91t110.5 -253q0 -166 -107.5 -261t-288.5 -95z
M216 674v-648h87q134 0 208 85.5t74 244.5q0 149 -79 233.5t-215 84.5h-75z" />
    <glyph glyph-name="dcaron" unicode="&#x10f;" horiz-adv-x="620" 
d="M620 749h105q-11 -52 -45.5 -113t-73.5 -98h-3q12 45 16.5 100.5t0.5 110.5zM153 240q0 -93 36.5 -145.5t100.5 -52.5q55 0 94.5 46t39.5 114v86q0 71 -40 118.5t-95 47.5q-63 0 -99.5 -57t-36.5 -157zM251 499q63 0 110 -37t63 -98v275q0 47 -13 70t-48 38v2h177v-640
q0 -47 12.5 -69t45.5 -38v-2h-174v132q-17 -64 -65 -103t-112 -39q-96 0 -157.5 69.5t-61.5 180.5q0 113 63.5 186t159.5 73z" />
    <glyph glyph-name="Dcroat" unicode="&#x110;" horiz-adv-x="748" 
d="M715 356q0 -166 -107.5 -261t-288.5 -95h-280v2q32 15 44.5 41.5t12.5 82.5v218h-57v28h57v202q0 56 -12.5 82.5t-44.5 41.5v2h261q194 0 304.5 -91t110.5 -253zM216 344v-318h87q134 0 208 85.5t74 244.5q0 149 -79 233.5t-215 84.5h-75v-302h138v-28h-138z" />
    <glyph glyph-name="dcroat" unicode="&#x111;" horiz-adv-x="621" 
d="M153 240q0 -93 36.5 -145.5t100.5 -52.5q55 0 94.5 46t39.5 114v86q0 71 -40 118.5t-95 47.5q-63 0 -99.5 -57t-36.5 -157zM424 0v132q-17 -64 -65 -103t-112 -39q-96 0 -157.5 69.5t-61.5 180.5q0 113 63.5 186t159.5 73q63 0 110 -37t63 -98v212h-121v26h121v37
q0 47 -13 70t-48 38v2h177v-147h60v-26h-60v-467q0 -47 12.5 -69t45.5 -38v-2h-174z" />
    <glyph glyph-name="Emacron" unicode="&#x112;" horiz-adv-x="648" 
d="M473 817v-36h-286v36h286zM39 698v2h466q23 0 35.5 2t19.5 6l34 -180h-2q-46 82 -96.5 114t-128.5 32h-151v-304h126q62 0 89.5 22t51.5 90h2v-238h-2q-22 61 -46.5 80.5t-94.5 19.5h-126v-318h170q79 0 133 37t101 127h2l-32 -190h-551v2q32 15 44.5 41.5t12.5 82.5v448
q0 56 -12.5 82.5t-44.5 41.5z" />
    <glyph glyph-name="emacron" unicode="&#x113;" horiz-adv-x="514" 
d="M28 244q0 110 70 182.5t172 72.5q104 0 160 -61.5t56 -172.5h-340q0 -99 47 -158.5t127 -59.5q56 0 98 29.5t62 83.5l7 -3q-16 -79 -73 -123t-142 -44q-107 0 -175.5 70t-68.5 184zM269 480q-50 0 -84 -54t-37 -140h220q0 103 -24 148.5t-75 45.5zM419 635v-36h-286v36
h286z" />
    <glyph glyph-name="Ebreve" unicode="&#x114;" horiz-adv-x="648" 
d="M468 923h7q-1 -77 -40.5 -124t-103.5 -47q-65 0 -104.5 46.5t-40.5 124.5h7q5 -41 44.5 -65t93.5 -24t93 24.5t44 64.5zM39 698v2h466q23 0 35.5 2t19.5 6l34 -180h-2q-46 82 -96.5 114t-128.5 32h-151v-304h126q62 0 89.5 22t51.5 90h2v-238h-2q-22 61 -46.5 80.5
t-94.5 19.5h-126v-318h170q79 0 133 37t101 127h2l-32 -190h-551v2q32 15 44.5 41.5t12.5 82.5v448q0 56 -12.5 82.5t-44.5 41.5z" />
    <glyph glyph-name="ebreve" unicode="&#x115;" horiz-adv-x="514" 
d="M28 244q0 110 70 182.5t172 72.5q104 0 160 -61.5t56 -172.5h-340q0 -99 47 -158.5t127 -59.5q56 0 98 29.5t62 83.5l7 -3q-16 -79 -73 -123t-142 -44q-107 0 -175.5 70t-68.5 184zM269 480q-50 0 -84 -54t-37 -140h220q0 103 -24 148.5t-75 45.5zM413 747h7
q-1 -83 -40 -133t-104 -50t-104 50t-40 133h7q5 -46 43.5 -72.5t93.5 -26.5t93.5 26.5t43.5 72.5z" />
    <glyph glyph-name="Edotaccent" unicode="&#x116;" horiz-adv-x="648" 
d="M332 761q-31 0 -53 21.5t-22 51.5q0 31 21.5 52t53.5 21t53.5 -21t21.5 -52q0 -30 -22 -51.5t-53 -21.5zM39 698v2h466q23 0 35.5 2t19.5 6l34 -180h-2q-46 82 -96.5 114t-128.5 32h-151v-304h126q62 0 89.5 22t51.5 90h2v-238h-2q-22 61 -46.5 80.5t-94.5 19.5h-126
v-318h170q79 0 133 37t101 127h2l-32 -190h-551v2q32 15 44.5 41.5t12.5 82.5v448q0 56 -12.5 82.5t-44.5 41.5z" />
    <glyph glyph-name="edotaccent" unicode="&#x117;" horiz-adv-x="514" 
d="M28 244q0 110 70 182.5t172 72.5q104 0 160 -61.5t56 -172.5h-340q0 -99 47 -158.5t127 -59.5q56 0 98 29.5t62 83.5l7 -3q-16 -79 -73 -123t-142 -44q-107 0 -175.5 70t-68.5 184zM269 480q-50 0 -84 -54t-37 -140h220q0 103 -24 148.5t-75 45.5zM276 582q-31 0 -53 21
t-22 51q0 31 21.5 52t53.5 21t53.5 -21t21.5 -52q0 -30 -22 -51t-53 -21z" />
    <glyph glyph-name="Eogonek" unicode="&#x118;" horiz-adv-x="648" 
d="M431 -238q-42 0 -70 24.5t-28 63.5q0 40 31 75.5t138 93.5l4 -7q-46 -33 -70 -67.5t-24 -68.5q0 -30 16.5 -46.5t45.5 -16.5q30 0 52.5 13t41.5 40l3 -2q-20 -51 -55 -76.5t-85 -25.5zM39 698v2h466q23 0 35.5 2t19.5 6l34 -180h-2q-46 82 -96.5 114t-128.5 32h-151v-304
h126q62 0 89.5 22t51.5 90h2v-238h-2q-22 61 -46.5 80.5t-94.5 19.5h-126v-318h170q79 0 133 37t101 127h2l-32 -190h-551v2q32 15 44.5 41.5t12.5 82.5v448q0 56 -12.5 82.5t-44.5 41.5z" />
    <glyph glyph-name="eogonek" unicode="&#x119;" horiz-adv-x="514" 
d="M301 -238q-41 0 -69 24.5t-28 63.5q0 37 30 71t104 76q-12 -3 -29.5 -5t-36.5 -2q-107 0 -175.5 70t-68.5 184q0 110 70 182.5t172 72.5q104 0 160 -61.5t56 -172.5h-340q0 -99 47 -158.5t127 -59.5q56 0 98 29.5t62 83.5l7 -3q-10 -44 -36 -79t-77 -71
q-48 -36 -69.5 -67t-21.5 -64q0 -30 16 -46.5t46 -16.5q29 0 52.5 13t41.5 40l3 -2q-21 -52 -56 -77t-85 -25zM269 480q-50 0 -84 -54t-37 -140h220q0 103 -24 148.5t-75 45.5z" />
    <glyph glyph-name="Ecaron" unicode="&#x11a;" horiz-adv-x="648" 
d="M172 940h9q44 -18 83.5 -40t65.5 -44q26 22 65.5 44t83.5 40h9q-49 -46 -92 -101t-64 -100h-4q-21 45 -64 100t-92 101zM39 698v2h466q23 0 35.5 2t19.5 6l34 -180h-2q-46 82 -96.5 114t-128.5 32h-151v-304h126q62 0 89.5 22t51.5 90h2v-238h-2q-22 61 -46.5 80.5
t-94.5 19.5h-126v-318h170q79 0 133 37t101 127h2l-32 -190h-551v2q32 15 44.5 41.5t12.5 82.5v448q0 56 -12.5 82.5t-44.5 41.5z" />
    <glyph glyph-name="ecaron" unicode="&#x11b;" horiz-adv-x="514" 
d="M118 761h9q39 -17 79 -42t70 -51q30 26 70 51t79 42h9q-50 -50 -93 -108.5t-63 -105.5h-4q-20 47 -63 105.5t-93 108.5zM28 244q0 110 70 182.5t172 72.5q104 0 160 -61.5t56 -172.5h-340q0 -99 47 -158.5t127 -59.5q56 0 98 29.5t62 83.5l7 -3q-16 -79 -73 -123
t-142 -44q-107 0 -175.5 70t-68.5 184zM269 480q-50 0 -84 -54t-37 -140h220q0 103 -24 148.5t-75 45.5z" />
    <glyph glyph-name="Gcircumflex" unicode="&#x11c;" horiz-adv-x="751" 
d="M404 687q-110 0 -173 -93t-63 -253q0 -142 62 -229.5t163 -87.5q76 0 120 41.5t44 113.5v24q0 56 -12.5 82.5t-44.5 41.5v2h232v-2q-32 -15 -44.5 -41.5t-12.5 -82.5v-213h-2l-82 119q-26 -53 -82.5 -86t-125.5 -33q-153 0 -251.5 99t-98.5 253q0 159 105 263.5
t261 104.5q27 0 54 -4.5t69 -18.5q21 -7 30 -9t16 -2q16 0 30 6.5t35 27.5l8 -225h-2q-37 95 -98.5 148.5t-136.5 53.5zM556 738h-9q-44 18 -83.5 40t-65.5 44q-26 -22 -65.5 -44t-83.5 -40h-9q49 46 92 101t64 100h4q21 -45 64 -100t92 -101z" />
    <glyph glyph-name="gcircumflex" unicode="&#x11d;" horiz-adv-x="558" 
d="M410 547h-9q-38 16 -77.5 41t-71.5 52q-32 -27 -71.5 -52t-77.5 -41h-9q51 51 93.5 109t62.5 105h4q20 -47 62.5 -105t93.5 -109zM341 335q0 70 -22.5 108.5t-64.5 38.5t-64.5 -38.5t-22.5 -108.5q0 -69 22.5 -107.5t64.5 -38.5t64.5 38.5t22.5 107.5zM537 -48
q0 -83 -82 -134t-209 -51q-106 0 -173.5 32.5t-67.5 88.5q0 40 36.5 66.5t101.5 32.5q-50 7 -79 34.5t-29 69.5q0 36 28 64.5t74 40.5q-42 22 -65 58.5t-23 80.5q0 73 55.5 118.5t149.5 45.5q50 0 91.5 -15t68.5 -44q27 45 49 61.5t47 16.5q33 0 52 -16.5t19 -45.5
q0 -33 -23.5 -51.5t-61.5 -18.5v2q8 6 12 14.5t4 21.5q0 17 -11 27t-29 10q-13 0 -26.5 -7.5t-24.5 -20.5q19 -20 28.5 -45t9.5 -53q0 -73 -56 -118t-149 -45q-29 0 -54.5 4t-48.5 13q-23 -8 -36.5 -22t-13.5 -31q0 -22 17 -33t52 -11h177q90 0 140 -36.5t50 -103.5z
M89 -107q0 -48 43.5 -77.5t112.5 -29.5q91 0 145.5 30.5t54.5 82.5q0 44 -27.5 65t-84.5 21h-127q-56 0 -86.5 -23.5t-30.5 -68.5z" />
    <glyph glyph-name="Gbreve" unicode="&#x11e;" horiz-adv-x="751" 
d="M536 924h7q-1 -77 -40.5 -124t-103.5 -47q-65 0 -104.5 46.5t-40.5 124.5h7q5 -41 44.5 -65t93.5 -24t93 24.5t44 64.5zM404 687q-110 0 -173 -93t-63 -253q0 -142 62 -229.5t163 -87.5q76 0 120 41.5t44 113.5v24q0 56 -12.5 82.5t-44.5 41.5v2h232v-2
q-32 -15 -44.5 -41.5t-12.5 -82.5v-213h-2l-82 119q-26 -53 -82.5 -86t-125.5 -33q-153 0 -251.5 99t-98.5 253q0 159 105 263.5t261 104.5q27 0 54 -4.5t69 -18.5q21 -7 30 -9t16 -2q16 0 30 6.5t35 27.5l8 -225h-2q-37 95 -98.5 148.5t-136.5 53.5z" />
    <glyph glyph-name="gbreve" unicode="&#x11f;" horiz-adv-x="558" 
d="M341 335q0 70 -22.5 108.5t-64.5 38.5t-64.5 -38.5t-22.5 -108.5q0 -69 22.5 -107.5t64.5 -38.5t64.5 38.5t22.5 107.5zM537 -48q0 -83 -82 -134t-209 -51q-106 0 -173.5 32.5t-67.5 88.5q0 40 36.5 66.5t101.5 32.5q-50 7 -79 34.5t-29 69.5q0 36 28 64.5t74 40.5
q-42 22 -65 58.5t-23 80.5q0 73 55.5 118.5t149.5 45.5q50 0 91.5 -15t68.5 -44q27 45 49 61.5t47 16.5q33 0 52 -16.5t19 -45.5q0 -33 -23.5 -51.5t-61.5 -18.5v2q8 6 12 14.5t4 21.5q0 17 -11 27t-29 10q-13 0 -26.5 -7.5t-24.5 -20.5q19 -20 28.5 -45t9.5 -53
q0 -73 -56 -118t-149 -45q-29 0 -54.5 4t-48.5 13q-23 -8 -36.5 -22t-13.5 -31q0 -22 17 -33t52 -11h177q90 0 140 -36.5t50 -103.5zM89 -107q0 -48 43.5 -77.5t112.5 -29.5q91 0 145.5 30.5t54.5 82.5q0 44 -27.5 65t-84.5 21h-127q-56 0 -86.5 -23.5t-30.5 -68.5zM392 747
h7q-1 -83 -40 -133t-104 -50t-104 50t-40 133h7q5 -46 43.5 -72.5t93.5 -26.5t93.5 26.5t43.5 72.5z" />
    <glyph glyph-name="Gdotaccent" unicode="&#x120;" horiz-adv-x="751" 
d="M398 762q-31 0 -53 21.5t-22 51.5q0 31 21.5 52t53.5 21t53.5 -21t21.5 -52q0 -30 -22 -51.5t-53 -21.5zM404 687q-110 0 -173 -93t-63 -253q0 -142 62 -229.5t163 -87.5q76 0 120 41.5t44 113.5v24q0 56 -12.5 82.5t-44.5 41.5v2h232v-2q-32 -15 -44.5 -41.5
t-12.5 -82.5v-213h-2l-82 119q-26 -53 -82.5 -86t-125.5 -33q-153 0 -251.5 99t-98.5 253q0 159 105 263.5t261 104.5q27 0 54 -4.5t69 -18.5q21 -7 30 -9t16 -2q16 0 30 6.5t35 27.5l8 -225h-2q-37 95 -98.5 148.5t-136.5 53.5z" />
    <glyph glyph-name="gdotaccent" unicode="&#x121;" horiz-adv-x="558" 
d="M341 335q0 70 -22.5 108.5t-64.5 38.5t-64.5 -38.5t-22.5 -108.5q0 -69 22.5 -107.5t64.5 -38.5t64.5 38.5t22.5 107.5zM537 -48q0 -83 -82 -134t-209 -51q-106 0 -173.5 32.5t-67.5 88.5q0 40 36.5 66.5t101.5 32.5q-50 7 -79 34.5t-29 69.5q0 36 28 64.5t74 40.5
q-42 22 -65 58.5t-23 80.5q0 73 55.5 118.5t149.5 45.5q50 0 91.5 -15t68.5 -44q27 45 49 61.5t47 16.5q33 0 52 -16.5t19 -45.5q0 -33 -23.5 -51.5t-61.5 -18.5v2q8 6 12 14.5t4 21.5q0 17 -11 27t-29 10q-13 0 -26.5 -7.5t-24.5 -20.5q19 -20 28.5 -45t9.5 -53
q0 -73 -56 -118t-149 -45q-29 0 -54.5 4t-48.5 13q-23 -8 -36.5 -22t-13.5 -31q0 -22 17 -33t52 -11h177q90 0 140 -36.5t50 -103.5zM89 -107q0 -48 43.5 -77.5t112.5 -29.5q91 0 145.5 30.5t54.5 82.5q0 44 -27.5 65t-84.5 21h-127q-56 0 -86.5 -23.5t-30.5 -68.5zM255 582
q-31 0 -53 21t-22 51q0 31 21.5 52t53.5 21t53.5 -21t21.5 -52q0 -30 -22 -51t-53 -21z" />
    <glyph glyph-name="Gcommaaccent" unicode="&#x122;" horiz-adv-x="751" 
d="M395 -51q36 0 58.5 -24.5t22.5 -64.5q0 -53 -41.5 -86t-111.5 -34v14q53 6 79 27t28 60q-7 -6 -19.5 -10t-24.5 -4q-24 0 -41.5 17.5t-17.5 41.5q0 27 19 45t49 18zM404 687q-110 0 -173 -93t-63 -253q0 -142 62 -229.5t163 -87.5q76 0 120 41.5t44 113.5v24
q0 56 -12.5 82.5t-44.5 41.5v2h232v-2q-32 -15 -44.5 -41.5t-12.5 -82.5v-213h-2l-82 119q-26 -53 -82.5 -86t-125.5 -33q-153 0 -251.5 99t-98.5 253q0 159 105 263.5t261 104.5q27 0 54 -4.5t69 -18.5q21 -7 30 -9t16 -2q16 0 30 6.5t35 27.5l8 -225h-2
q-37 95 -98.5 148.5t-136.5 53.5z" />
    <glyph glyph-name="gcommaaccent" unicode="&#x123;" horiz-adv-x="558" 
d="M258 559q-36 0 -58.5 24.5t-22.5 64.5q0 54 41.5 87t111.5 34v-14q-53 -6 -79 -27t-28 -60q7 6 19 9.5t25 3.5q24 0 41.5 -17t17.5 -41q0 -28 -19.5 -46t-48.5 -18zM341 335q0 70 -22.5 108.5t-64.5 38.5t-64.5 -38.5t-22.5 -108.5q0 -69 22.5 -107.5t64.5 -38.5
t64.5 38.5t22.5 107.5zM537 -48q0 -83 -82 -134t-209 -51q-106 0 -173.5 32.5t-67.5 88.5q0 40 36.5 66.5t101.5 32.5q-50 7 -79 34.5t-29 69.5q0 36 28 64.5t74 40.5q-42 22 -65 58.5t-23 80.5q0 73 55.5 118.5t149.5 45.5q50 0 91.5 -15t68.5 -44q27 45 49 61.5t47 16.5
q33 0 52 -16.5t19 -45.5q0 -33 -23.5 -51.5t-61.5 -18.5v2q8 6 12 14.5t4 21.5q0 17 -11 27t-29 10q-13 0 -26.5 -7.5t-24.5 -20.5q19 -20 28.5 -45t9.5 -53q0 -73 -56 -118t-149 -45q-29 0 -54.5 4t-48.5 13q-23 -8 -36.5 -22t-13.5 -31q0 -22 17 -33t52 -11h177
q90 0 140 -36.5t50 -103.5zM89 -107q0 -48 43.5 -77.5t112.5 -29.5q91 0 145.5 30.5t54.5 82.5q0 44 -27.5 65t-84.5 21h-127q-56 0 -86.5 -23.5t-30.5 -68.5z" />
    <glyph glyph-name="Hcircumflex" unicode="&#x124;" horiz-adv-x="803" 
d="M96 126v448q0 56 -12.5 82.5t-44.5 41.5v2h234v-2q-32 -15 -44.5 -41.5t-12.5 -82.5v-202h371v202q0 56 -12.5 82.5t-44.5 41.5v2h234v-2q-32 -15 -44.5 -41.5t-12.5 -82.5v-448q0 -56 12.5 -82.5t44.5 -41.5v-2h-234v2q32 15 44.5 41.5t12.5 82.5v218h-371v-218
q0 -56 12.5 -82.5t44.5 -41.5v-2h-234v2q32 15 44.5 41.5t12.5 82.5zM559 738h-9q-44 18 -83.5 40t-65.5 44q-26 -22 -65.5 -44t-83.5 -40h-9q49 46 92 101t64 100h4q21 -45 64 -100t92 -101z" />
    <glyph glyph-name="hcircumflex" unicode="&#x125;" horiz-adv-x="603" 
d="M19 747v2h177v-396q20 69 66 107.5t109 38.5q73 0 115 -46.5t42 -127.5v-216q0 -52 10.5 -71.5t43.5 -35.5v-2h-224v2q33 16 43.5 35.5t10.5 71.5v212q0 56 -24.5 86.5t-69.5 30.5q-55 0 -88.5 -47t-33.5 -125v-157q0 -52 10.5 -71.5t43.5 -35.5v-2h-224v2
q33 16 43.5 35.5t10.5 71.5v530q0 46 -13 69t-48 39zM460 780h-9q-44 18 -83.5 40t-65.5 44q-26 -22 -65.5 -44t-83.5 -40h-9q49 46 92 101t64 100h4q21 -45 64 -100t92 -101z" />
    <glyph glyph-name="Hbar" unicode="&#x126;" horiz-adv-x="803" 
d="M216 348h371v122h-371v-122zM273 2v-2h-234v2q32 15 44.5 41.5t12.5 82.5v344h-57v28h57v76q0 56 -12.5 82.5t-44.5 41.5v2h234v-2q-32 -15 -44.5 -41.5t-12.5 -82.5v-76h371v76q0 56 -12.5 82.5t-44.5 41.5v2h234v-2q-32 -15 -44.5 -41.5t-12.5 -82.5v-76h57v-28h-57
v-344q0 -56 12.5 -82.5t44.5 -41.5v-2h-234v2q32 15 44.5 41.5t12.5 82.5v194h-371v-194q0 -56 12.5 -82.5t44.5 -41.5z" />
    <glyph glyph-name="hbar" unicode="&#x127;" horiz-adv-x="604" 
d="M251 2v-2h-224v2q33 16 43.5 35.5t10.5 71.5v467h-61v26h61v37q0 46 -13 69t-48 39v2h177v-147h120v-26h-120v-223q20 69 66 107.5t109 38.5q73 0 115 -46.5t42 -127.5v-216q0 -52 10.5 -71.5t43.5 -35.5v-2h-224v2q33 16 43.5 35.5t10.5 71.5v212q0 56 -24.5 86.5
t-69.5 30.5q-55 0 -88.5 -47t-33.5 -125v-157q0 -52 10.5 -71.5t43.5 -35.5z" />
    <glyph glyph-name="Itilde" unicode="&#x128;" horiz-adv-x="312" 
d="M216 574v-448q0 -56 12.5 -82.5t44.5 -41.5v-2h-234v2q32 15 44.5 41.5t12.5 82.5v448q0 56 -12.5 82.5t-44.5 41.5v2h234v-2q-32 -15 -44.5 -41.5t-12.5 -82.5zM329 914h8q-15 -71 -44 -109t-68 -38q-16 0 -33.5 6t-51.5 26q-29 17 -43.5 22.5t-26.5 5.5q-28 0 -50 -16
t-37 -49h-8q15 71 44 109t68 38q16 0 33.5 -6t51.5 -26q29 -17 43.5 -22.5t26.5 -5.5q28 0 50 16.5t37 48.5z" />
    <glyph glyph-name="itilde" unicode="&#x129;" horiz-adv-x="275" 
d="M283 724h9q-10 -68 -35.5 -107.5t-60.5 -39.5q-13 0 -28 6t-44 25q-25 17 -37.5 22t-22.5 5q-25 0 -43.5 -16.5t-27.5 -46.5h-9q10 69 35.5 108t60.5 39q13 0 28 -6t44 -25q25 -17 37.5 -22t22.5 -5q25 0 43.5 16.5t27.5 46.5zM24 489h175v-380q0 -52 10.5 -71.5
t43.5 -35.5v-2h-224v2q33 16 43.5 35.5t10.5 71.5v270q0 48 -12.5 70t-46.5 38v2z" />
    <glyph glyph-name="Imacron" unicode="&#x12a;" horiz-adv-x="312" 
d="M216 574v-448q0 -56 12.5 -82.5t44.5 -41.5v-2h-234v2q32 15 44.5 41.5t12.5 82.5v448q0 56 -12.5 82.5t-44.5 41.5v2h234v-2q-32 -15 -44.5 -41.5t-12.5 -82.5zM299 817v-36h-286v36h286z" />
    <glyph glyph-name="imacron" unicode="&#x12b;" horiz-adv-x="275" 
d="M247 635v-36h-234v36h234zM24 489h175v-380q0 -52 10.5 -71.5t43.5 -35.5v-2h-224v2q33 16 43.5 35.5t10.5 71.5v270q0 48 -12.5 70t-46.5 38v2z" />
    <glyph glyph-name="Ibreve" unicode="&#x12c;" horiz-adv-x="312" 
d="M216 574v-448q0 -56 12.5 -82.5t44.5 -41.5v-2h-234v2q32 15 44.5 41.5t12.5 82.5v448q0 56 -12.5 82.5t-44.5 41.5v2h234v-2q-32 -15 -44.5 -41.5t-12.5 -82.5zM294 923h7q-1 -77 -40.5 -124t-103.5 -47q-65 0 -104.5 46.5t-40.5 124.5h7q5 -41 44.5 -65t93.5 -24
t93 24.5t44 64.5z" />
    <glyph glyph-name="ibreve" unicode="&#x12d;" horiz-adv-x="275" 
d="M136 563q-58 0 -92 49t-35 135h6q5 -46 38.5 -72.5t82.5 -26.5t83 26.5t38 72.5h7q-1 -86 -35 -135t-93 -49zM24 489h175v-380q0 -52 10.5 -71.5t43.5 -35.5v-2h-224v2q33 16 43.5 35.5t10.5 71.5v270q0 48 -12.5 70t-46.5 38v2z" />
    <glyph glyph-name="Iogonek" unicode="&#x12e;" horiz-adv-x="312" 
d="M216 574v-448q0 -56 12.5 -82.5t44.5 -41.5v-2h-234v2q32 15 44.5 41.5t12.5 82.5v448q0 56 -12.5 82.5t-44.5 41.5v2h234v-2q-32 -15 -44.5 -41.5t-12.5 -82.5zM134 -238q-42 0 -70 24.5t-28 63.5q0 40 31 75.5t138 93.5l4 -7q-46 -33 -70 -67.5t-24 -68.5
q0 -30 16.5 -46.5t45.5 -16.5q30 0 52.5 13t41.5 40l3 -2q-20 -51 -55 -76.5t-85 -25.5z" />
    <glyph glyph-name="iogonek" unicode="&#x12f;" horiz-adv-x="275" 
d="M136 583q-32 0 -53 20.5t-21 51.5t21 51.5t53 20.5t53.5 -20.5t21.5 -51.5t-21.5 -51.5t-53.5 -20.5zM24 489h175v-380q0 -52 10.5 -71.5t43.5 -35.5v-2h-224v2q33 16 43.5 35.5t10.5 71.5v270q0 48 -12.5 70t-46.5 38v2zM116 -238q-42 0 -70 24.5t-28 63.5q0 40 31 75.5
t138 93.5l4 -7q-46 -33 -70 -67.5t-24 -68.5q0 -30 16.5 -46.5t45.5 -16.5q30 0 52.5 13t41.5 40l3 -2q-20 -51 -55 -76.5t-85 -25.5z" />
    <glyph glyph-name="Idotaccent" unicode="&#x130;" horiz-adv-x="312" 
d="M216 574v-448q0 -56 12.5 -82.5t44.5 -41.5v-2h-234v2q32 15 44.5 41.5t12.5 82.5v448q0 56 -12.5 82.5t-44.5 41.5v2h234v-2q-32 -15 -44.5 -41.5t-12.5 -82.5zM156 761q-31 0 -53 21.5t-22 51.5q0 31 21.5 52t53.5 21t53.5 -21t21.5 -52q0 -30 -22 -51.5t-53 -21.5z
" />
    <glyph glyph-name="dotlessi" unicode="&#x131;" horiz-adv-x="275" 
d="M24 489h175v-380q0 -52 10.5 -71.5t43.5 -35.5v-2h-224v2q33 16 43.5 35.5t10.5 71.5v270q0 48 -12.5 70t-46.5 38v2z" />
    <glyph glyph-name="Jcircumflex" unicode="&#x134;" horiz-adv-x="554" 
d="M235 9q58 0 87.5 41.5t29.5 123.5v400q0 57 -12.5 83t-43.5 41v2h233v-2q-32 -15 -44.5 -41.5t-12.5 -82.5v-376q0 -97 -64.5 -152.5t-172.5 -55.5q-96 0 -157.5 43t-61.5 112q0 44 28.5 71t74.5 27q22 0 41 -7t31 -19q-32 -3 -48.5 -25t-16.5 -60q0 -55 30 -89t79 -34z
M570 738h-9q-44 18 -83.5 40t-65.5 44q-26 -22 -65.5 -44t-83.5 -40h-9q49 46 92 101t64 100h4q21 -45 64 -100t92 -101z" />
    <glyph glyph-name="jcircumflex" unicode="&#x135;" horiz-adv-x="252" 
d="M282 547h-9q-38 16 -77.5 41t-71.5 52q-32 -27 -71.5 -52t-77.5 -41h-9q51 51 93.5 109t62.5 105h4q20 -47 62.5 -105t93.5 -109zM188 489v-534q0 -90 -51.5 -139t-144.5 -49q-65 0 -105.5 25.5t-40.5 68.5q0 28 20.5 45.5t52.5 17.5q17 0 31.5 -4.5t23.5 -12.5
q-20 -6 -30.5 -20.5t-10.5 -36.5q0 -32 16 -49.5t47 -17.5q40 0 58 32.5t18 106.5v457q0 47 -12.5 69.5t-46.5 38.5v2h175z" />
    <glyph glyph-name="Kcommaaccent" unicode="&#x136;" horiz-adv-x="717" 
d="M343 -51q36 0 58.5 -24.5t22.5 -64.5q0 -53 -41.5 -86t-111.5 -34v14q53 6 79 27t28 60q-7 -6 -19.5 -10t-24.5 -4q-24 0 -41.5 17.5t-17.5 41.5q0 27 19 45t49 18zM273 2v-2h-234v2q32 15 44.5 41.5t12.5 82.5v448q0 56 -12.5 82.5t-44.5 41.5v2h234v-2
q-32 -15 -44.5 -41.5t-12.5 -82.5v-243l282 269q14 13 21 26t7 25q0 14 -9.5 26.5t-27.5 20.5v2h199v-2q-43 -17 -77.5 -39t-79.5 -64l-172 -162l243 -321q31 -41 62 -69t60 -41v-2h-255v2q15 8 20.5 16.5t5.5 22.5q0 11 -5 22.5t-23 36.5l-193 254l-58 -56v-172
q0 -56 12.5 -82.5t44.5 -41.5z" />
    <glyph glyph-name="kcommaaccent" unicode="&#x137;" horiz-adv-x="567" 
d="M289 -51q36 0 58.5 -24.5t22.5 -64.5q0 -53 -41.5 -86t-111.5 -34v14q53 6 79 27t28 60q-7 -6 -19.5 -10t-24.5 -4q-24 0 -41.5 17.5t-17.5 41.5q0 27 19 45t49 18zM196 749v-469h27q27 0 43 7.5t34 25.5l85 88q12 12 17 23t5 23q0 13 -8.5 23.5t-24.5 16.5v2h187v-2
q-42 -11 -74 -30t-66 -54l-89 -93l143 -208q27 -40 54.5 -63.5t61.5 -36.5v-2h-197q-2 15 -10 32.5t-23 39.5l-111 164q-8 13 -16.5 18t-20.5 5h-17v-150q0 -52 10.5 -71.5t43.5 -35.5v-2h-224v2q33 16 43.5 35.5t10.5 71.5v530q0 46 -13 69t-48 39v2h177z" />
    <glyph glyph-name="kgreenlandic" unicode="&#x138;" horiz-adv-x="572" 
d="M201 489v-209h27q27 0 43 7.5t34 25.5l85 88q12 12 17 23t5 23q0 13 -8.5 23.5t-24.5 16.5v2h187v-2q-42 -11 -74 -30t-66 -54l-89 -93l143 -208q27 -40 54.5 -63.5t61.5 -36.5v-2h-197q-2 15 -10 32.5t-23 39.5l-111 164q-8 13 -16.5 18t-20.5 5h-17v-150
q0 -52 10.5 -71.5t43.5 -35.5v-2h-224v2q33 16 43.5 35.5t10.5 71.5v270q0 47 -13 70t-48 38v2h177z" />
    <glyph glyph-name="Lacute" unicode="&#x139;" horiz-adv-x="618" 
d="M193 920h131q-32 -50 -77 -92.5t-108 -81.5h-4q25 39 39 80t19 94zM39 698v2h234v-2q-32 -15 -44.5 -41.5t-12.5 -82.5v-548h147q77 0 130 38.5t106 139.5h2l-33 -204h-529v2q32 15 44.5 41.5t12.5 82.5v448q0 56 -12.5 82.5t-44.5 41.5z" />
    <glyph glyph-name="lacute" unicode="&#x13a;" horiz-adv-x="272" 
d="M131 953h131q-32 -50 -77 -92.5t-108 -81.5h-4q25 39 39 80t19 94zM19 749h177v-640q0 -52 10.5 -71.5t43.5 -35.5v-2h-224v2q33 16 43.5 35.5t10.5 71.5v530q0 46 -13 69t-48 39v2z" />
    <glyph glyph-name="Lcommaaccent" unicode="&#x13b;" horiz-adv-x="618" 
d="M314 -51q36 0 58.5 -24.5t22.5 -64.5q0 -53 -41.5 -86t-111.5 -34v14q53 6 79 27t28 60q-7 -6 -19.5 -10t-24.5 -4q-24 0 -41.5 17.5t-17.5 41.5q0 27 19 45t49 18zM39 698v2h234v-2q-32 -15 -44.5 -41.5t-12.5 -82.5v-548h147q77 0 130 38.5t106 139.5h2l-33 -204h-529
v2q32 15 44.5 41.5t12.5 82.5v448q0 56 -12.5 82.5t-44.5 41.5z" />
    <glyph glyph-name="lcommaaccent" unicode="&#x13c;" horiz-adv-x="272" 
d="M131 -51q36 0 58.5 -24.5t22.5 -64.5q0 -53 -41.5 -86t-111.5 -34v14q53 6 79 27t28 60q-7 -6 -19.5 -10t-24.5 -4q-24 0 -41.5 17.5t-17.5 41.5q0 27 19 45t49 18zM19 749h177v-640q0 -52 10.5 -71.5t43.5 -35.5v-2h-224v2q33 16 43.5 35.5t10.5 71.5v530q0 46 -13 69
t-48 39v2z" />
    <glyph glyph-name="Lcaron" unicode="&#x13d;" horiz-adv-x="618" 
d="M424 700h105q-11 -52 -45.5 -113t-73.5 -98h-3q12 45 16.5 100.5t0.5 110.5zM39 698v2h234v-2q-32 -15 -44.5 -41.5t-12.5 -82.5v-548h147q77 0 130 38.5t106 139.5h2l-33 -204h-529v2q32 15 44.5 41.5t12.5 82.5v448q0 56 -12.5 82.5t-44.5 41.5z" />
    <glyph glyph-name="lcaron" unicode="&#x13e;" horiz-adv-x="272" 
d="M271 749h105q-11 -52 -45.5 -113t-73.5 -98h-3q12 45 16.5 100.5t0.5 110.5zM19 749h177v-640q0 -52 10.5 -71.5t43.5 -35.5v-2h-224v2q33 16 43.5 35.5t10.5 71.5v530q0 46 -13 69t-48 39v2z" />
    <glyph glyph-name="Ldot" unicode="&#x13f;" horiz-adv-x="618" 
d="M39 698v2h234v-2q-32 -15 -44.5 -41.5t-12.5 -82.5v-548h147q77 0 130 38.5t106 139.5h2l-33 -204h-529v2q32 15 44.5 41.5t12.5 82.5v448q0 56 -12.5 82.5t-44.5 41.5zM520 310q-31 0 -53 21t-22 51q0 31 21.5 52t53.5 21t53.5 -21t21.5 -52q0 -30 -22 -51t-53 -21z" />
    <glyph glyph-name="ldot" unicode="&#x140;" horiz-adv-x="391" 
d="M19 749h177v-640q0 -52 10.5 -71.5t43.5 -35.5v-2h-224v2q33 16 43.5 35.5t10.5 71.5v530q0 46 -13 69t-48 39v2zM332 301q-31 0 -53 21t-22 51q0 31 21.5 52t53.5 21t53.5 -21t21.5 -52q0 -30 -22 -51t-53 -21z" />
    <glyph glyph-name="Lslash" unicode="&#x141;" horiz-adv-x="618" 
d="M601 204l-33 -204h-529v2q32 15 44.5 41.5t12.5 82.5v182l-57 -23v29l57 23v237q0 56 -12.5 82.5t-44.5 41.5v2h234v-2q-32 -15 -44.5 -41.5t-12.5 -82.5v-197l148 60v-30l-148 -59v-322h147q77 0 130 38.5t106 139.5h2z" />
    <glyph glyph-name="lslash" unicode="&#x142;" horiz-adv-x="286" 
d="M255 2v-2h-224v2q33 16 43.5 35.5t10.5 71.5v274l-73 -41v29l73 42v226q0 46 -13 69t-48 39v2h177v-283l74 42v-29l-74 -43v-327q0 -52 10.5 -71.5t43.5 -35.5z" />
    <glyph glyph-name="Nacute" unicode="&#x143;" horiz-adv-x="731" 
d="M375 920h131q-32 -50 -77 -92.5t-108 -81.5h-4q25 39 39 80t19 94zM716 700v-2q-38 -18 -56.5 -53t-18.5 -90v-562h-15l-501 632v-477q0 -57 19 -93t58 -53v-2h-181v2q38 18 56.5 53t18.5 90v429q0 56 -12.5 82.5t-44.5 41.5v2h182l391 -498v350q0 57 -19 93t-59 53v2
h182z" />
    <glyph glyph-name="nacute" unicode="&#x144;" horiz-adv-x="606" 
d="M312 749h124q-31 -55 -76 -102t-107 -91h-4q29 51 44 97.5t19 95.5zM24 487v2h175v-136q20 69 66 107.5t109 38.5q73 0 115 -46.5t42 -127.5v-216q0 -52 10.5 -71.5t43.5 -35.5v-2h-224v2q33 16 43.5 35.5t10.5 71.5v212q0 56 -24.5 86.5t-69.5 30.5q-55 0 -88.5 -47
t-33.5 -125v-157q0 -52 10.5 -71.5t43.5 -35.5v-2h-224v2q33 16 43.5 35.5t10.5 71.5v270q0 48 -12.5 70t-46.5 38z" />
    <glyph glyph-name="Ncommaaccent" unicode="&#x145;" horiz-adv-x="731" 
d="M371 -51q36 0 58.5 -24.5t22.5 -64.5q0 -53 -41.5 -86t-111.5 -34v14q53 6 79 27t28 60q-7 -6 -19.5 -10t-24.5 -4q-24 0 -41.5 17.5t-17.5 41.5q0 27 19 45t49 18zM716 700v-2q-38 -18 -56.5 -53t-18.5 -90v-562h-15l-501 632v-477q0 -57 19 -93t58 -53v-2h-181v2
q38 18 56.5 53t18.5 90v429q0 56 -12.5 82.5t-44.5 41.5v2h182l391 -498v350q0 57 -19 93t-59 53v2h182z" />
    <glyph glyph-name="ncommaaccent" unicode="&#x146;" horiz-adv-x="606" 
d="M308 -51q36 0 58.5 -24.5t22.5 -64.5q0 -53 -41.5 -86t-111.5 -34v14q53 6 79 27t28 60q-7 -6 -19.5 -10t-24.5 -4q-24 0 -41.5 17.5t-17.5 41.5q0 27 19 45t49 18zM24 487v2h175v-136q20 69 66 107.5t109 38.5q73 0 115 -46.5t42 -127.5v-216q0 -52 10.5 -71.5
t43.5 -35.5v-2h-224v2q33 16 43.5 35.5t10.5 71.5v212q0 56 -24.5 86.5t-69.5 30.5q-55 0 -88.5 -47t-33.5 -125v-157q0 -52 10.5 -71.5t43.5 -35.5v-2h-224v2q33 16 43.5 35.5t10.5 71.5v270q0 48 -12.5 70t-46.5 38z" />
    <glyph glyph-name="Ncaron" unicode="&#x147;" horiz-adv-x="731" 
d="M220 940h9q44 -18 83.5 -40t65.5 -44q26 22 65.5 44t83.5 40h9q-49 -46 -92 -101t-64 -100h-4q-21 45 -64 100t-92 101zM716 700v-2q-38 -18 -56.5 -53t-18.5 -90v-562h-15l-501 632v-477q0 -57 19 -93t58 -53v-2h-181v2q38 18 56.5 53t18.5 90v429q0 56 -12.5 82.5
t-44.5 41.5v2h182l391 -498v350q0 57 -19 93t-59 53v2h182z" />
    <glyph glyph-name="ncaron" unicode="&#x148;" horiz-adv-x="606" 
d="M155 761h9q39 -17 79 -42t70 -51q30 26 70 51t79 42h9q-50 -50 -93 -108.5t-63 -105.5h-4q-20 47 -63 105.5t-93 108.5zM24 487v2h175v-136q20 69 66 107.5t109 38.5q73 0 115 -46.5t42 -127.5v-216q0 -52 10.5 -71.5t43.5 -35.5v-2h-224v2q33 16 43.5 35.5t10.5 71.5
v212q0 56 -24.5 86.5t-69.5 30.5q-55 0 -88.5 -47t-33.5 -125v-157q0 -52 10.5 -71.5t43.5 -35.5v-2h-224v2q33 16 43.5 35.5t10.5 71.5v270q0 48 -12.5 70t-46.5 38z" />
    <glyph glyph-name="Eng" unicode="&#x14a;" horiz-adv-x="731" 
d="M514 -209q49 0 73.5 38t24.5 113v69l-487 614v-477q0 -57 19 -93t58 -53v-2h-181v2q38 18 56.5 53t18.5 90v429q0 56 -12.5 82.5t-44.5 41.5v2h182l391 -498v350q0 57 -19 93t-59 53v2h182v-2q-38 -18 -56.5 -53t-18.5 -90v-607q0 -90 -33.5 -135.5t-99.5 -45.5
q-63 0 -102 27.5t-39 71.5q0 29 20.5 48t52.5 19q16 0 31 -5t24 -13q-19 -5 -30 -19.5t-11 -36.5q0 -32 16 -50t44 -18z" />
    <glyph glyph-name="eng" unicode="&#x14b;" horiz-adv-x="606" 
d="M336 -233q-66 0 -106.5 25.5t-40.5 68.5q0 28 20.5 45.5t53.5 17.5q16 0 30.5 -4.5t23.5 -12.5q-20 -6 -30.5 -20.5t-10.5 -36.5q0 -33 16.5 -50t47.5 -17q39 0 57 33t18 106v399q0 56 -24.5 86.5t-69.5 30.5q-55 0 -88.5 -47t-33.5 -125v-157q0 -52 10.5 -71.5
t43.5 -35.5v-2h-224v2q33 16 43.5 35.5t10.5 71.5v270q0 48 -12.5 70t-46.5 38v2h175v-136q20 69 66 107.5t109 38.5q73 0 115 -46.5t42 -127.5v-370q0 -90 -51.5 -139t-143.5 -49z" />
    <glyph glyph-name="Omacron" unicode="&#x14c;" horiz-adv-x="762" 
d="M524 817v-36h-286v36h286zM381 710q147 0 247.5 -103t100.5 -257t-100.5 -257t-247.5 -103t-247.5 103t-100.5 257t100.5 257t247.5 103zM381 12q102 0 157.5 88.5t55.5 249.5t-55.5 249.5t-157.5 88.5t-157.5 -88.5t-55.5 -249.5t55.5 -249.5t157.5 -88.5z" />
    <glyph glyph-name="omacron" unicode="&#x14d;" horiz-adv-x="564" 
d="M425 635v-36h-286v36h286zM536 244q0 -111 -72 -182.5t-182 -71.5t-182 72t-72 182q0 111 72 183t182 72t182 -72t72 -183zM155 244q0 -109 34 -172t93 -63t93 63t34 172q0 110 -34 173t-93 63t-93 -63t-34 -173z" />
    <glyph glyph-name="Obreve" unicode="&#x14e;" horiz-adv-x="762" 
d="M519 923h7q-1 -77 -40.5 -124t-103.5 -47q-65 0 -104.5 46.5t-40.5 124.5h7q5 -41 44.5 -65t93.5 -24t93 24.5t44 64.5zM381 710q147 0 247.5 -103t100.5 -257t-100.5 -257t-247.5 -103t-247.5 103t-100.5 257t100.5 257t247.5 103zM381 12q102 0 157.5 88.5t55.5 249.5
t-55.5 249.5t-157.5 88.5t-157.5 -88.5t-55.5 -249.5t55.5 -249.5t157.5 -88.5z" />
    <glyph glyph-name="obreve" unicode="&#x14f;" horiz-adv-x="564" 
d="M536 244q0 -111 -72 -182.5t-182 -71.5t-182 72t-72 182q0 111 72 183t182 72t182 -72t72 -183zM155 244q0 -109 34 -172t93 -63t93 63t34 172q0 110 -34 173t-93 63t-93 -63t-34 -173zM419 747h7q-1 -83 -40 -133t-104 -50t-104 50t-40 133h7q5 -46 43.5 -72.5
t93.5 -26.5t93.5 26.5t43.5 72.5z" />
    <glyph glyph-name="Ohungarumlaut" unicode="&#x150;" horiz-adv-x="762" 
d="M381 710q147 0 247.5 -103t100.5 -257t-100.5 -257t-247.5 -103t-247.5 103t-100.5 257t100.5 257t247.5 103zM381 12q102 0 157.5 88.5t55.5 249.5t-55.5 249.5t-157.5 88.5t-157.5 -88.5t-55.5 -249.5t55.5 -249.5t157.5 -88.5zM337 920h126q-32 -53 -76 -95t-104 -79
h-5q25 37 38.5 77.5t20.5 96.5zM500 920h127q-33 -53 -77 -95t-104 -79h-4q25 39 39 80t19 94z" />
    <glyph glyph-name="ohungarumlaut" unicode="&#x151;" horiz-adv-x="564" 
d="M242 749h118q-32 -57 -75.5 -104t-103.5 -89h-5q30 52 46 98t20 95zM392 749h118q-32 -57 -75.5 -104t-103.5 -89h-5q30 52 46 98t20 95zM536 244q0 -111 -72 -182.5t-182 -71.5t-182 72t-72 182q0 111 72 183t182 72t182 -72t72 -183zM155 244q0 -109 34 -172t93 -63
t93 63t34 172q0 110 -34 173t-93 63t-93 -63t-34 -173z" />
    <glyph glyph-name="OE" unicode="&#x152;" horiz-adv-x="1082" 
d="M456 26h74v648h-86q-134 0 -208 -85.5t-74 -244.5q0 -149 79 -233.5t215 -84.5zM1054 190h2l-32 -190h-577q-194 0 -305 91t-111 253q0 167 107.5 261.5t289.5 94.5h511q23 0 35.5 2t19.5 6l34 -180h-2q-46 82 -96.5 114t-128.5 32h-150v-304h125q62 0 89.5 22t51.5 90h2
v-238h-2q-22 61 -46.5 80.5t-94.5 19.5h-125v-318h169q79 0 133.5 37.5t100.5 126.5z" />
    <glyph glyph-name="oe" unicode="&#x153;" horiz-adv-x="894" 
d="M860 160l6 -3q-16 -79 -73 -123t-142 -44q-54 0 -103 25t-78 67q-34 -43 -83.5 -67.5t-104.5 -24.5q-110 0 -182 72t-72 182q0 111 72 183t182 72q56 0 106.5 -25.5t82.5 -68.5q33 44 80.5 69t98.5 25q104 0 160 -61.5t56 -172.5h-340q0 -99 47 -158.5t126 -59.5
q56 0 98 29t63 84zM282 9q59 0 93 63t34 172q0 110 -34 173t-93 63t-93 -63t-34 -173q0 -109 34 -172t93 -63zM649 480q-50 0 -84.5 -54t-37.5 -140h220q0 104 -23.5 149t-74.5 45z" />
    <glyph glyph-name="Racute" unicode="&#x154;" horiz-adv-x="710" 
d="M335 674h-119v-320h119q82 0 124 39.5t42 117.5q0 80 -42.5 121.5t-123.5 41.5zM39 698v2h330q127 0 194 -47t67 -138q0 -81 -62.5 -128t-167.5 -51q72 -5 116.5 -36.5t64.5 -92.5l27 -82q17 -51 40 -77t73 -46v-2h-182q-14 12 -27 37.5t-28 70.5l-32 100
q-22 67 -53.5 93.5t-80.5 26.5h-102v-202q0 -56 12.5 -82.5t44.5 -41.5v-2h-234v2q32 15 44.5 41.5t12.5 82.5v448q0 56 -12.5 82.5t-44.5 41.5zM343 920h131q-32 -50 -77 -92.5t-108 -81.5h-4q25 39 39 80t19 94z" />
    <glyph glyph-name="racute" unicode="&#x155;" horiz-adv-x="466" 
d="M244 749h124q-31 -55 -76 -102t-107 -91h-4q29 51 44 97.5t19 95.5zM376 322q-10 0 -19.5 3.5t-13.5 8.5q14 5 22 17.5t8 28.5q0 23 -15 36t-41 13q-48 0 -83 -56.5t-35 -135.5v-128q0 -43 17.5 -66.5t66.5 -40.5v-2h-254v2q33 16 43.5 35.5t10.5 71.5v270q0 48 -12.5 70
t-46.5 38v2h175v-166q21 84 62.5 130t99.5 46q42 0 69.5 -24.5t27.5 -63.5q0 -40 -23.5 -64.5t-58.5 -24.5z" />
    <glyph glyph-name="Rcommaaccent" unicode="&#x156;" horiz-adv-x="710" 
d="M343 -51q36 0 58.5 -24.5t22.5 -64.5q0 -53 -41.5 -86t-111.5 -34v14q53 6 79 27t28 60q-7 -6 -19.5 -10t-24.5 -4q-24 0 -41.5 17.5t-17.5 41.5q0 27 19 45t49 18zM335 674h-119v-320h119q82 0 124 39.5t42 117.5q0 80 -42.5 121.5t-123.5 41.5zM39 698v2h330
q127 0 194 -47t67 -138q0 -81 -62.5 -128t-167.5 -51q72 -5 116.5 -36.5t64.5 -92.5l27 -82q17 -51 40 -77t73 -46v-2h-182q-14 12 -27 37.5t-28 70.5l-32 100q-22 67 -53.5 93.5t-80.5 26.5h-102v-202q0 -56 12.5 -82.5t44.5 -41.5v-2h-234v2q32 15 44.5 41.5t12.5 82.5
v448q0 56 -12.5 82.5t-44.5 41.5z" />
    <glyph glyph-name="rcommaaccent" unicode="&#x157;" horiz-adv-x="466" 
d="M136 -51q36 0 58.5 -24.5t22.5 -64.5q0 -53 -41.5 -86t-111.5 -34v14q53 6 79 27t28 60q-7 -6 -19.5 -10t-24.5 -4q-24 0 -41.5 17.5t-17.5 41.5q0 27 19 45t49 18zM376 322q-10 0 -19.5 3.5t-13.5 8.5q14 5 22 17.5t8 28.5q0 23 -15 36t-41 13q-48 0 -83 -56.5
t-35 -135.5v-128q0 -43 17.5 -66.5t66.5 -40.5v-2h-254v2q33 16 43.5 35.5t10.5 71.5v270q0 48 -12.5 70t-46.5 38v2h175v-166q21 84 62.5 130t99.5 46q42 0 69.5 -24.5t27.5 -63.5q0 -40 -23.5 -64.5t-58.5 -24.5z" />
    <glyph glyph-name="Rcaron" unicode="&#x158;" horiz-adv-x="710" 
d="M188 940h9q44 -18 83.5 -40t65.5 -44q26 22 65.5 44t83.5 40h9q-49 -46 -92 -101t-64 -100h-4q-21 45 -64 100t-92 101zM335 674h-119v-320h119q82 0 124 39.5t42 117.5q0 80 -42.5 121.5t-123.5 41.5zM39 698v2h330q127 0 194 -47t67 -138q0 -81 -62.5 -128t-167.5 -51
q72 -5 116.5 -36.5t64.5 -92.5l27 -82q17 -51 40 -77t73 -46v-2h-182q-14 12 -27 37.5t-28 70.5l-32 100q-22 67 -53.5 93.5t-80.5 26.5h-102v-202q0 -56 12.5 -82.5t44.5 -41.5v-2h-234v2q32 15 44.5 41.5t12.5 82.5v448q0 56 -12.5 82.5t-44.5 41.5z" />
    <glyph glyph-name="rcaron" unicode="&#x159;" horiz-adv-x="466" 
d="M88 761h9q39 -17 79 -42t70 -51q30 26 70 51t79 42h9q-50 -50 -93 -108.5t-63 -105.5h-4q-20 47 -63 105.5t-93 108.5zM376 322q-10 0 -19.5 3.5t-13.5 8.5q14 5 22 17.5t8 28.5q0 23 -15 36t-41 13q-48 0 -83 -56.5t-35 -135.5v-128q0 -43 17.5 -66.5t66.5 -40.5v-2
h-254v2q33 16 43.5 35.5t10.5 71.5v270q0 48 -12.5 70t-46.5 38v2h175v-166q21 84 62.5 130t99.5 46q42 0 69.5 -24.5t27.5 -63.5q0 -40 -23.5 -64.5t-58.5 -24.5z" />
    <glyph glyph-name="Sacute" unicode="&#x15a;" horiz-adv-x="577" 
d="M274 688q-60 0 -97.5 -35.5t-37.5 -95.5q0 -51 33.5 -83t125.5 -58q84 -25 114 -38t52 -28q39 -28 57.5 -66t18.5 -90q0 -94 -69.5 -149t-179.5 -55q-24 0 -49.5 4.5t-67.5 17.5q-27 8 -38.5 10.5t-20.5 2.5q-15 0 -29 -7t-36 -28l-13 224h2q44 -95 110.5 -148.5
t141.5 -53.5q69 0 110.5 38t41.5 103q0 35 -16 61t-50 45q-17 10 -40 19t-85 27q-59 18 -90.5 32.5t-53.5 32.5q-32 26 -47.5 60.5t-15.5 80.5q0 88 64.5 143.5t164.5 55.5q25 0 50 -4.5t66 -17.5q22 -7 32 -9t17 -2q13 0 24.5 5t34.5 28l4 -203h-2q-45 92 -101 136.5
t-125 44.5zM281 920h131q-32 -50 -77 -92.5t-108 -81.5h-4q25 39 39 80t19 94z" />
    <glyph glyph-name="sacute" unicode="&#x15b;" horiz-adv-x="463" 
d="M231 749h124q-31 -55 -76 -102t-107 -91h-4q29 51 44 97.5t19 95.5zM213 480q-40 0 -64 -22t-24 -57q0 -38 25 -57t96 -37q99 -25 140 -62.5t41 -101.5q0 -69 -52.5 -111t-135.5 -42q-21 0 -43 3t-56 13q-21 6 -30 7.5t-16 1.5q-11 0 -20.5 -4.5t-25.5 -20.5l-11 187h2
q40 -86 89 -127t111 -41q46 0 74 25t28 67q0 34 -27.5 55t-107.5 40q-85 23 -123.5 60.5t-38.5 100.5t48 102.5t121 39.5q18 0 36.5 -3t47.5 -13q19 -6 28.5 -8t17.5 -2q12 0 23.5 5.5t28.5 20.5v-164h-2q-31 67 -79 106t-101 39z" />
    <glyph glyph-name="Scircumflex" unicode="&#x15c;" horiz-adv-x="577" 
d="M274 688q-60 0 -97.5 -35.5t-37.5 -95.5q0 -51 33.5 -83t125.5 -58q84 -25 114 -38t52 -28q39 -28 57.5 -66t18.5 -90q0 -94 -69.5 -149t-179.5 -55q-24 0 -49.5 4.5t-67.5 17.5q-27 8 -38.5 10.5t-20.5 2.5q-15 0 -29 -7t-36 -28l-13 224h2q44 -95 110.5 -148.5
t141.5 -53.5q69 0 110.5 38t41.5 103q0 35 -16 61t-50 45q-17 10 -40 19t-85 27q-59 18 -90.5 32.5t-53.5 32.5q-32 26 -47.5 60.5t-15.5 80.5q0 88 64.5 143.5t164.5 55.5q25 0 50 -4.5t66 -17.5q22 -7 32 -9t17 -2q13 0 24.5 5t34.5 28l4 -203h-2q-45 92 -101 136.5
t-125 44.5zM442 738h-9q-44 18 -83.5 40t-65.5 44q-26 -22 -65.5 -44t-83.5 -40h-9q49 46 92 101t64 100h4q21 -45 64 -100t92 -101z" />
    <glyph glyph-name="scircumflex" unicode="&#x15d;" horiz-adv-x="463" 
d="M390 547h-9q-38 16 -77.5 41t-71.5 52q-32 -27 -71.5 -52t-77.5 -41h-9q51 51 93.5 109t62.5 105h4q20 -47 62.5 -105t93.5 -109zM213 480q-40 0 -64 -22t-24 -57q0 -38 25 -57t96 -37q99 -25 140 -62.5t41 -101.5q0 -69 -52.5 -111t-135.5 -42q-21 0 -43 3t-56 13
q-21 6 -30 7.5t-16 1.5q-11 0 -20.5 -4.5t-25.5 -20.5l-11 187h2q40 -86 89 -127t111 -41q46 0 74 25t28 67q0 34 -27.5 55t-107.5 40q-85 23 -123.5 60.5t-38.5 100.5t48 102.5t121 39.5q18 0 36.5 -3t47.5 -13q19 -6 28.5 -8t17.5 -2q12 0 23.5 5.5t28.5 20.5v-164h-2
q-31 67 -79 106t-101 39z" />
    <glyph glyph-name="Scedilla" unicode="&#x15e;" horiz-adv-x="577" 
d="M274 688q-60 0 -97.5 -35.5t-37.5 -95.5q0 -51 33.5 -83t125.5 -58q84 -25 114 -38t52 -28q39 -28 57.5 -66t18.5 -90q0 -94 -69.5 -149t-179.5 -55q-24 0 -49.5 4.5t-67.5 17.5q-27 8 -38.5 10.5t-20.5 2.5q-15 0 -29 -7t-36 -28l-13 224h2q44 -95 110.5 -148.5
t141.5 -53.5q69 0 110.5 38t41.5 103q0 35 -16 61t-50 45q-17 10 -40 19t-85 27q-59 18 -90.5 32.5t-53.5 32.5q-32 26 -47.5 60.5t-15.5 80.5q0 88 64.5 143.5t164.5 55.5q25 0 50 -4.5t66 -17.5q22 -7 32 -9t17 -2q13 0 24.5 5t34.5 28l4 -203h-2q-45 92 -101 136.5
t-125 44.5zM257 -223q-39 0 -70 17t-44 44l8 9q14 -20 34 -30.5t44 -10.5q26 0 41 15.5t15 42.5q0 29 -19.5 42.5t-66.5 15.5l46 87h17l-34 -69q65 1 104 -20t39 -59t-32 -61t-82 -23z" />
    <glyph glyph-name="scedilla" unicode="&#x15f;" horiz-adv-x="463" 
d="M213 480q-40 0 -64 -22t-24 -57q0 -38 25 -57t96 -37q99 -25 140 -62.5t41 -101.5q0 -69 -52.5 -111t-135.5 -42q-21 0 -43 3t-56 13q-21 6 -30 7.5t-16 1.5q-11 0 -20.5 -4.5t-25.5 -20.5l-11 187h2q40 -86 89 -127t111 -41q46 0 74 25t28 67q0 34 -27.5 55t-107.5 40
q-85 23 -123.5 60.5t-38.5 100.5t48 102.5t121 39.5q18 0 36.5 -3t47.5 -13q19 -6 28.5 -8t17.5 -2q12 0 23.5 5.5t28.5 20.5v-164h-2q-31 67 -79 106t-101 39zM205 -223q-39 0 -70 17t-44 44l8 9q14 -20 34 -30.5t44 -10.5q26 0 41 15.5t15 42.5q0 29 -19.5 42.5
t-66.5 15.5l46 87h17l-34 -69q65 1 104 -20t39 -59t-32 -61t-82 -23z" />
    <glyph glyph-name="Scaron" unicode="&#x160;" horiz-adv-x="577" 
d="M274 688q-60 0 -97.5 -35.5t-37.5 -95.5q0 -51 33.5 -83t125.5 -58q84 -25 114 -38t52 -28q39 -28 57.5 -66t18.5 -90q0 -94 -69.5 -149t-179.5 -55q-24 0 -49.5 4.5t-67.5 17.5q-27 8 -38.5 10.5t-20.5 2.5q-15 0 -29 -7t-36 -28l-13 224h2q44 -95 110.5 -148.5
t141.5 -53.5q69 0 110.5 38t41.5 103q0 35 -16 61t-50 45q-17 10 -40 19t-85 27q-59 18 -90.5 32.5t-53.5 32.5q-32 26 -47.5 60.5t-15.5 80.5q0 88 64.5 143.5t164.5 55.5q25 0 50 -4.5t66 -17.5q22 -7 32 -9t17 -2q13 0 24.5 5t34.5 28l4 -203h-2q-45 92 -101 136.5
t-125 44.5zM126 940h9q44 -18 83.5 -40t65.5 -44q26 22 65.5 44t83.5 40h9q-49 -46 -92 -101t-64 -100h-4q-21 45 -64 100t-92 101z" />
    <glyph glyph-name="scaron" unicode="&#x161;" horiz-adv-x="463" 
d="M74 761h9q39 -17 79 -42t70 -51q30 26 70 51t79 42h9q-50 -50 -93 -108.5t-63 -105.5h-4q-20 47 -63 105.5t-93 108.5zM213 480q-40 0 -64 -22t-24 -57q0 -38 25 -57t96 -37q99 -25 140 -62.5t41 -101.5q0 -69 -52.5 -111t-135.5 -42q-21 0 -43 3t-56 13q-21 6 -30 7.5
t-16 1.5q-11 0 -20.5 -4.5t-25.5 -20.5l-11 187h2q40 -86 89 -127t111 -41q46 0 74 25t28 67q0 34 -27.5 55t-107.5 40q-85 23 -123.5 60.5t-38.5 100.5t48 102.5t121 39.5q18 0 36.5 -3t47.5 -13q19 -6 28.5 -8t17.5 -2q12 0 23.5 5.5t28.5 20.5v-164h-2q-31 67 -79 106
t-101 39z" />
    <glyph glyph-name="Tcommaaccent" unicode="&#x162;" horiz-adv-x="731" 
d="M372 -223q-39 0 -70 17t-44 44l8 9q14 -20 34 -30.5t44 -10.5q26 0 41 15.5t15 42.5q0 29 -19.5 42.5t-66.5 15.5l41 78h-110v2q34 17 47 42t13 76v555h-70q-43 0 -74.5 -13t-59.5 -43q-14 -16 -30.5 -39t-53.5 -86h-2l34 214q7 -4 19.5 -6t35.5 -2h523q22 0 34.5 2
t19.5 6l34 -214h-2q-36 62 -52.5 85.5t-30.5 39.5q-28 30 -59.5 43t-74.5 13h-70v-555q0 -51 13 -76t47 -42v-2h-114l-29 -60q65 1 104 -20t39 -59t-32 -61t-82 -23z" />
    <glyph glyph-name="tcommaaccent" unicode="&#x163;" horiz-adv-x="374" 
d="M210 -223q-39 0 -70 17t-44 44l8 9q14 -20 34 -30.5t44 -10.5q26 0 41 15.5t15 42.5q0 29 -19.5 42.5t-66.5 15.5l36 69q-51 6 -81 38q-35 40 -35 114v320h-65v8q65 13 110.5 63t61.5 127h9v-172h154l-5 -26h-149v-319q0 -46 17 -69.5t49 -23.5q36 0 60 29.5t34 84.5
l9 -1q-8 -85 -45.5 -129.5t-102.5 -44.5h-4l-24 -50q65 1 104 -20t39 -59t-32 -61t-82 -23z" />
    <glyph glyph-name="Tcaron" unicode="&#x164;" horiz-adv-x="731" 
d="M207 940h9q44 -18 83.5 -40t65.5 -44q26 22 65.5 44t83.5 40h9q-49 -46 -92 -101t-64 -100h-4q-21 45 -64 100t-92 101zM104 700h523q22 0 34.5 2t19.5 6l34 -214h-2q-36 62 -52.5 85.5t-30.5 39.5q-28 30 -59.5 43t-74.5 13h-70v-555q0 -51 13 -76t47 -42v-2h-241v2
q34 17 47 42t13 76v555h-70q-43 0 -74.5 -13t-59.5 -43q-14 -16 -30.5 -39t-53.5 -86h-2l34 214q7 -4 19.5 -6t35.5 -2z" />
    <glyph glyph-name="tcaron" unicode="&#x165;" horiz-adv-x="374" 
d="M267 753h105q-11 -52 -45.5 -113t-73.5 -98h-3q12 45 16.5 100.5t0.5 110.5zM254 51q36 0 60 29.5t34 84.5l9 -1q-8 -85 -45.5 -129.5t-102.5 -44.5q-66 0 -101.5 39.5t-35.5 113.5v320h-65v8q65 13 110.5 63t61.5 127h9v-172h154l-5 -26h-149v-319q0 -46 17 -69.5
t49 -23.5z" />
    <glyph glyph-name="Tbar" unicode="&#x166;" horiz-adv-x="731" 
d="M486 2v-2h-241v2q34 17 47 42t13 76v224h-124v28h124v303h-70q-43 0 -74.5 -13t-59.5 -43q-14 -16 -30.5 -39t-53.5 -86h-2l34 214q7 -4 19.5 -6t35.5 -2h523q22 0 34.5 2t19.5 6l34 -214h-2q-36 62 -52.5 85.5t-30.5 39.5q-28 30 -59.5 43t-74.5 13h-70v-303h124v-28
h-124v-224q0 -51 13 -76t47 -42z" />
    <glyph glyph-name="tbar" unicode="&#x167;" horiz-adv-x="385" 
d="M360 165l9 -1q-8 -86 -45.5 -130t-102.5 -44t-101 40t-36 113l1 170h-66v25h66v125h-65v8q65 13 110.5 63.5t60.5 126.5h9v-172h154l-5 -26h-149v-125h144v-25h-144v-169q0 -46 17 -69.5t49 -23.5q36 0 60 29.5t34 84.5z" />
    <glyph glyph-name="Utilde" unicode="&#x168;" horiz-adv-x="732" 
d="M565 914h8q-15 -71 -44 -109t-68 -38q-16 0 -33.5 6t-51.5 26q-29 17 -43.5 22.5t-26.5 5.5q-28 0 -50 -16t-37 -49h-8q15 71 44 109t68 38q16 0 33.5 -6t51.5 -26q29 -17 43.5 -22.5t26.5 -5.5q28 0 50 16.5t37 48.5zM642 555v-286q0 -129 -73 -204t-196 -75
q-139 0 -214.5 73t-75.5 208v303q0 56 -12.5 82.5t-44.5 41.5v2h233v-2q-31 -15 -43.5 -41t-12.5 -83v-296q0 -118 49 -179t144 -61q99 0 157.5 63.5t58.5 172.5v278q0 57 -19 93t-58 53v2h181v-2q-38 -18 -56 -53t-18 -90z" />
    <glyph glyph-name="utilde" unicode="&#x169;" horiz-adv-x="591" 
d="M275 52q55 0 90 47t35 124v156q0 47 -12.5 69.5t-46.5 38.5v2h175v-388q0 -41 13 -62t53 -37v-2h-182v141q-18 -71 -65 -111t-113 -40q-71 0 -112.5 46.5t-41.5 127.5v215q0 48 -12.5 70t-46.5 38v2h175v-319q0 -54 24 -86t67 -32zM469 724h8q-15 -71 -44 -109t-68 -38
q-16 0 -33.5 6t-51.5 26q-29 17 -43.5 22.5t-26.5 5.5q-28 0 -50 -16t-37 -49h-8q15 71 44 109t68 38q16 0 33.5 -6t51.5 -26q29 -17 43.5 -22.5t26.5 -5.5q28 0 50 16.5t37 48.5z" />
    <glyph glyph-name="Umacron" unicode="&#x16a;" horiz-adv-x="732" 
d="M535 817v-36h-286v36h286zM642 555v-286q0 -129 -73 -204t-196 -75q-139 0 -214.5 73t-75.5 208v303q0 56 -12.5 82.5t-44.5 41.5v2h233v-2q-31 -15 -43.5 -41t-12.5 -83v-296q0 -118 49 -179t144 -61q99 0 157.5 63.5t58.5 172.5v278q0 57 -19 93t-58 53v2h181v-2
q-38 -18 -56 -53t-18 -90z" />
    <glyph glyph-name="umacron" unicode="&#x16b;" horiz-adv-x="591" 
d="M275 52q55 0 90 47t35 124v156q0 47 -12.5 69.5t-46.5 38.5v2h175v-388q0 -41 13 -62t53 -37v-2h-182v141q-18 -71 -65 -111t-113 -40q-71 0 -112.5 46.5t-41.5 127.5v215q0 48 -12.5 70t-46.5 38v2h175v-319q0 -54 24 -86t67 -32zM439 635v-36h-286v36h286z" />
    <glyph glyph-name="Ubreve" unicode="&#x16c;" horiz-adv-x="732" 
d="M530 923h7q-1 -77 -40.5 -124t-103.5 -47q-65 0 -104.5 46.5t-40.5 124.5h7q5 -41 44.5 -65t93.5 -24t93 24.5t44 64.5zM642 555v-286q0 -129 -73 -204t-196 -75q-139 0 -214.5 73t-75.5 208v303q0 56 -12.5 82.5t-44.5 41.5v2h233v-2q-31 -15 -43.5 -41t-12.5 -83v-296
q0 -118 49 -179t144 -61q99 0 157.5 63.5t58.5 172.5v278q0 57 -19 93t-58 53v2h181v-2q-38 -18 -56 -53t-18 -90z" />
    <glyph glyph-name="ubreve" unicode="&#x16d;" horiz-adv-x="591" 
d="M275 52q55 0 90 47t35 124v156q0 47 -12.5 69.5t-46.5 38.5v2h175v-388q0 -41 13 -62t53 -37v-2h-182v141q-18 -71 -65 -111t-113 -40q-71 0 -112.5 46.5t-41.5 127.5v215q0 48 -12.5 70t-46.5 38v2h175v-319q0 -54 24 -86t67 -32zM433 747h7q-1 -83 -40 -133t-104 -50
t-104 50t-40 133h7q5 -46 43.5 -72.5t93.5 -26.5t93.5 26.5t43.5 72.5z" />
    <glyph glyph-name="Uring" unicode="&#x16e;" horiz-adv-x="732" 
d="M642 555v-286q0 -129 -73 -204t-196 -75q-139 0 -214.5 73t-75.5 208v303q0 56 -12.5 82.5t-44.5 41.5v2h233v-2q-31 -15 -43.5 -41t-12.5 -83v-296q0 -118 49 -179t144 -61q99 0 157.5 63.5t58.5 172.5v278q0 57 -19 93t-58 53v2h181v-2q-38 -18 -56 -53t-18 -90z
M292 850q0 40 29.5 69t70.5 29t70.5 -29t29.5 -69q0 -41 -29.5 -70t-70.5 -29t-70.5 29t-29.5 70zM318 850q0 -30 22 -51.5t52 -21.5t52 21.5t22 51.5q0 29 -22 50.5t-52 21.5t-52 -21.5t-22 -50.5z" />
    <glyph glyph-name="uring" unicode="&#x16f;" horiz-adv-x="591" 
d="M196 660q0 40 29.5 69t70.5 29t70.5 -29t29.5 -69q0 -41 -29.5 -70t-70.5 -29t-70.5 29t-29.5 70zM222 660q0 -30 22 -51.5t52 -21.5t52 21.5t22 51.5q0 29 -22 50.5t-52 21.5t-52 -21.5t-22 -50.5zM275 52q55 0 90 47t35 124v156q0 47 -12.5 69.5t-46.5 38.5v2h175v-388
q0 -41 13 -62t53 -37v-2h-182v141q-18 -71 -65 -111t-113 -40q-71 0 -112.5 46.5t-41.5 127.5v215q0 48 -12.5 70t-46.5 38v2h175v-319q0 -54 24 -86t67 -32z" />
    <glyph glyph-name="Uhungarumlaut" unicode="&#x170;" horiz-adv-x="732" 
d="M642 555v-286q0 -129 -73 -204t-196 -75q-139 0 -214.5 73t-75.5 208v303q0 56 -12.5 82.5t-44.5 41.5v2h233v-2q-31 -15 -43.5 -41t-12.5 -83v-296q0 -118 49 -179t144 -61q99 0 157.5 63.5t58.5 172.5v278q0 57 -19 93t-58 53v2h181v-2q-38 -18 -56 -53t-18 -90z
M349 920h126q-32 -53 -76 -95t-104 -79h-5q25 37 38.5 77.5t20.5 96.5zM512 920h127q-33 -53 -77 -95t-104 -79h-4q25 39 39 80t19 94z" />
    <glyph glyph-name="uhungarumlaut" unicode="&#x171;" horiz-adv-x="591" 
d="M275 52q55 0 90 47t35 124v156q0 47 -12.5 69.5t-46.5 38.5v2h175v-388q0 -41 13 -62t53 -37v-2h-182v141q-18 -71 -65 -111t-113 -40q-71 0 -112.5 46.5t-41.5 127.5v215q0 48 -12.5 70t-46.5 38v2h175v-319q0 -54 24 -86t67 -32zM239 749h118q-32 -57 -75.5 -104
t-103.5 -89h-5q30 52 46 98t20 95zM389 749h118q-32 -57 -75.5 -104t-103.5 -89h-5q30 52 46 98t20 95z" />
    <glyph glyph-name="Uogonek" unicode="&#x172;" horiz-adv-x="732" 
d="M415 -238q-42 0 -70 24.5t-28 63.5q0 38 28.5 72t102.5 77q-17 -4 -36 -6.5t-39 -2.5q-139 0 -214.5 73t-75.5 208v303q0 56 -12.5 82.5t-44.5 41.5v2h233v-2q-31 -15 -43.5 -41t-12.5 -83v-296q0 -118 49 -179t144 -61q99 0 157.5 63.5t58.5 172.5v278q0 57 -19 93
t-58 53v2h181v-2q-38 -18 -56 -53t-18 -90v-286q0 -92 -36 -155t-112 -102q-46 -24 -71.5 -60.5t-25.5 -75.5q0 -30 16 -46.5t45 -16.5q30 0 53 13t41 40l3 -2q-20 -51 -55 -76.5t-85 -25.5z" />
    <glyph glyph-name="uogonek" unicode="&#x173;" horiz-adv-x="591" 
d="M363 -238q-42 0 -70 24.5t-28 63.5q0 40 31 75.5t138 93.5l4 -7q-46 -33 -70 -67.5t-24 -68.5q0 -30 16.5 -46.5t45.5 -16.5q30 0 52.5 13t41.5 40l3 -2q-20 -51 -55 -76.5t-85 -25.5zM275 52q55 0 90 47t35 124v156q0 47 -12.5 69.5t-46.5 38.5v2h175v-388q0 -41 13 -62
t53 -37v-2h-182v141q-18 -71 -65 -111t-113 -40q-71 0 -112.5 46.5t-41.5 127.5v215q0 48 -12.5 70t-46.5 38v2h175v-319q0 -54 24 -86t67 -32z" />
    <glyph glyph-name="Wcircumflex" unicode="&#x174;" horiz-adv-x="953" 
d="M655 -10h-3l-170 464l-175 -464h-4l-232 598q-19 49 -34.5 72t-38.5 38v2h228v-2q-21 -11 -31 -24.5t-10 -30.5q0 -12 3 -26.5t10 -31.5l153 -405l116 315l-34 93q-19 49 -34.5 72t-38.5 38v2h224v-2q-21 -11 -31 -24.5t-10 -30.5q0 -11 3.5 -25.5t10.5 -32.5l140 -408
l143 392q4 12 6.5 24t2.5 23q-1 27 -13.5 48t-36.5 34v2h160v-2q-25 -16 -45.5 -45.5t-37.5 -74.5zM640 738h-9q-44 18 -83.5 40t-65.5 44q-26 -22 -65.5 -44t-83.5 -40h-9q49 46 92 101t64 100h4q21 -45 64 -100t92 -101z" />
    <glyph glyph-name="wcircumflex" unicode="&#x175;" horiz-adv-x="759" 
d="M548 547h-9q-38 16 -77.5 41t-71.5 52q-32 -27 -71.5 -52t-77.5 -41h-9q51 51 93.5 109t62.5 105h4q20 -47 62.5 -105t93.5 -109zM527 -10h-2l-136 334l-147 -334h-2l-171 391q-21 46 -35 66t-40 40v2h203v-2q-15 -8 -21 -17.5t-6 -26.5q0 -9 3.5 -22.5t12.5 -38.5
l99 -233l90 209l-9 23q-20 46 -34 65.5t-41 40.5v2h202v-2q-16 -8 -23 -18t-7 -27q0 -8 3.5 -21.5t12.5 -38.5l88 -230l89 224q5 13 7.5 25.5t2.5 22.5q0 23 -11.5 39t-33.5 24v2h144v-2q-30 -23 -44.5 -44.5t-32.5 -64.5z" />
    <glyph glyph-name="Ycircumflex" unicode="&#x176;" horiz-adv-x="668" 
d="M218 597l164 -269l158 258q7 14 11 26.5t4 22.5q0 20 -11 36.5t-31 26.5v2h157v-2q-27 -17 -48.5 -41.5t-46.5 -65.5l-184 -299v-172q0 -51 13 -76t47 -42v-2h-236v2q34 17 47 42t13 76v172l-188 306q-23 38 -42.5 59.5t-46.5 40.5v2h242v-2q-19 -12 -27.5 -25t-8.5 -30
q0 -12 3.5 -23t10.5 -23zM513 738h-9q-44 18 -83.5 40t-65.5 44q-26 -22 -65.5 -44t-83.5 -40h-9q49 46 92 101t64 100h4q21 -45 64 -100t92 -101z" />
    <glyph glyph-name="ycircumflex" unicode="&#x177;" horiz-adv-x="519" 
d="M130 -181q27 0 47 20.5t44 74.5l36 81l-188 386q-24 50 -37 68.5t-38 37.5v2h209v-2q-17 -8 -23.5 -18t-6.5 -27q0 -11 4.5 -27.5t12.5 -32.5l121 -256l106 249q5 13 8 26t3 24q0 22 -11 38t-32 24v2h140v-2q-26 -19 -41.5 -41.5t-37.5 -73.5l-203 -472
q-31 -71 -65.5 -102t-80.5 -31q-43 0 -69.5 22.5t-26.5 60.5q0 33 21 53.5t53 20.5q10 0 18 -1.5t16 -5.5q-15 -6 -22.5 -17.5t-7.5 -29.5q0 -23 14 -37t37 -14zM439 547h-9q-38 16 -77.5 41t-71.5 52q-32 -27 -71.5 -52t-77.5 -41h-9q51 51 93.5 109t62.5 105h4
q20 -47 62.5 -105t93.5 -109z" />
    <glyph glyph-name="Ydieresis" unicode="&#x178;" horiz-adv-x="668" 
d="M218 597l164 -269l158 258q7 14 11 26.5t4 22.5q0 20 -11 36.5t-31 26.5v2h157v-2q-27 -17 -48.5 -41.5t-46.5 -65.5l-184 -299v-172q0 -51 13 -76t47 -42v-2h-236v2q34 17 47 42t13 76v172l-188 306q-23 38 -42.5 59.5t-46.5 40.5v2h242v-2q-19 -12 -27.5 -25t-8.5 -30
q0 -12 3.5 -23t10.5 -23zM328 831q0 -29 -20 -49t-48 -20q-29 0 -48 20t-19 49t19.5 48.5t47.5 19.5t48 -20t20 -48zM517 831q0 -29 -19.5 -49t-47.5 -20t-48.5 20.5t-20.5 48.5t20.5 48t48.5 20t47.5 -20t19.5 -48z" />
    <glyph glyph-name="Zacute" unicode="&#x179;" horiz-adv-x="666" 
d="M630 212l-32 -212h-567v2l438 672h-196q-66 0 -112 -32.5t-105 -135.5h-2l34 202q7 -4 19.5 -6t35.5 -2h475v-2l-432 -672h212q76 0 121.5 34t108.5 152h2zM330 920h131q-32 -50 -77 -92.5t-108 -81.5h-4q25 39 39 80t19 94z" />
    <glyph glyph-name="zacute" unicode="&#x17a;" horiz-adv-x="506" 
d="M256 749h124q-31 -55 -76 -102t-107 -91h-4q29 51 44 97.5t19 95.5zM21 2l307 464h-112q-48 0 -80 -22t-94 -114h-2l14 166q14 -4 28 -5.5t32 -1.5h355v-2l-307 -465h103q67 1 108 28.5t104 124.5h2l-30 -175h-428v2z" />
    <glyph glyph-name="Zdotaccent" unicode="&#x17b;" horiz-adv-x="666" 
d="M334 761q-31 0 -53 21.5t-22 51.5q0 31 21.5 52t53.5 21t53.5 -21t21.5 -52q0 -30 -22 -51.5t-53 -21.5zM630 212l-32 -212h-567v2l438 672h-196q-66 0 -112 -32.5t-105 -135.5h-2l34 202q7 -4 19.5 -6t35.5 -2h475v-2l-432 -672h212q76 0 121.5 34t108.5 152h2z" />
    <glyph glyph-name="zdotaccent" unicode="&#x17c;" horiz-adv-x="506" 
d="M21 2l307 464h-112q-48 0 -80 -22t-94 -114h-2l14 166q14 -4 28 -5.5t32 -1.5h355v-2l-307 -465h103q67 1 108 28.5t104 124.5h2l-30 -175h-428v2zM258 582q-31 0 -53 21t-22 51q0 31 21.5 52t53.5 21t53.5 -21t21.5 -52q0 -30 -22 -51t-53 -21z" />
    <glyph glyph-name="Zcaron" unicode="&#x17d;" horiz-adv-x="666" 
d="M176 940h9q44 -18 83.5 -40t65.5 -44q26 22 65.5 44t83.5 40h9q-49 -46 -92 -101t-64 -100h-4q-21 45 -64 100t-92 101zM630 212l-32 -212h-567v2l438 672h-196q-66 0 -112 -32.5t-105 -135.5h-2l34 202q7 -4 19.5 -6t35.5 -2h475v-2l-432 -672h212q76 0 121.5 34
t108.5 152h2z" />
    <glyph glyph-name="zcaron" unicode="&#x17e;" horiz-adv-x="506" 
d="M100 761h9q39 -17 79 -42t70 -51q30 26 70 51t79 42h9q-50 -50 -93 -108.5t-63 -105.5h-4q-20 47 -63 105.5t-93 108.5zM21 2l307 464h-112q-48 0 -80 -22t-94 -114h-2l14 166q14 -4 28 -5.5t32 -1.5h355v-2l-307 -465h103q67 1 108 28.5t104 124.5h2l-30 -175h-428v2z
" />
    <glyph glyph-name="florin" unicode="&#x192;" horiz-adv-x="552" 
d="M47 -195q-66 0 -104.5 24t-38.5 67q0 28 19.5 46t51.5 18q16 0 33 -5.5t26 -14.5q-22 0 -34.5 -15t-12.5 -41q0 -29 16 -46t44 -17q30 0 48.5 27.5t27.5 87.5l56 406h-96l3 19h96l22 159q11 89 63 139.5t133 50.5q67 0 106 -24t39 -67q0 -29 -20 -46.5t-52 -17.5
q-17 0 -33.5 5t-26.5 14q22 1 34.5 16t12.5 42q0 29 -16 45.5t-44 16.5q-31 0 -50 -28t-26 -87l-30 -218h121l-3 -19h-121l-46 -337q-14 -96 -65 -148t-133 -52z" />
    <glyph glyph-name="Aringacute" unicode="&#x1fa;" horiz-adv-x="713" 
d="M276 824q0 -29 21 -48t52 -19q32 0 53.5 19t21.5 48q0 28 -22 47.5t-53 19.5q-30 0 -51.5 -19.5t-21.5 -47.5zM347 1080h131q-28 -41 -71 -77t-114 -76h-5q27 37 40.5 72t18.5 81zM249 824q0 37 29.5 64.5t70.5 27.5t71 -27t30 -65t-29.5 -64.5t-71.5 -26.5
q-41 0 -70.5 26.5t-29.5 64.5zM439 252l-134 294l-127 -294h261zM112 71q0 -22 13.5 -40.5t36.5 -28.5v-2h-163v2q26 14 47.5 43t46.5 86l258 579h4l277 -598q28 -59 43 -78t38 -32v-2h-241v2q23 10 34 23.5t11 30.5q0 12 -4 26t-12 33l-50 110h-285l-38 -89q-8 -18 -12 -34
t-4 -31z" />
    <glyph glyph-name="aringacute" unicode="&#x1fb;" horiz-adv-x="532" 
d="M334 617q0 28 -21.5 47.5t-52.5 19.5t-52.5 -19.5t-21.5 -47.5q0 -29 21.5 -48t52.5 -19t52.5 19.5t21.5 47.5zM159 617q0 38 30 65t71 27t70.5 -27.5t29.5 -64.5q0 -38 -29.5 -64.5t-70.5 -26.5q-42 0 -71.5 26.5t-29.5 64.5zM199 720q27 38 40 73t18 81h131
q-28 -42 -71 -77.5t-114 -76.5h-4zM518 30q7 0 14 2t14 5v-2q-16 -20 -42.5 -31.5t-57.5 -11.5q-44 0 -70.5 23t-31.5 65v3.5t-1 10.5q0 13 -0.5 18.5t-0.5 8.5q-9 -54 -56.5 -91t-108.5 -37q-66 0 -105 33t-39 91q0 40 20.5 68.5t63.5 47.5q23 11 55 19.5t93 19.5l76 14v70
q0 57 -27.5 90.5t-76.5 33.5q-44 0 -68 -21t-24 -59q0 -26 12.5 -41t33.5 -15q4 0 7.5 1t7.5 2q-7 -23 -26 -36t-46 -13q-35 0 -57.5 21t-22.5 56q0 53 52.5 88.5t132.5 35.5q111 0 165.5 -42.5t54.5 -128.5v-46.5t-1 -69.5q-1 -39 -1 -58v-35q0 -46 15 -67.5t46 -21.5z
M339 178l2 89l-59 -11q-68 -14 -99 -43.5t-31 -80.5q0 -42 20 -64.5t56 -22.5q47 0 78.5 37.5t32.5 95.5z" />
    <glyph glyph-name="AEacute" unicode="&#x1fc;" horiz-adv-x="1058" 
d="M694 920h131q-32 -50 -77 -92.5t-108 -81.5h-4q25 39 39 80t19 94zM506 296v374l-249 -374h249zM119 60q0 -20 11.5 -34.5t35.5 -23.5v-2h-166v2q22 12 41.5 32.5t57.5 77.5l332 499q5 7 8 15t3 16q0 14 -10 25t-44 31v2h527q23 0 35.5 2t19.5 6l34 -180h-2
q-46 82 -96.5 114t-129.5 32h-149v-304h124q63 0 90.5 22t51.5 90h2v-238h-2q-22 60 -47 80t-95 20h-124v-318h169q79 0 133.5 37.5t100.5 126.5h2l-32 -190h-550v2q31 15 43.5 41t12.5 83v143h-267l-96 -145q-12 -18 -18 -33.5t-6 -30.5z" />
    <glyph glyph-name="aeacute" unicode="&#x1fd;" horiz-adv-x="826" 
d="M440 749h124q-31 -55 -76 -102t-107 -91h-4q29 51 44 97.5t19 95.5zM792 160l6 -3q-16 -79 -72.5 -123t-141.5 -44q-78 0 -137.5 39t-85.5 107q-16 -63 -66 -103t-118 -40q-66 0 -105 33t-39 91q0 40 20.5 68t63.5 46q22 9 51.5 17t96.5 20l76 14v74q0 57 -27.5 90.5
t-76.5 33.5q-44 0 -68 -21t-24 -59q0 -26 12.5 -41t33.5 -15q4 0 7.5 1t7.5 2q-7 -23 -26 -36t-46 -13q-35 0 -57.5 21t-22.5 56q0 53 52.5 88.5t132.5 35.5q61 0 103.5 -20.5t63.5 -60.5q34 39 80 60t96 21q104 0 160 -61.5t56 -172.5h-340q0 -99 47 -158.5t126 -59.5
q57 0 98.5 29t62.5 84zM581 480q-50 0 -84 -54t-38 -140h220q0 104 -23.5 149t-74.5 45zM341 185v78l-59 -11q-70 -14 -100 -42t-30 -78q0 -42 20 -64.5t56 -22.5q51 0 82 38t31 102z" />
    <glyph glyph-name="Oslashacute" unicode="&#x1fe;" horiz-adv-x="762" 
d="M381 688q-102 0 -157.5 -88.5t-55.5 -249.5q0 -55 7 -102t20 -86l365 394q-27 65 -72 98.5t-107 33.5zM381 12q102 0 157.5 88.5t55.5 249.5q0 53 -6.5 99t-18.5 83l-365 -393q27 -63 71.5 -95t105.5 -32zM729 350q0 -154 -100.5 -257t-247.5 -103q-65 0 -125 23t-108 66
l-83 -90l-18 14l85 91q-48 50 -73.5 116t-25.5 140q0 154 100.5 257t247.5 103q67 0 127.5 -23.5t108.5 -68.5l80 86l18 -15l-81 -87q46 -50 70.5 -114.5t24.5 -137.5zM378 920h131q-32 -50 -77 -92.5t-108 -81.5h-4q25 39 39 80t19 94z" />
    <glyph glyph-name="oslashacute" unicode="&#x1ff;" horiz-adv-x="564" 
d="M282 480q-59 0 -93 -63t-34 -173q0 -32 3 -61t9 -53l226 242q-15 52 -43.5 80t-67.5 28zM282 9q59 0 93 63t34 172q0 28 -2 52.5t-7 47.5l-225 -240q17 -46 44 -70.5t63 -24.5zM536 244q0 -111 -72 -182.5t-182 -71.5q-46 0 -87.5 14t-74.5 40l-55 -58l-18 15l55 59
q-36 35 -55 82.5t-19 101.5q0 111 72 183t182 72q49 0 93 -16t79 -46l56 60l18 -16l-57 -61q32 -35 48.5 -80t16.5 -96zM280 749h124q-31 -55 -76 -102t-107 -91h-4q29 51 44 97.5t19 95.5z" />
    <glyph glyph-name="Scommaaccent" unicode="&#x218;" horiz-adv-x="577" 
d="M281 -51q36 0 58.5 -24.5t22.5 -64.5q0 -53 -41.5 -86t-111.5 -34v14q53 6 79 27t28 60q-7 -6 -19.5 -10t-24.5 -4q-24 0 -41.5 17.5t-17.5 41.5q0 27 19 45t49 18zM274 688q-60 0 -97.5 -35.5t-37.5 -95.5q0 -51 33.5 -83t125.5 -58q84 -25 114 -38t52 -28
q39 -28 57.5 -66t18.5 -90q0 -94 -69.5 -149t-179.5 -55q-24 0 -49.5 4.5t-67.5 17.5q-27 8 -38.5 10.5t-20.5 2.5q-15 0 -29 -7t-36 -28l-13 224h2q44 -95 110.5 -148.5t141.5 -53.5q69 0 110.5 38t41.5 103q0 35 -16 61t-50 45q-17 10 -40 19t-85 27q-59 18 -90.5 32.5
t-53.5 32.5q-32 26 -47.5 60.5t-15.5 80.5q0 88 64.5 143.5t164.5 55.5q25 0 50 -4.5t66 -17.5q22 -7 32 -9t17 -2q13 0 24.5 5t34.5 28l4 -203h-2q-45 92 -101 136.5t-125 44.5z" />
    <glyph glyph-name="scommaaccent" unicode="&#x219;" horiz-adv-x="463" 
d="M229 -51q36 0 58.5 -24.5t22.5 -64.5q0 -53 -41.5 -86t-111.5 -34v14q53 6 79 27t28 60q-7 -6 -19.5 -10t-24.5 -4q-24 0 -41.5 17.5t-17.5 41.5q0 27 19 45t49 18zM213 480q-40 0 -64 -22t-24 -57q0 -38 25 -57t96 -37q99 -25 140 -62.5t41 -101.5q0 -69 -52.5 -111
t-135.5 -42q-21 0 -43 3t-56 13q-21 6 -30 7.5t-16 1.5q-11 0 -20.5 -4.5t-25.5 -20.5l-11 187h2q40 -86 89 -127t111 -41q46 0 74 25t28 67q0 34 -27.5 55t-107.5 40q-85 23 -123.5 60.5t-38.5 100.5t48 102.5t121 39.5q18 0 36.5 -3t47.5 -13q19 -6 28.5 -8t17.5 -2
q12 0 23.5 5.5t28.5 20.5v-164h-2q-31 67 -79 106t-101 39z" />
    <glyph glyph-name="uni021A" unicode="&#x21a;" horiz-adv-x="731" 
d="M104 700h523q22 0 34.5 2t19.5 6l34 -214h-2q-36 62 -52.5 85.5t-30.5 39.5q-28 30 -59.5 43t-74.5 13h-70v-555q0 -51 13 -76t47 -42v-2h-241v2q34 17 47 42t13 76v555h-70q-43 0 -74.5 -13t-59.5 -43q-14 -16 -30.5 -39t-53.5 -86h-2l34 214q7 -4 19.5 -6t35.5 -2z
M362 -51q36 0 58.5 -24.5t22.5 -64.5q0 -53 -41.5 -86t-111.5 -34v14q53 6 79 27t28 60q-7 -6 -19.5 -10t-24.5 -4q-24 0 -41.5 17.5t-17.5 41.5q0 27 19 45t49 18z" />
    <glyph glyph-name="uni021B" unicode="&#x21b;" horiz-adv-x="374" 
d="M254 51q36 0 60 29.5t34 84.5l9 -1q-8 -85 -45.5 -129.5t-102.5 -44.5q-66 0 -101.5 39.5t-35.5 113.5v320h-65v8q65 13 110.5 63t61.5 127h9v-172h154l-5 -26h-149v-319q0 -46 17 -69.5t49 -23.5zM183 -51q36 0 58.5 -24.5t22.5 -64.5q0 -53 -41.5 -86t-111.5 -34v14
q53 6 79 27t28 60q-7 -6 -19.5 -10t-24.5 -4q-24 0 -41.5 17.5t-17.5 41.5q0 27 19 45t49 18z" />
    <glyph glyph-name="uni0237" unicode="&#x237;" horiz-adv-x="252" 
d="M188 489v-534q0 -90 -51.5 -139t-144.5 -49q-65 0 -105.5 25.5t-40.5 68.5q0 28 20.5 45.5t52.5 17.5q17 0 31.5 -4.5t23.5 -12.5q-20 -6 -30.5 -20.5t-10.5 -36.5q0 -32 16 -49.5t47 -17.5q40 0 58 32.5t18 106.5v457q0 47 -12.5 69.5t-46.5 38.5v2h175z" />
    <glyph glyph-name="circumflex" unicode="&#x2c6;" 
d="M408 547h-9q-38 16 -77.5 41t-71.5 52q-32 -27 -71.5 -52t-77.5 -41h-9q51 51 93.5 109t62.5 105h4q20 -47 62.5 -105t93.5 -109z" />
    <glyph glyph-name="caron" unicode="&#x2c7;" 
d="M92 761h9q39 -17 79 -42t70 -51q30 26 70 51t79 42h9q-50 -50 -93 -108.5t-63 -105.5h-4q-20 47 -63 105.5t-93 108.5z" />
    <glyph glyph-name="breve" unicode="&#x2d8;" 
d="M387 747h7q-1 -83 -40 -133t-104 -50t-104 50t-40 133h7q5 -46 43.5 -72.5t93.5 -26.5t93.5 26.5t43.5 72.5z" />
    <glyph glyph-name="dotaccent" unicode="&#x2d9;" 
d="M250 582q-31 0 -53 21t-22 51q0 31 21.5 52t53.5 21t53.5 -21t21.5 -52q0 -30 -22 -51t-53 -21z" />
    <glyph glyph-name="ring" unicode="&#x2da;" 
d="M150 660q0 40 29.5 69t70.5 29t70.5 -29t29.5 -69q0 -41 -29.5 -70t-70.5 -29t-70.5 29t-29.5 70zM176 660q0 -30 22 -51.5t52 -21.5t52 21.5t22 51.5q0 29 -22 50.5t-52 21.5t-52 -21.5t-22 -50.5z" />
    <glyph glyph-name="ogonek" unicode="&#x2db;" 
d="M233 -238q-42 0 -70 24.5t-28 63.5q0 40 31 75.5t138 93.5l4 -7q-46 -33 -70 -67.5t-24 -68.5q0 -30 16.5 -46.5t45.5 -16.5q30 0 52.5 13t41.5 40l3 -2q-20 -51 -55 -76.5t-85 -25.5z" />
    <glyph glyph-name="tilde" unicode="&#x2dc;" 
d="M423 724h8q-15 -71 -44 -109t-68 -38q-16 0 -33.5 6t-51.5 26q-29 17 -43.5 22.5t-26.5 5.5q-28 0 -50 -16t-37 -49h-8q15 71 44 109t68 38q16 0 33.5 -6t51.5 -26q29 -17 43.5 -22.5t26.5 -5.5q28 0 50 16.5t37 48.5z" />
    <glyph glyph-name="hungarumlaut" unicode="&#x2dd;" 
d="M149 749h118q-32 -57 -75.5 -104t-103.5 -89h-5q30 52 46 98t20 95zM299 749h118q-32 -57 -75.5 -104t-103.5 -89h-5q30 52 46 98t20 95z" />
    <glyph glyph-name="Wgrave" unicode="&#x1e80;" horiz-adv-x="953" 
d="M333 920h130q6 -54 20 -95t39 -79h-4q-62 38 -107.5 80.5t-77.5 93.5zM655 -10h-3l-170 464l-175 -464h-4l-232 598q-19 49 -34.5 72t-38.5 38v2h228v-2q-21 -11 -31 -24.5t-10 -30.5q0 -12 3 -26.5t10 -31.5l153 -405l116 315l-34 93q-19 49 -34.5 72t-38.5 38v2h224v-2
q-21 -11 -31 -24.5t-10 -30.5q0 -11 3.5 -25.5t10.5 -32.5l140 -408l143 392q4 12 6.5 24t2.5 23q-1 27 -13.5 48t-36.5 34v2h160v-2q-25 -16 -45.5 -45.5t-37.5 -74.5z" />
    <glyph glyph-name="wgrave" unicode="&#x1e81;" horiz-adv-x="759" 
d="M527 -10h-2l-136 334l-147 -334h-2l-171 391q-21 46 -35 66t-40 40v2h203v-2q-15 -8 -21 -17.5t-6 -26.5q0 -9 3.5 -22.5t12.5 -38.5l99 -233l90 209l-9 23q-20 46 -34 65.5t-41 40.5v2h202v-2q-16 -8 -23 -18t-7 -27q0 -8 3.5 -21.5t12.5 -38.5l88 -230l89 224
q5 13 7.5 25.5t2.5 22.5q0 23 -11.5 39t-33.5 24v2h144v-2q-30 -23 -44.5 -44.5t-32.5 -64.5zM249 749h124q5 -51 20 -97t43 -96h-4q-63 44 -108 91.5t-75 101.5z" />
    <glyph glyph-name="Wacute" unicode="&#x1e82;" horiz-adv-x="953" 
d="M479 920h131q-32 -50 -77 -92.5t-108 -81.5h-4q25 39 39 80t19 94zM655 -10h-3l-170 464l-175 -464h-4l-232 598q-19 49 -34.5 72t-38.5 38v2h228v-2q-21 -11 -31 -24.5t-10 -30.5q0 -12 3 -26.5t10 -31.5l153 -405l116 315l-34 93q-19 49 -34.5 72t-38.5 38v2h224v-2
q-21 -11 -31 -24.5t-10 -30.5q0 -11 3.5 -25.5t10.5 -32.5l140 -408l143 392q4 12 6.5 24t2.5 23q-1 27 -13.5 48t-36.5 34v2h160v-2q-25 -16 -45.5 -45.5t-37.5 -74.5z" />
    <glyph glyph-name="wacute" unicode="&#x1e83;" horiz-adv-x="759" 
d="M388 749h124q-31 -55 -76 -102t-107 -91h-4q29 51 44 97.5t19 95.5zM527 -10h-2l-136 334l-147 -334h-2l-171 391q-21 46 -35 66t-40 40v2h203v-2q-15 -8 -21 -17.5t-6 -26.5q0 -9 3.5 -22.5t12.5 -38.5l99 -233l90 209l-9 23q-20 46 -34 65.5t-41 40.5v2h202v-2
q-16 -8 -23 -18t-7 -27q0 -8 3.5 -21.5t12.5 -38.5l88 -230l89 224q5 13 7.5 25.5t2.5 22.5q0 23 -11.5 39t-33.5 24v2h144v-2q-30 -23 -44.5 -44.5t-32.5 -64.5z" />
    <glyph glyph-name="Wdieresis" unicode="&#x1e84;" horiz-adv-x="953" 
d="M455 831q0 -29 -20 -49t-48 -20q-29 0 -48 20t-19 49t19.5 48.5t47.5 19.5t48 -20t20 -48zM644 831q0 -29 -19.5 -49t-47.5 -20t-48.5 20.5t-20.5 48.5t20.5 48t48.5 20t47.5 -20t19.5 -48zM655 -10h-3l-170 464l-175 -464h-4l-232 598q-19 49 -34.5 72t-38.5 38v2h228
v-2q-21 -11 -31 -24.5t-10 -30.5q0 -12 3 -26.5t10 -31.5l153 -405l116 315l-34 93q-19 49 -34.5 72t-38.5 38v2h224v-2q-21 -11 -31 -24.5t-10 -30.5q0 -11 3.5 -25.5t10.5 -32.5l140 -408l143 392q4 12 6.5 24t2.5 23q-1 27 -13.5 48t-36.5 34v2h160v-2
q-25 -16 -45.5 -45.5t-37.5 -74.5z" />
    <glyph glyph-name="wdieresis" unicode="&#x1e85;" horiz-adv-x="759" 
d="M363 640q0 -28 -20 -48t-48 -20t-47.5 19.5t-19.5 48.5t19.5 49t47.5 20t48 -20.5t20 -48.5zM552 640q0 -28 -19.5 -48t-47.5 -20t-48.5 20t-20.5 48t20.5 48.5t48.5 20.5q27 0 47 -20.5t20 -48.5zM527 -10h-2l-136 334l-147 -334h-2l-171 391q-21 46 -35 66t-40 40v2
h203v-2q-15 -8 -21 -17.5t-6 -26.5q0 -9 3.5 -22.5t12.5 -38.5l99 -233l90 209l-9 23q-20 46 -34 65.5t-41 40.5v2h202v-2q-16 -8 -23 -18t-7 -27q0 -8 3.5 -21.5t12.5 -38.5l88 -230l89 224q5 13 7.5 25.5t2.5 22.5q0 23 -11.5 39t-33.5 24v2h144v-2q-30 -23 -44.5 -44.5
t-32.5 -64.5z" />
    <glyph glyph-name="Ygrave" unicode="&#x1ef2;" horiz-adv-x="668" 
d="M218 597l164 -269l158 258q7 14 11 26.5t4 22.5q0 20 -11 36.5t-31 26.5v2h157v-2q-27 -17 -48.5 -41.5t-46.5 -65.5l-184 -299v-172q0 -51 13 -76t47 -42v-2h-236v2q34 17 47 42t13 76v172l-188 306q-23 38 -42.5 59.5t-46.5 40.5v2h242v-2q-19 -12 -27.5 -25t-8.5 -30
q0 -12 3.5 -23t10.5 -23zM207 920h130q6 -54 20 -95t39 -79h-4q-62 38 -107.5 80.5t-77.5 93.5z" />
    <glyph glyph-name="ygrave" unicode="&#x1ef3;" horiz-adv-x="519" 
d="M130 -181q27 0 47 20.5t44 74.5l36 81l-188 386q-24 50 -37 68.5t-38 37.5v2h209v-2q-17 -8 -23.5 -18t-6.5 -27q0 -11 4.5 -27.5t12.5 -32.5l121 -256l106 249q5 13 8 26t3 24q0 22 -11 38t-32 24v2h140v-2q-26 -19 -41.5 -41.5t-37.5 -73.5l-203 -472
q-31 -71 -65.5 -102t-80.5 -31q-43 0 -69.5 22.5t-26.5 60.5q0 33 21 53.5t53 20.5q10 0 18 -1.5t16 -5.5q-15 -6 -22.5 -17.5t-7.5 -29.5q0 -23 14 -37t37 -14zM140 749h124q5 -51 20 -97t43 -96h-4q-63 44 -108 91.5t-75 101.5z" />
    <glyph glyph-name="endash" unicode="&#x2013;" horiz-adv-x="490" 
d="M455 262h-420v33h420v-33z" />
    <glyph glyph-name="emdash" unicode="&#x2014;" horiz-adv-x="790" 
d="M755 262h-720v33h720v-33z" />
    <glyph glyph-name="quoteleft" unicode="&#x2018;" horiz-adv-x="214" 
d="M69 575q7 10 19.5 15t30.5 5q27 0 45 -18t18 -45q0 -31 -21 -51t-54 -20q-39 0 -63 30t-24 78q0 70 51.5 115.5t132.5 47.5v-15q-67 -8 -104 -46t-31 -96z" />
    <glyph glyph-name="quoteright" unicode="&#x2019;" horiz-adv-x="214" 
d="M145 619q-7 -10 -19.5 -15t-30.5 -5q-27 0 -45 18t-18 45q0 31 21 51t54 20q39 0 63 -30t24 -78q0 -70 -51.5 -115.5t-132.5 -47.5v15q67 8 104 46t31 96z" />
    <glyph glyph-name="quotesinglbase" unicode="&#x201a;" horiz-adv-x="214" 
d="M145 26q-7 -10 -19.5 -15t-30.5 -5q-27 0 -45 18t-18 45q0 31 21 51t54 20q39 0 63 -30t24 -78q0 -70 -51.5 -115.5t-132.5 -47.5v15q67 8 104 46t31 96z" />
    <glyph glyph-name="quotedblleft" unicode="&#x201c;" horiz-adv-x="416" 
d="M69 575q7 10 19.5 15t30.5 5q27 0 45 -18t18 -45q0 -31 -21 -51t-54 -20q-39 0 -63 30t-24 78q0 70 51.5 115.5t132.5 47.5v-15q-67 -8 -104 -46t-31 -96zM271 575q7 10 19.5 15t30.5 5q27 0 45 -18t18 -45q0 -31 -21 -51t-54 -20q-39 0 -63 30t-24 78q0 70 51.5 115.5
t132.5 47.5v-15q-67 -8 -104 -46t-31 -96z" />
    <glyph glyph-name="quotedblright" unicode="&#x201d;" horiz-adv-x="416" 
d="M145 619q-7 -10 -19.5 -15t-30.5 -5q-27 0 -45 18t-18 45q0 31 21 51t54 20q39 0 63 -30t24 -78q0 -70 -51.5 -115.5t-132.5 -47.5v15q67 8 104 46t31 96zM347 619q-7 -10 -19.5 -15t-30.5 -5q-27 0 -45 18t-18 45q0 31 21 51t54 20q39 0 63 -30t24 -78
q0 -70 -51.5 -115.5t-132.5 -47.5v15q67 8 104 46t31 96z" />
    <glyph glyph-name="quotedblbase" unicode="&#x201e;" horiz-adv-x="416" 
d="M145 26q-7 -10 -19.5 -15t-30.5 -5q-27 0 -45 18t-18 45q0 31 21 51t54 20q39 0 63 -30t24 -78q0 -70 -51.5 -115.5t-132.5 -47.5v15q67 8 104 46t31 96zM347 26q-7 -10 -19.5 -15t-30.5 -5q-27 0 -45 18t-18 45q0 31 21 51t54 20q39 0 63 -30t24 -78q0 -70 -51.5 -115.5
t-132.5 -47.5v15q67 8 104 46t31 96z" />
    <glyph glyph-name="dagger" unicode="&#x2020;" horiz-adv-x="398" 
d="M276 585q-12 -1 -21.5 -9.5t-11.5 -19.5q-18 -90 -28 -172.5t-12 -158.5h-8q-1 76 -11 158.5t-29 172.5q-2 11 -11.5 19.5t-21.5 9.5q-6 -21 -20.5 -33.5t-33.5 -12.5q-16 0 -26 10t-10 26q0 14 10 25t25 15q2 -11 7.5 -16.5t15.5 -5.5q4 0 7.5 0.5t11.5 3.5q8 2 13 3
t9 1q16 0 35 -10t26 -22q-3 43 -14 81.5t-29 69.5q11 14 23.5 21.5t26.5 7.5t26.5 -7.5t23.5 -21.5q-18 -31 -29 -69.5t-14 -81.5q7 12 26 22t35 10q4 0 9 -1t13 -3q8 -3 11.5 -3.5t7.5 -0.5q10 0 15.5 5.5t7.5 16.5q15 -4 25 -15t10 -25q0 -16 -10 -26t-26 -10
q-19 0 -33.5 12.5t-20.5 33.5z" />
    <glyph glyph-name="daggerdbl" unicode="&#x2021;" horiz-adv-x="398" 
d="M281 624q-20 -6 -47 -54t-31 -97h-8q-4 49 -31 97t-47 54q-6 -23 -18.5 -34.5t-30.5 -11.5q-16 0 -26 10t-10 26q0 14 10 25t25 15q2 -11 7 -16t16 -5q4 0 7.5 0.5t11.5 2.5q8 3 13 3.5t9 0.5q16 0 35 -9t26 -21q-2 31 -12 56.5t-31 51.5q7 14 21 22.5t29 8.5t29 -8.5
t21 -22.5q-21 -26 -31 -51.5t-12 -56.5q7 12 26 21t35 9q4 0 9 -0.5t13 -3.5q8 -2 11.5 -2.5t7.5 -0.5q11 0 16 5t7 16q15 -4 25 -15t10 -25q0 -16 -10 -26t-26 -10q-18 0 -30.5 11.5t-18.5 34.5zM195 453h8q4 -49 31 -97t47 -54q6 23 18.5 34.5t30.5 11.5q16 0 26 -10
t10 -26q0 -14 -10 -25t-25 -15q-2 11 -7.5 16.5t-15.5 5.5q-4 0 -7.5 -0.5t-11.5 -3.5q-8 -2 -13 -3t-9 -1q-16 0 -35 9t-26 21q2 -31 12 -56.5t31 -51.5q-7 -14 -21 -22.5t-29 -8.5t-29 8.5t-21 22.5q21 26 31 51.5t12 56.5q-7 -12 -26 -21t-35 -9q-4 0 -9 1t-13 3
q-8 3 -11.5 3.5t-7.5 0.5q-10 0 -15.5 -5.5t-7.5 -16.5q-15 4 -25 15t-10 25q0 16 10 26t26 10q18 0 30.5 -11.5t18.5 -34.5q20 6 47 54t31 97z" />
    <glyph glyph-name="bullet" unicode="&#x2022;" horiz-adv-x="326" 
d="M163 145q-52 0 -90 38t-38 90q0 53 38 90.5t90 37.5q53 0 90.5 -37.5t37.5 -90.5q0 -52 -37.5 -90t-90.5 -38z" />
    <glyph glyph-name="ellipsis" unicode="&#x2026;" horiz-adv-x="628" 
d="M513 148q33 0 55.5 -23t22.5 -56q0 -32 -23 -55t-55 -23t-54.5 23t-22.5 55q0 33 22 56t55 23zM314 148q33 0 55.5 -23t22.5 -56q0 -32 -23 -55t-55 -23t-54.5 23t-22.5 55q0 33 22 56t55 23zM114 148q33 0 55.5 -23t22.5 -56q0 -32 -23 -55t-55 -23t-54.5 23t-22.5 55
q0 33 22 56t55 23z" />
    <glyph glyph-name="perthousand" unicode="&#x2030;" horiz-adv-x="982" 
d="M528 710l-379 -710h-40l377 672q-25 -22 -55.5 -33.5t-64.5 -11.5q-19 0 -37 3t-37 10q11 -17 17.5 -38t6.5 -42q0 -62 -43.5 -106t-104.5 -44t-104.5 44t-43.5 106t43.5 106t104.5 44q21 0 39.5 -5.5t48.5 -23.5q35 -21 58.5 -27.5t51.5 -6.5q41 0 71.5 13t78.5 59z
M105 560q0 -67 16 -100t47 -33t47 33t16 100t-16 100t-47 33t-47 -33t-16 -100zM814 295q61 0 104.5 -44.5t43.5 -105.5q0 -62 -43.5 -106t-104.5 -44t-104.5 44t-43.5 106q0 61 43.5 105.5t104.5 44.5zM629 145q0 -62 -44 -106t-105 -44t-104.5 44t-43.5 106
q0 61 43.5 105.5t104.5 44.5t105 -44.5t44 -105.5zM751 145q0 -67 16 -100t47 -33t47 33t16 100q0 66 -15.5 99t-47.5 33t-47.5 -33t-15.5 -99zM417 145q0 -66 16 -99.5t47 -33.5t47 33t16 100q0 66 -15.5 99t-47.5 33q-31 0 -47 -33.5t-16 -98.5z" />
    <glyph glyph-name="guilsinglleft" unicode="&#x2039;" horiz-adv-x="283" 
d="M15 243v2q70 37 135 86t112 101h4q-21 -47 -50 -93.5t-68 -94.5q39 -48 68 -94.5t50 -93.5h-4q-47 52 -112 101t-135 86z" />
    <glyph glyph-name="guilsinglright" unicode="&#x203a;" horiz-adv-x="283" 
d="M277 245v-2q-69 -37 -134 -86t-112 -101h-4q22 49 52 96.5t66 91.5q-36 44 -66 91.5t-52 96.5h4q47 -52 112 -101t134 -86z" />
    <glyph glyph-name="fraction" unicode="&#x2044;" horiz-adv-x="346" 
d="M31 -123h-31l295 872h31z" />
    <glyph glyph-name="Euro" unicode="&#x20ac;" horiz-adv-x="652" 
d="M617 210h6q-17 -106 -81.5 -163t-164.5 -57q-112 0 -189 82t-90 219h-65v20h64q-1 5 -1 11.5v19.5q0 8 0.5 18t1.5 26h-65v19h67q16 139 101 222t210 83q86 0 142.5 -40t56.5 -103q0 -41 -24.5 -65t-65.5 -24q-25 0 -45 11.5t-27 29.5q3 -1 5.5 -1h7.5q29 0 46 19t17 51
q0 48 -30 76t-83 28q-81 0 -130.5 -76t-58.5 -211h215l-7 -19h-209q-1 -6 -1 -13v-22v-25t1 -15h185l-8 -20h-175q12 -109 66 -173t133 -64q75 0 122.5 38t72.5 118z" />
    <glyph glyph-name="trademark" unicode="&#x2122;" horiz-adv-x="850" 
d="M77 700h244q9 0 15 0.5t11 2.5l14 -100h-3l-13 21t-22 31q-12 15 -24.5 21.5t-28.5 6.5h-33v-238q0 -20 5 -29t25 -19v-2h-134v2q20 12 25 21t5 27v238h-35q-16 0 -28.5 -6.5t-24.5 -20.5q-5 -5 -13.5 -18.5t-21.5 -34.5h-2l13 100q6 -2 11.5 -2.5t14.5 -0.5zM501 700
l90 -200l86 200h101v-2q-18 -12 -22 -20t-4 -27v-208q0 -19 4 -27t22 -19v-2h-124v2q17 11 20.5 19t3.5 27v216l-118 -269h-2l-117 269v-216q0 -18 4 -26t23 -20v-2h-75v2q18 12 22 20t4 26v206q0 19 -4 28t-22 21v2h108z" />
    <glyph glyph-name="uni2153" unicode="&#x2153;" horiz-adv-x="405" 
d="M163 452v206q0 16 -9 23t-42 13v6h126v-248q0 -16 8.5 -23t40.5 -13v-6h-173v6q32 6 40.5 13t8.5 23zM20 342v16h365v-16h-365zM149 58q0 -21 12 -34t32 -13q21 0 34.5 19.5t13.5 49.5q0 36 -15.5 53.5t-46.5 17.5v9q27 1 39.5 17t12.5 50q0 24 -9.5 38.5t-26.5 14.5
q-16 0 -26.5 -11t-10.5 -28q0 -15 6 -24t16 -9q5 0 6.5 0.5t2.5 1.5l2 -1q-5 -10 -15.5 -15.5t-25.5 -5.5q-20 0 -32.5 12t-12.5 32q0 28 25 45t65 17q49 0 78 -19t29 -51q0 -28 -21 -45.5t-58 -20.5q41 -2 66 -23t25 -55q0 -39 -33 -61.5t-88 -22.5q-46 0 -75 18.5
t-29 50.5q0 23 14 36t37 13q16 0 27 -5.5t15 -15.5l-2 -1q-2 1 -3.5 1.5t-5.5 0.5q-10 0 -16 -9.5t-6 -26.5z" />
    <glyph glyph-name="uni2154" unicode="&#x2154;" horiz-adv-x="405" 
d="M235 635q0 25 -12 39.5t-33 14.5q-20 0 -33 -13t-13 -32t9 -30.5t24 -11.5q7 0 10.5 1t7.5 5h2q-6 -17 -18.5 -25.5t-30.5 -8.5q-23 0 -38 15t-15 40q0 34 26.5 54.5t68.5 20.5q54 0 85 -22t31 -62q0 -39 -30.5 -71.5t-120.5 -82.5h71q39 1 53.5 8t28.5 28h4l-12 -92
h-214v2q91 88 120 132t29 91zM20 342v16h365v-16h-365zM149 58q0 -21 12 -34t32 -13q21 0 34.5 19.5t13.5 49.5q0 36 -15.5 53.5t-46.5 17.5v9q27 1 39.5 17t12.5 50q0 24 -9.5 38.5t-26.5 14.5q-16 0 -26.5 -11t-10.5 -28q0 -15 6 -24t16 -9q5 0 6.5 0.5t2.5 1.5l2 -1
q-5 -10 -15.5 -15.5t-25.5 -5.5q-20 0 -32.5 12t-12.5 32q0 28 25 45t65 17q49 0 78 -19t29 -51q0 -28 -21 -45.5t-58 -20.5q41 -2 66 -23t25 -55q0 -39 -33 -61.5t-88 -22.5q-46 0 -75 18.5t-29 50.5q0 23 14 36t37 13q16 0 27 -5.5t15 -15.5l-2 -1q-2 1 -3.5 1.5t-5.5 0.5
q-10 0 -16 -9.5t-6 -26.5z" />
    <glyph glyph-name="uni215B" unicode="&#x215b;" horiz-adv-x="405" 
d="M171 452v206q0 16 -9 23t-42 13v6h126v-248q0 -16 8.5 -23t40.5 -13v-6h-173v6q32 6 40.5 13t8.5 23zM20 342v16h365v-16h-365zM302 232q0 -22 -17.5 -36.5t-44.5 -18.5q41 -14 61 -36.5t20 -54.5q0 -41 -31 -65.5t-82 -24.5q-52 0 -83.5 19.5t-31.5 52.5q0 24 18 40
t50 22q-25 10 -40.5 31t-15.5 46q0 40 28 63.5t73 23.5q43 0 69.5 -17t26.5 -45zM206 279q-22 0 -34.5 -10.5t-12.5 -27.5q0 -16 9.5 -27t30.5 -19l37 -16q12 11 17.5 24t5.5 29q0 21 -14.5 34t-38.5 13zM215 107l-49 20q-13 -8 -19.5 -22t-6.5 -32q0 -27 19 -44t49 -17
q26 0 41.5 11t15.5 30q0 18 -9.5 29t-40.5 25z" />
    <glyph glyph-name="uni215C" unicode="&#x215c;" horiz-adv-x="405" 
d="M157 468q0 -21 12 -34t32 -13q21 0 34.5 19.5t13.5 49.5q0 36 -15.5 53.5t-46.5 17.5v9q27 1 39.5 17t12.5 50q0 24 -9.5 38.5t-26.5 14.5q-16 0 -26.5 -11t-10.5 -28q0 -15 6 -24t16 -9q5 0 6.5 0.5t2.5 1.5l2 -1q-5 -10 -15.5 -15.5t-25.5 -5.5q-20 0 -32.5 12
t-12.5 32q0 28 25 45t65 17q49 0 78 -19t29 -51q0 -28 -21 -45.5t-58 -20.5q41 -2 66 -23t25 -55q0 -39 -33 -61.5t-88 -22.5q-46 0 -75 18.5t-29 50.5q0 23 14 36t37 13q16 0 27 -5.5t15 -15.5l-2 -1q-2 1 -3.5 1.5t-5.5 0.5q-10 0 -16 -9.5t-6 -26.5zM20 342v16h365v-16
h-365zM302 232q0 -22 -17.5 -36.5t-44.5 -18.5q41 -14 61 -36.5t20 -54.5q0 -41 -31 -65.5t-82 -24.5q-52 0 -83.5 19.5t-31.5 52.5q0 24 18 40t50 22q-25 10 -40.5 31t-15.5 46q0 40 28 63.5t73 23.5q43 0 69.5 -17t26.5 -45zM206 279q-22 0 -34.5 -10.5t-12.5 -27.5
q0 -16 9.5 -27t30.5 -19l37 -16q12 11 17.5 24t5.5 29q0 21 -14.5 34t-38.5 13zM215 107l-49 20q-13 -8 -19.5 -22t-6.5 -32q0 -27 19 -44t49 -17q26 0 41.5 11t15.5 30q0 18 -9.5 29t-40.5 25z" />
    <glyph glyph-name="uni215D" unicode="&#x215d;" horiz-adv-x="405" 
d="M219 600q45 0 72.5 -25t27.5 -66q0 -46 -34 -74.5t-87 -28.5q-45 0 -73 18.5t-28 50.5q0 22 14 35.5t36 13.5q15 0 26 -6t15 -17h-2q-2 1 -4 1.5t-4 0.5q-11 0 -17 -10t-6 -27q0 -20 11.5 -32.5t31.5 -12.5q23 0 36 22t13 57t-15.5 55.5t-42.5 20.5q-15 0 -29.5 -7
t-25.5 -19h-2l18 153q20 -3 45 -4.5t45 -1.5q30 0 44 4t25 14h1q0 -41 -17.5 -60t-55.5 -19q-18 0 -42 4.5t-37 9.5l-9 -75q13 12 31 18.5t39 6.5zM20 342v16h365v-16h-365zM302 232q0 -22 -17.5 -36.5t-44.5 -18.5q41 -14 61 -36.5t20 -54.5q0 -41 -31 -65.5t-82 -24.5
q-52 0 -83.5 19.5t-31.5 52.5q0 24 18 40t50 22q-25 10 -40.5 31t-15.5 46q0 40 28 63.5t73 23.5q43 0 69.5 -17t26.5 -45zM206 279q-22 0 -34.5 -10.5t-12.5 -27.5q0 -16 9.5 -27t30.5 -19l37 -16q12 11 17.5 24t5.5 29q0 21 -14.5 34t-38.5 13zM215 107l-49 20
q-13 -8 -19.5 -22t-6.5 -32q0 -27 19 -44t49 -17q26 0 41.5 11t15.5 30q0 18 -9.5 29t-40.5 25z" />
    <glyph glyph-name="uni215E" unicode="&#x215e;" horiz-adv-x="405" 
d="M116 593h-5l9 107h210v-1l-56 -87q-24 -38 -32.5 -89t-0.5 -109l-77 -8q6 54 27.5 103t67.5 105l15 20h-106q-20 0 -30 -8t-22 -33zM20 342v16h365v-16h-365zM302 232q0 -22 -17.5 -36.5t-44.5 -18.5q41 -14 61 -36.5t20 -54.5q0 -41 -31 -65.5t-82 -24.5
q-52 0 -83.5 19.5t-31.5 52.5q0 24 18 40t50 22q-25 10 -40.5 31t-15.5 46q0 40 28 63.5t73 23.5q43 0 69.5 -17t26.5 -45zM206 279q-22 0 -34.5 -10.5t-12.5 -27.5q0 -16 9.5 -27t30.5 -19l37 -16q12 11 17.5 24t5.5 29q0 21 -14.5 34t-38.5 13zM215 107l-49 20
q-13 -8 -19.5 -22t-6.5 -32q0 -27 19 -44t49 -17q26 0 41.5 11t15.5 30q0 18 -9.5 29t-40.5 25z" />
    <glyph glyph-name="minus" unicode="&#x2212;" horiz-adv-x="479" 
d="M435 308h-391v28h391v-28z" />
    <glyph glyph-name="approxequal" unicode="&#x2248;" horiz-adv-x="484" 
d="M151 391q-24 0 -50 -14t-55 -43v35q26 26 52 39t53 13q18 0 37.5 -5.5t54.5 -23.5q34 -17 52 -22t35 -5q26 0 53.5 14.5t54.5 42.5v-34q-26 -26 -53 -39.5t-55 -13.5q-18 0 -37 5.5t-54 22.5q-34 17 -52.5 22.5t-35.5 5.5zM151 283q-25 0 -51 -14.5t-54 -42.5v35
q26 26 52 39t53 13q18 0 37.5 -5.5t54.5 -23.5q34 -17 52 -22t35 -5q26 0 53.5 14.5t54.5 43.5v-35q-26 -26 -53 -39.5t-55 -13.5q-18 0 -37 5.5t-54 22.5q-34 17 -52.5 22.5t-35.5 5.5z" />
    <glyph glyph-name="notequal" unicode="&#x2260;" horiz-adv-x="484" 
d="M438 273v-26h-239l-83 -102h-35l83 102h-118v26h139l81 100h-220v26h241l81 100h35l-81 -100h116v-26h-137l-81 -100h218z" />
    <glyph glyph-name="lessequal" unicode="&#x2264;" horiz-adv-x="351" 
d="M311 221l-285 125v14l285 125v-30l-235 -102l235 -102v-30zM311 139h-285v26h285v-26z" />
    <glyph glyph-name="greaterequal" unicode="&#x2265;" horiz-adv-x="351" 
d="M40 485l285 -125v-14l-285 -125v30l235 102l-235 102v30zM40 165h285v-26h-285v26z" />
    <glyph glyph-name="commaaccent" unicode="&#xf6c3;" 
d="M247 -51q36 0 58.5 -24.5t22.5 -64.5q0 -53 -41.5 -86t-111.5 -34v14q53 6 79 27t28 60q-7 -6 -19.5 -10t-24.5 -4q-24 0 -41.5 17.5t-17.5 41.5q0 27 19 45t49 18z" />
    <glyph glyph-name="thinspace" horiz-adv-x="40" 
 />
    <glyph glyph-name="idotaccent" horiz-adv-x="275" 
d="M24 489h175v-380q0 -52 10.5 -71.5t43.5 -35.5v-2h-224v2q33 16 43.5 35.5t10.5 71.5v270q0 48 -12.5 70t-46.5 38v2zM138 582q-31 0 -53 21t-22 51q0 31 21.5 52t53.5 21t53.5 -21t21.5 -52q0 -30 -22 -51t-53 -21z" />
    <glyph glyph-name="f_idieresis" horiz-adv-x="534" 
d="M614 640q0 -28 -20 -48t-48 -20t-48.5 20t-20.5 48t20.5 48.5t48.5 20.5t48 -20.5t20 -48.5zM285 737q-44 0 -65 -37t-21 -115v-96h319v-380q0 -51 10.5 -71t43.5 -36v-2h-223v2q33 16 43 35.5t10 71.5v306q0 25 -11.5 36.5t-36.5 11.5h-155v-354q0 -44 16 -67t62 -40v-2
h-248v2q33 16 43.5 35.5t10.5 71.5v354h-66v8l66 22v41q0 101 55.5 160t150.5 59q64 0 100.5 -28t36.5 -76q0 -33 -21 -55t-55 -22q-18 0 -33 5t-26 16q24 7 37.5 26.5t13.5 48.5q0 33 -15 51t-42 18z" />
    <glyph glyph-name="f_f_idieresis" horiz-adv-x="914" 
d="M199 563v-74h203v45q0 7 0.5 15t1.5 18h-3q-16 0 -30.5 5.5t-25.5 15.5q21 6 33.5 21.5t12.5 36.5q0 37 -21 57.5t-59 20.5q-55 0 -83.5 -41t-28.5 -120zM920 640q0 -28 -19.5 -48t-47.5 -20t-48.5 20t-20.5 48t20.5 48.5t48.5 20.5q27 0 47 -20.5t20 -48.5zM277 2v-2
h-248v2q33 16 43.5 35.5t10.5 71.5v354h-66v8l66 22v29q0 101 62 160t166 59q43 0 80 -15.5t57 -42.5q27 34 68 52t92 18q64 0 100.5 -28t36.5 -76q0 -33 -21 -55t-55 -22q-18 0 -33 5t-26 16q24 7 38 26.5t14 48.5q0 32 -15 50.5t-42 18.5q-44 0 -65.5 -37.5t-21.5 -114.5
v-96h320v-380q0 -52 10 -71.5t43 -35.5v-2h-223v2q33 16 43.5 36t10.5 71v306q0 25 -11.5 36.5t-36.5 11.5h-156v-354q0 -44 16 -67t62 -40v-2h-247v2q33 16 43 35.5t10 71.5v354h-203v-354q0 -44 16 -67t62 -40z" />
    <glyph glyph-name="caron.Slovak" 
d="M214 749h105q-11 -52 -45.5 -113t-73.5 -98h-3q12 45 16.5 100.5t0.5 110.5z" />
    <glyph glyph-name="commaturn" 
d="M253 559q-36 0 -58.5 24.5t-22.5 64.5q0 54 41.5 87t111.5 34v-14q-53 -6 -79 -27t-28 -60q7 6 19 9.5t25 3.5q24 0 41.5 -17t17.5 -41q0 -28 -19.5 -46t-48.5 -18z" />
    <glyph glyph-name="dotbelow" 
d="M250 -211q-31 0 -53 21.5t-22 52.5t21.5 51.5t53.5 20.5t53.5 -20.5t21.5 -51.5t-22 -52.5t-53 -21.5z" />
    <glyph glyph-name="grave.cap" 
d="M156 920h130q6 -54 20 -95t39 -79h-4q-62 38 -107.5 80.5t-77.5 93.5z" />
    <glyph glyph-name="acute.cap" 
d="M214 920h131q-32 -50 -77 -92.5t-108 -81.5h-4q25 39 39 80t19 94z" />
    <glyph glyph-name="circumflex.cap" 
d="M418 738h-9q-44 18 -83.5 40t-65.5 44q-26 -22 -65.5 -44t-83.5 -40h-9q49 46 92 101t64 100h4q21 -45 64 -100t92 -101z" />
    <glyph glyph-name="tilde.cap" 
d="M423 914h8q-15 -71 -44 -109t-68 -38q-16 0 -33.5 6t-51.5 26q-29 17 -43.5 22.5t-26.5 5.5q-28 0 -50 -16t-37 -49h-8q15 71 44 109t68 38q16 0 33.5 -6t51.5 -26q29 -17 43.5 -22.5t26.5 -5.5q28 0 50 16.5t37 48.5z" />
    <glyph glyph-name="macron.cap" 
d="M395 817v-36h-286v36h286z" />
    <glyph glyph-name="breve.cap" 
d="M388 923h7q-1 -77 -40.5 -124t-103.5 -47q-65 0 -104.5 46.5t-40.5 124.5h7q5 -41 44.5 -65t93.5 -24t93 24.5t44 64.5z" />
    <glyph glyph-name="dotaccent.cap" 
d="M250 761q-31 0 -53 21.5t-22 51.5q0 31 21.5 52t53.5 21t53.5 -21t21.5 -52q0 -30 -22 -51.5t-53 -21.5z" />
    <glyph glyph-name="dieresis.cap" 
d="M223 831q0 -29 -20 -49t-48 -20q-29 0 -48 20t-19 49t19.5 48.5t47.5 19.5t48 -20t20 -48zM412 831q0 -29 -19.5 -49t-47.5 -20t-48.5 20.5t-20.5 48.5t20.5 48t48.5 20t47.5 -20t19.5 -48z" />
    <glyph glyph-name="ring.cap" 
d="M150 850q0 40 29.5 69t70.5 29t70.5 -29t29.5 -69q0 -41 -29.5 -70t-70.5 -29t-70.5 29t-29.5 70zM176 850q0 -30 22 -51.5t52 -21.5t52 21.5t22 51.5q0 29 -22 50.5t-52 21.5t-52 -21.5t-22 -50.5z" />
    <glyph glyph-name="hungarumlaut.cap" 
d="M134 920h126q-32 -53 -76 -95t-104 -79h-5q25 37 38.5 77.5t20.5 96.5zM297 920h127q-33 -53 -77 -95t-104 -79h-4q25 39 39 80t19 94z" />
    <glyph glyph-name="caron.cap" 
d="M92 940h9q44 -18 83.5 -40t65.5 -44q26 22 65.5 44t83.5 40h9q-49 -46 -92 -101t-64 -100h-4q-21 45 -64 100t-92 101z" />
    <glyph glyph-name="exclamdown.cap" horiz-adv-x="274" 
d="M140 484l76 -484h-158l77 484h5zM137 552q-33 0 -55.5 23t-22.5 56q0 32 23 55t55 23q33 0 55.5 -22.5t22.5 -55.5q0 -34 -22.5 -56.5t-55.5 -22.5z" />
    <glyph glyph-name="questiondown.cap" horiz-adv-x="511" 
d="M129 147q0 -59 37.5 -97.5t99.5 -38.5q56 0 91.5 33t35.5 82q0 33 -18.5 54.5t-47.5 21.5q-9 0 -19.5 -3t-17.5 -8l-1 1q12 32 35.5 49t57.5 17q44 0 73 -30t29 -78q0 -69 -61.5 -114t-156.5 -45q-106 0 -172.5 54.5t-66.5 138.5q0 86 65.5 151t172.5 90v64h20v-171
q-78 -19 -117 -61.5t-39 -109.5zM352 632q0 -33 -22.5 -56t-55.5 -23t-55.5 22.5t-22.5 56.5q0 33 22.5 55.5t55.5 22.5q32 0 55 -23t23 -55z" />
    <glyph glyph-name="guilsinglleft.cap" horiz-adv-x="283" 
d="M15 345v2q70 37 135 86t112 101h4q-21 -47 -50 -93.5t-68 -94.5q39 -48 68 -94.5t50 -93.5h-4q-47 52 -112 101t-135 86z" />
    <glyph glyph-name="guilsinglright.cap" horiz-adv-x="283" 
d="M277 347v-2q-69 -37 -134 -86t-112 -101h-4q22 49 52 96.5t66 91.5q-36 44 -66 91.5t-52 96.5h4q47 -52 112 -101t134 -86z" />
    <glyph glyph-name="guillemotleft.cap" horiz-adv-x="463" 
d="M15 345v2q70 37 135 86t112 101h4q-21 -47 -50 -93.5t-68 -94.5q39 -48 68 -94.5t50 -93.5h-4q-47 52 -112 101t-135 86zM194 345v2q70 37 135 86t112 101h4q-21 -47 -50 -93.5t-68 -94.5q39 -48 68 -94.5t50 -93.5h-4q-47 52 -112 101t-135 86z" />
    <glyph glyph-name="guillemotright.cap" horiz-adv-x="463" 
d="M277 347v-2q-69 -37 -134 -86t-112 -101h-4q22 49 52 96.5t66 91.5q-36 44 -66 91.5t-52 96.5h4q47 -52 112 -101t134 -86zM456 347v-2q-69 -37 -134 -86t-112 -101h-4q22 49 52 96.5t66 91.5q-36 44 -66 91.5t-52 96.5h4q47 -52 112 -101t134 -86z" />
    <glyph glyph-name="slash.cap" horiz-adv-x="346" 
d="M31 -103h-31l295 872h31z" />
    <glyph glyph-name="backslash.cap" horiz-adv-x="346" 
d="M20 769h31l295 -872h-31z" />
    <glyph glyph-name="bar.cap" horiz-adv-x="192" 
d="M110 -103h-28v872h28v-872z" />
    <glyph glyph-name="periodcentered.cap" horiz-adv-x="226" 
d="M113 423q33 0 55.5 -23t22.5 -56q0 -32 -23 -55t-55 -23t-54.5 23t-22.5 55q0 33 22 56t55 23z" />
    <glyph glyph-name="bullet.cap" horiz-adv-x="326" 
d="M163 216q-52 0 -90 38t-38 90q0 53 38 90.5t90 37.5q53 0 90.5 -37.5t37.5 -90.5q0 -52 -37.5 -90t-90.5 -38z" />
    <glyph glyph-name="hyphen.cap" horiz-adv-x="319" 
d="M284 331h-249v40h249v-40z" />
    <glyph glyph-name="endash.cap" horiz-adv-x="490" 
d="M455 333h-420v33h420v-33z" />
    <glyph glyph-name="emdash.cap" horiz-adv-x="790" 
d="M755 333h-720v33h720v-33z" />
    <glyph glyph-name="parenleft.cap" horiz-adv-x="345" 
d="M45 334q0 137 70 249.5t199 186.5h16q-79 -68 -125.5 -185.5t-46.5 -250.5t46.5 -250.5t125.5 -185.5h-16q-129 74 -199 186.5t-70 249.5z" />
    <glyph glyph-name="parenright.cap" horiz-adv-x="345" 
d="M300 334q0 -137 -70 -249.5t-199 -186.5h-16q79 68 125.5 185.5t46.5 250.5t-46.5 250.5t-125.5 185.5h16q129 -74 199 -186.5t70 -249.5z" />
    <glyph glyph-name="bracketleft.cap" horiz-adv-x="326" 
d="M310 -101h-232v872h232v-4l-130 -33v-797l130 -34v-4z" />
    <glyph glyph-name="bracketright.cap" horiz-adv-x="326" 
d="M16 -97l130 34v797l-130 33v4h232v-872h-232v4z" />
    <glyph glyph-name="braceleft.cap" horiz-adv-x="366" 
d="M130 187q0 70 -30 106.5t-88 38.5v6q58 2 88 38.5t30 106.5q0 11 -1.5 23.5t-5.5 38.5q-5 30 -6.5 46t-1.5 30q0 68 52 109t138 41q15 0 27 -1t23 -3v-4q-62 0 -99.5 -37.5t-37.5 -100.5q0 -12 1.5 -27.5t7.5 -48.5q5 -31 6.5 -46t1.5 -26q0 -60 -44 -97.5t-109 -44.5
q65 -7 109 -44.5t44 -97.5q0 -11 -1.5 -26t-6.5 -46q-6 -33 -7.5 -48.5t-1.5 -27.5q0 -63 37.5 -100.5t99.5 -37.5v-4q-11 -2 -23 -3t-27 -1q-86 0 -138 41t-52 109q0 14 1.5 30t6.5 46q4 26 5.5 38.5t1.5 23.5z" />
    <glyph glyph-name="braceright.cap" horiz-adv-x="366" 
d="M236 187q0 -11 1.5 -23.5t5.5 -38.5q5 -30 6.5 -46t1.5 -30q0 -68 -52 -109t-138 -41q-15 0 -27 1t-23 3v4q62 0 99.5 37.5t37.5 100.5q0 12 -1.5 27.5t-7.5 48.5q-5 31 -6.5 46t-1.5 26q0 60 44 97.5t109 44.5q-65 7 -109 44.5t-44 97.5q0 11 1.5 26t6.5 46
q6 33 7.5 48.5t1.5 27.5q0 63 -37.5 100.5t-99.5 37.5v4q11 2 23 3t27 1q86 0 138 -41t52 -109q0 -14 -1.5 -30t-6.5 -46q-4 -26 -5.5 -38.5t-1.5 -23.5q0 -70 30 -106.5t88 -38.5v-6q-58 -2 -88 -38.5t-30 -106.5z" />
    <glyph glyph-name="at.cap" horiz-adv-x="914" 
d="M589 468q18 26 49.5 49t59.5 29l-72 -291q-10 -39 4.5 -61t49.5 -22q60 0 105 69t45 176q0 141 -97.5 229.5t-246.5 88.5q-79 0 -150 -33.5t-124 -95.5q-50 -58 -77 -132.5t-27 -155.5q0 -163 103.5 -265t265.5 -102q98 0 174 24.5t142 77.5l3 -5q-56 -60 -138 -91.5
t-181 -31.5q-197 0 -317 107t-120 287q0 91 33.5 171.5t96.5 141.5q62 60 143.5 92t172.5 32q169 0 278.5 -93.5t109.5 -245.5q0 -129 -62 -207t-154 -78q-57 0 -92 27.5t-37 75.5q-24 -50 -62 -76.5t-86 -26.5q-60 0 -96.5 41t-36.5 110q0 110 65.5 188t161.5 78
q44 0 74.5 -22t39.5 -59zM418 171q43 0 76 38.5t48 104.5l21 90q13 54 -3.5 85t-55.5 31q-60 0 -105.5 -76t-45.5 -168q0 -47 17.5 -76t47.5 -29z" />
    <glyph glyph-name="published" horiz-adv-x="810" 
d="M405 710q152 0 256 -103t104 -257t-104 -257t-256 -103t-256 103t-104 257t104 257t256 103zM405 10q144 0 242 97.5t98 242.5t-98 242.5t-242 97.5t-242 -97.5t-98 -242.5t98 -242.5t242 -97.5zM441 318h-81v-106q0 -22 7.5 -33.5t40.5 -28.5v-2h-166v2q24 15 29.5 26.5
t5.5 35.5v281q0 24 -5.5 35.5t-29.5 26.5v2h199q74 0 115 -31.5t41 -88.5t-41 -88t-115 -31zM360 540v-205h54q48 0 74 26.5t26 75.5q0 50 -26 76.5t-74 26.5h-54z" />
    <glyph glyph-name="florin.op" horiz-adv-x="547" 
d="M47 -195q-66 0 -104.5 24t-38.5 67q0 28 19.5 46t51.5 18q16 0 33 -5.5t26 -14.5q-22 0 -34.5 -15t-12.5 -41q0 -29 16 -46t44 -17q30 0 48.5 27.5t27.5 87.5l47 343h-92l3 20h92l20 147q12 90 64 140t133 50q67 0 105.5 -24t38.5 -67q0 -28 -19.5 -46t-51.5 -18
q-18 0 -34.5 5.5t-25.5 13.5q21 1 33.5 16.5t12.5 41.5q0 29 -15.5 45.5t-43.5 16.5q-31 0 -50 -28t-26 -87l-28 -206h124l-3 -20h-124l-38 -274q-14 -96 -65 -148t-133 -52z" />
    <glyph glyph-name="Euro.op" horiz-adv-x="638" 
d="M603 194h5q-16 -96 -79.5 -150t-158.5 -54q-109 0 -184 73t-88 196h-65v19h64q-1 5 -1 11v18q0 8 0.5 17.5l1.5 28.5h-65v20h68q18 121 100.5 192t202.5 71q84 0 138 -38t54 -100q0 -39 -24 -62.5t-62 -23.5q-24 0 -44 10.5t-28 28.5q3 -1 5 -1h6q29 0 46 18t17 51
q0 46 -28.5 72t-79.5 26q-77 0 -125.5 -64t-59.5 -180h206l-7 -20h-200q-1 -6 -1 -14v-24v-23.5t1 -13.5h176l-8 -19h-166q12 -97 64 -151.5t129 -54.5q73 0 119 34.5t71 106.5z" />
    <glyph glyph-name="dollar.op" horiz-adv-x="539" 
d="M272 618q-6 0 -13.5 -0.5t-18.5 -1.5v-224l62 -19v243q-12 1 -18.5 1.5t-11.5 0.5zM135 503q0 -40 19 -64t70 -41v214q-42 -10 -65.5 -39t-23.5 -70zM264 8q10 0 19.5 1t18.5 2v248l-62 18v-268q4 -1 9 -1h15zM426 141q0 44 -25 70.5t-83 42.5v-240q52 11 80 44t28 83z
M264 -10h-15t-9 1v-98h-16v99q-88 7 -142 44t-54 91q0 35 21.5 56t55.5 21q17 0 32 -6t27 -18q-22 -1 -34.5 -17t-12.5 -44q0 -40 28.5 -69t78.5 -39v271q-92 27 -133.5 70t-41.5 108q0 69 47.5 116t127.5 58v104h16v-102q5 1 11.5 1h20.5h18.5t11.5 -1v102h16v-103
q77 -8 123 -41t46 -81q0 -32 -19 -50.5t-50 -18.5q-17 0 -34 6t-23 15q19 2 32.5 18.5t13.5 41.5q0 33 -23.5 56.5t-65.5 32.5v-247l17 -5q95 -29 134.5 -71t39.5 -108q0 -73 -52.5 -124t-138.5 -65v-101h-16v99q-14 -1 -22.5 -1.5t-15.5 -0.5z" />
    <glyph glyph-name="sterling.op" horiz-adv-x="630" 
d="M603 92q0 -53 -38 -85t-98 -32q-32 0 -61 8t-58 26q-23 14 -58 41t-43 33q-29 -46 -67 -70t-80 -24q-39 0 -63.5 22t-24.5 57q0 38 26.5 61.5t70.5 23.5q18 0 40 -5t53 -16q3 18 4 34.5t1 32.5q0 19 -2 39t-13 81h-105v19h102q-5 32 -6.5 50.5t-1.5 35.5q0 97 63 154.5
t168 57.5q79 0 126.5 -34.5t47.5 -91.5q0 -38 -23 -61t-60 -23q-24 0 -45 10t-30 25q32 -2 52 18t20 55q0 40 -23 61.5t-65 21.5q-49 0 -75.5 -40t-26.5 -112v-108v-9.5v-9.5h158v-19h-159q-3 -62 -15 -115t-33 -95q59 -24 95.5 -32.5t68.5 -8.5q60 0 89.5 20.5t29.5 61.5
q0 12 -3.5 22t-11.5 20q34 -11 54 -38t20 -62zM36 68q0 -27 17 -43t45 -16q37 0 62.5 27t37.5 77q-21 11 -43 16t-46 5q-34 0 -53.5 -18t-19.5 -48z" />
    <glyph glyph-name="yen.op" horiz-adv-x="629" 
d="M431 2v-2h-233v2q34 17 46.5 42t12.5 76v106h-178v19h178v32l-27 41h-151v20h138l-120 186q-25 40 -44.5 61.5t-44.5 38.5v2h243v-2q-19 -12 -27.5 -25t-8.5 -30q0 -11 3.5 -23.5t10.5 -23.5l133 -210l133 203q9 14 13.5 27t4.5 25q0 18 -11 32.5t-33 24.5v2h152v-2
q-24 -16 -42 -35.5t-48 -64.5l-120 -186h139v-20h-152l-27 -41v-32h179v-19h-179v-106q0 -51 13 -76t47 -42z" />
    <glyph glyph-name="zero.op" horiz-adv-x="616" 
d="M308 636q121 0 197.5 -91t76.5 -232t-76.5 -232t-197.5 -91t-197.5 91t-76.5 232t76.5 232t197.5 91zM308 11q70 0 107 78t37 224t-37 224t-107 78t-107 -77.5t-37 -224.5t37 -224.5t107 -77.5z" />
    <glyph glyph-name="one.op" horiz-adv-x="365" 
d="M350 4v-4h-325v4q7 2 32 11t36 14q20 9 27.5 21t7.5 35v453q0 23 -8 35t-30 22q-11 5 -36 14t-35 13v4h229v-541q0 -23 7.5 -34.5t27.5 -21.5q10 -4 34 -13t33 -12z" />
    <glyph glyph-name="two.op" horiz-adv-x="536" 
d="M369 462q0 74 -33 115.5t-94 41.5q-57 0 -90.5 -36t-33.5 -95q0 -44 22.5 -70t60.5 -26q14 0 22.5 2t16.5 8h2q-11 -31 -35.5 -47.5t-59.5 -16.5q-53 0 -86 34.5t-33 89.5q0 75 60.5 124.5t153.5 49.5q110 0 179.5 -51t69.5 -134q0 -79 -73.5 -153.5t-297.5 -201.5h172
q103 0 140.5 18.5t71.5 73.5h2l-29 -188h-475v2q99 86 146.5 129t79.5 74q81 79 111 133.5t30 123.5z" />
    <glyph glyph-name="three.op" horiz-adv-x="523" 
d="M114 131q0 -56 33 -89t87 -33q63 0 102.5 45.5t39.5 117.5q0 80 -44.5 120t-133.5 40v9q76 3 112.5 38.5t36.5 110.5q0 62 -27 94.5t-79 32.5q-46 0 -74 -27.5t-28 -70.5q0 -31 14.5 -49t38.5 -18q7 0 12.5 1t10.5 3h2q-10 -24 -31 -36t-51 -12q-39 0 -63.5 25t-24.5 64
q0 60 55 99.5t139 39.5q102 0 164 -40.5t62 -106.5q0 -61 -48 -99.5t-134 -48.5q94 -5 154 -51t60 -117q0 -84 -73.5 -133.5t-191.5 -49.5q-96 0 -159.5 42.5t-63.5 111.5q0 45 28 72.5t72 27.5q29 0 48.5 -12t28.5 -37h-2q-6 2 -11.5 3t-13.5 1q-21 0 -34 -19t-13 -49z" />
    <glyph glyph-name="four.op" horiz-adv-x="579" 
d="M56 208h249v324zM305 126v55h-299v2l338 443h77v-418h39q41 0 58.5 12.5t36.5 60.5h2v-173h-2q-19 48 -36.5 60.5t-58.5 12.5h-39v-55q0 -56 12.5 -82.5t44.5 -41.5v-2h-230v2q32 15 44.5 41.5t12.5 82.5z" />
    <glyph glyph-name="five.op" horiz-adv-x="528" 
d="M113 131q0 -55 34 -88.5t89 -33.5q70 0 108 50.5t38 139.5q0 77 -40 121.5t-111 44.5q-36 0 -73 -18.5t-67 -50.5h-1l38 338q52 -8 104 -12.5t91 -4.5q71 0 100.5 10.5t51.5 36.5h2q0 -78 -39 -116t-117 -38q-42 0 -94.5 8t-87.5 18l-20 -194q28 26 71.5 41.5t92.5 15.5
q100 0 159.5 -52t59.5 -139q0 -95 -76.5 -156.5t-189.5 -61.5q-96 0 -159.5 42.5t-63.5 111.5q0 47 27 74.5t71 27.5q30 0 49.5 -13t29.5 -38h-2q-5 3 -10.5 4t-14.5 1q-22 0 -36 -19t-14 -50z" />
    <glyph glyph-name="six.op" horiz-adv-x="567" 
d="M34 336q0 161 86 267.5t221 106.5q84 0 135.5 -38t51.5 -101q0 -39 -25.5 -64.5t-62.5 -25.5q-33 0 -55.5 16t-29.5 44h2q5 -4 11.5 -5.5t16.5 -1.5q22 0 36.5 18t14.5 45q0 44 -25 69t-70 25q-87 0 -138 -90t-51 -234q0 -14 1 -29t2 -25q20 57 66.5 89.5t110.5 32.5
q92 0 148.5 -57t56.5 -157q0 -102 -66.5 -166.5t-172.5 -64.5q-118 0 -191 98.5t-73 247.5zM301 10q56 0 87 53.5t31 149.5q0 93 -31.5 142.5t-91.5 49.5q-56 0 -89.5 -52.5t-33.5 -139.5q0 -95 33.5 -149t94.5 -54z" />
    <glyph glyph-name="seven.op" horiz-adv-x="521" 
d="M16 425l21 211q11 -5 28.5 -7.5t45.5 -2.5h406v-2l-108 -164q-71 -104 -102.5 -233t-25.5 -292l-133 -13q11 131 64 253.5t181 292.5l37 51h-265q-62 0 -92 -19.5t-55 -74.5h-2z" />
    <glyph glyph-name="eight.op" horiz-adv-x="551" 
d="M484 493q0 -50 -38 -84t-107 -48q94 -30 140.5 -77t46.5 -112q0 -80 -69.5 -131t-178.5 -51q-112 0 -183 45.5t-71 118.5q0 53 42.5 92.5t114.5 55.5q-58 23 -89.5 65t-31.5 97q0 77 60 124.5t154 47.5q91 0 150.5 -40.5t59.5 -102.5zM275 617q-57 0 -90 -29.5t-33 -81.5
q0 -40 23.5 -66.5t80.5 -46.5l70 -27q37 24 54.5 55t17.5 72q0 57 -33 90.5t-90 33.5zM426 134q0 41 -27.5 69.5t-89.5 50.5l-116 43q-36 -20 -56.5 -56.5t-20.5 -78.5q0 -71 44 -112t118 -41q68 0 108 33t40 92z" />
    <glyph glyph-name="nine.op" horiz-adv-x="567" 
d="M533 290q0 -161 -86 -267.5t-221 -106.5q-84 0 -135.5 38t-51.5 101q0 39 25.5 64.5t62.5 25.5q33 0 55.5 -16t29.5 -44h-2q-5 4 -11.5 5.5t-16.5 1.5q-22 0 -36.5 -18t-14.5 -45q0 -44 25 -69t70 -25q87 0 138 90t51 234q0 14 -1 29t-2 25q-20 -57 -66.5 -89.5
t-110.5 -32.5q-92 0 -148.5 57t-56.5 157q0 102 66.5 166.5t172.5 64.5q118 0 191 -98.5t73 -247.5zM266 616q-56 0 -87 -53.5t-31 -149.5q0 -93 31.5 -142.5t91.5 -49.5q56 0 89.5 52.5t33.5 139.5q0 95 -33.5 149t-94.5 54z" />
    <glyph glyph-name="percent.op" horiz-adv-x="655" 
d="M528 635l-383 -635h-39l375 595q-24 -21 -52.5 -31.5t-62.5 -10.5q-19 0 -37 3t-37 10q12 -18 18 -39t6 -42q0 -61 -43.5 -105t-104.5 -44t-104.5 44t-43.5 105q0 62 43.5 106t104.5 44q21 0 39.5 -5.5t48.5 -23.5q35 -20 58.5 -26.5t51.5 -6.5q42 0 72.5 13t77.5 58z
M105 485q0 -66 16 -99t47 -33t47 33t16 99q0 67 -16 100t-47 33t-47 -33t-16 -100zM635 145q0 -62 -43.5 -106t-104.5 -44t-104.5 44t-43.5 106q0 61 43.5 105.5t104.5 44.5t104.5 -44.5t43.5 -105.5zM424 145q0 -67 16 -100t47 -33t47 33t16 100q0 66 -15.5 99t-47.5 33
t-47.5 -33t-15.5 -99z" />
    <glyph glyph-name="perthousand.op" horiz-adv-x="989" 
d="M528 635l-383 -635h-38l374 595q-24 -21 -52.5 -31.5t-62.5 -10.5q-19 0 -37 3t-37 10q12 -18 18 -39t6 -42q0 -61 -43.5 -105t-104.5 -44t-104.5 44t-43.5 105q0 62 43.5 106t104.5 44q21 0 39.5 -5.5t48.5 -23.5q35 -20 58.5 -26.5t51.5 -6.5q42 0 72.5 13t77.5 58z
M105 485q0 -66 16 -99t47 -33t47 33t16 99q0 67 -16 100t-47 33t-47 -33t-16 -100zM635 145q0 -62 -43.5 -106t-104.5 -44t-104.5 44t-43.5 106q0 61 43.5 105.5t104.5 44.5t104.5 -44.5t43.5 -105.5zM969 145q0 -62 -44 -106t-105 -44t-104.5 44t-43.5 106q0 61 43.5 105.5
t104.5 44.5t105 -44.5t44 -105.5zM424 145q0 -67 16 -100t47 -33t47 33t16 100q0 66 -15.5 99t-47.5 33t-47.5 -33t-15.5 -99zM757 145q0 -66 16 -99.5t47 -33.5t47 33t16 100q0 66 -15.5 99t-47.5 33q-31 0 -47 -33.5t-16 -98.5z" />
    </font>
</defs>
</svg>
